<?xml version="1.0" encoding="utf-8"?>
<!-- Generator: Adobe Illustrator 25.1.0, SVG Export Plug-In . SVG Version: 6.00 Build 0)  -->
<svg version="1.1" id="bcc3eb47-7a16-46ed-87e5-3206e54d1d39"
	 xmlns="http://www.w3.org/2000/svg" xmlns:xlink="http://www.w3.org/1999/xlink" x="0px" y="0px" viewBox="0 0 677 421.4"
	 style="enable-background:new 0 0 677 421.4;" xml:space="preserve">
<style type="text/css">
	.st0{fill:#3F3D56;}
	.st1{fill:#1EBCC1;}
	.st2{opacity:0.1;enable-background:new    ;}
	.st3{fill:#2F2E41;}
	.st4{fill:#FFFFFF;}
</style>
<polygon class="st0" points="164.7,143.1 164.7,129.8 246.3,88.7 300.7,228.1 217.4,250.2 "/>
<polygon class="st1" points="302.2,231.7 245.5,96.3 241.2,98.3 239.5,94.3 168.2,132.4 168.3,132.6 167.7,132.9 173.7,147 
	213.6,252.9 218.2,251.7 219.6,254.9 "/>
<polygon class="st2" points="219.6,253.9 302.2,230.7 245.5,95.3 167.7,131.9 "/>
<path class="st1" d="M264.6,214.3c-2.3-1.1-3.8-3.3-3.9-5.9l-0.8-14.6c-0.2-3.8,2.7-7.1,6.5-7.3l121.4-6.4c3.8-0.2,7.1,2.7,7.3,6.5
	l0.8,14.6c0.2,3.8-2.7,7.1-6.5,7.3L267.9,215C266.8,215,265.6,214.8,264.6,214.3z"/>
<path class="st3" d="M348.2,214.6c-2.4-1.2-3.9-3.6-3.9-6.3l-0.1-27.4c0-3.8,3.1-6.9,7-6.9c0,0,0,0,0,0l55.4,4.9
	c1.5,0,3.3,2.3,4.8,4.1c0.5,0.6,0.9,1.1,1.2,1.4c0.1,0.1,0.3,0.3,0.4,0.4l0,0c1.1,1.3,1.6,2.9,1.6,4.5l-0.1,14.6
	c0,3.8-3.2,6.9-7,6.9l-56.2,4.6C350.2,215.3,349.2,215,348.2,214.6z"/>
<circle class="st1" cx="393.2" cy="85.6" r="52.9"/>
<path class="st1" d="M382.9,421.4h-14.6c-3.8,0-6.9-3.1-6.9-6.9V291c0-3.8,3.1-6.9,6.9-6.9h14.6c3.8,0,6.9,3.1,6.9,6.9v123.5
	C389.8,418.3,386.7,421.4,382.9,421.4z"/>
<path class="st1" d="M421.4,421.4h-14.6c-3.8,0-6.9-3.1-6.9-6.9V291c0-3.8,3.1-6.9,6.9-6.9h14.6c3.8,0,6.9,3.1,6.9,6.9v123.5
	C428.3,418.3,425.2,421.4,421.4,421.4z"/>
<path class="st3" d="M363.8,105.2l-0.1-2c3.7-0.1,6.9-0.3,9.4-2.1c1.4-1.1,2.3-2.7,2.4-4.5c0.1-1.1-0.3-2.1-1.1-2.9
	c-1.6-1.4-4.2-0.9-6.1-0.1l-1.6,0.7l3.1-22.9l2,0.3L369,91.3c2.6-0.8,5-0.4,6.6,0.9c1.3,1.1,2,2.8,1.8,4.4c-0.1,2.4-1.3,4.6-3.2,6
	C371.1,105,367.1,105.1,363.8,105.2z"/>
<rect x="381.4" y="73.5" class="st3" width="10.6" height="2"/>
<rect x="347.8" y="73.5" class="st3" width="10.6" height="2"/>
<path class="st3" d="M453.4,261.7l-48.8-97.3h0.7c3.5,0,6.4-2.9,6.4-6.4v-2c0-3.5-2.9-6.4-6.4-6.4h-21.7c-3.5,0-6.4,2.9-6.4,6.4v2
	c0,3.3,2.5,6,5.7,6.3l-49,97.5c-7.5,15-1.5,33.3,13.5,40.8c4.2,2.1,8.9,3.2,13.6,3.2h65.2c16.8,0,30.5-13.6,30.5-30.5
	C456.7,270.7,455.6,266,453.4,261.7z"/>
<path class="st3" d="M385.2,51.5c-12.8,8.8-32.4,3.9-38.1-10.9c-2.9-7.3-2.4-15.4,1.1-22.4c4-7.5,11.8-12,19.9-13.7
	c10.9-2.3,22.3,0.8,32.3,5.2c0.7,0.4,1.6,0.3,2.3-0.3c9.6-7.6,23.4-4.3,33.2,1c10.6,5.9,19.6,14.4,26.1,24.7
	c6.7,10.2,10.8,21.8,12.1,33.8c2.5,26.5-8.9,52.4-30.1,68.6c-1.9,1.4,0,4.7,1.9,3.2c21.1-15.8,33.7-42.1,32.2-68.5
	c-1.5-25.7-16.2-50.5-38.3-63.8C428,1.3,411.6-2.5,400,6.7l2.3-0.3c-10-4.4-21-7.5-32-6.1c-9.4,1.2-18.6,5.7-23.9,13.7
	c-4.8,7.4-6.1,16.5-3.7,25c2.4,8.4,8.6,15.2,16.7,18.3c9,3.6,19.7,2.7,27.7-2.8C389.1,53.3,387.2,50.1,385.2,51.5L385.2,51.5z"/>
<polygon class="st1" points="319.2,249.7 262.5,114.3 257.9,115.5 256.5,112.3 170.2,137.4 170.3,137.8 169.7,137.9 175.8,151.7 
	215.6,253.9 220.6,253.6 221.6,255.9 "/>
<polygon class="st0" points="220.8,270.6 320.2,249.4 265,117.6 164.7,143.1 "/>
<circle class="st4" cx="231.2" cy="167.4" r="19"/>
<path class="st1" d="M384.6,191.8c0.7,0,1.4,0.2,2.1,0.4c1.7,0.6,3.1,1.9,3.9,3.6l6.1,13.3c1.6,3.5,0.1,7.6-3.4,9.2l-110.5,50.6
	c-3.5,1.6-7.6,0.1-9.2-3.4l-6.1-13.3c-1.6-3.5-0.1-7.6,3.4-9.2l110.5-50.6C382.4,192,383.5,191.8,384.6,191.8z"/>
<path class="st3" d="M386.7,188.8c2.6,0.1,4.9,1.7,6,4.1l5.9,13.3c0.7,1.5,0.8,3.2,0.3,4.8c-0.1,0.2-0.1,0.3-0.2,0.5l0,0
	c-0.2,0.4-0.3,1-0.5,1.7c-0.6,2.3-1.4,5.1-2.8,5.7l-48.8,26.5c-3.5,1.6-7.6,0-9.1-3.4c0,0,0,0,0,0l-10.8-25.2
	c-1.5-3.5,0-7.6,3.5-9.1l53.4-18.3C384.6,188.9,385.7,188.7,386.7,188.8z"/>
</svg>
