<?xml version="1.0" encoding="utf-8"?>
<!-- Generator: Adobe Illustrator 25.1.0, SVG Export Plug-In . SVG Version: 6.00 Build 0)  -->
<svg version="1.1" id="af68f4ca-3b92-43b5-826f-d4785abba14f"
	 xmlns="http://www.w3.org/2000/svg" xmlns:xlink="http://www.w3.org/1999/xlink" x="0px" y="0px" viewBox="0 0 657.1 782.1"
	 style="enable-background:new 0 0 657.1 782.1;" xml:space="preserve">
<style type="text/css">
	.st0{fill:#3F3D56;}
	.st1{fill:#1EBCC1;}
	.st2{fill:#E6E6E6;}
	.st3{fill:#FFFFFF;}
</style>
<path class="st0" d="M294.9,629.6h58.3l0,0l0,0c0,12.7-10.3,23-23,23l0,0h-12.3C305.2,652.6,294.9,642.3,294.9,629.6L294.9,629.6
	L294.9,629.6L294.9,629.6z"/>
<path class="st1" d="M366.7,578.1v-21.4c0-25.8,28.1-50.3,46.3-67.7c25.7-24.6,39.2-57.5,39.2-96.2c0-70.8-57.4-128.2-128.2-128.2
	c-70.5,0-127.9,57-128.2,127.5c0,0.2,0,0.5,0,0.7c0,37.3,14.1,72.5,39.2,96.2c18.1,17.1,46.3,41.6,46.3,67.7v21.4"/>
<path class="st0" d="M366.7,581.1c-1.7,0-3-1.3-3-3c0,0,0,0,0,0v-21.4c0-25.1,24.8-48.6,42.9-65.7c1.5-1.4,3-2.8,4.4-4.1
	c25-23.9,38.3-56.4,38.3-94c0-70.2-55-125.2-125.2-125.2c-0.1,0-0.2,0-0.4,0c-68.8,0.1-124.6,55.7-124.9,124.5v0.7
	c0,36.8,13.9,71.1,38.2,94c1.2,1.2,2.5,2.4,3.8,3.6c18.3,17.2,43.4,40.7,43.4,66.3v21.4c0,1.7-1.3,3-3,3s-3-1.3-3-3l0,0v-21.4
	c0-23-24-45.5-41.5-61.9c-1.3-1.2-2.6-2.4-3.8-3.6c-25.5-24.1-40.1-59.9-40.1-98.4v-0.7c0.2-72,58.9-130.5,130.9-130.5
	c0.1,0,0.2,0,0.4,0c72.1-0.4,130.9,57.8,131.2,129.9c0,0.5,0,0.9,0,1.4c0,39.3-13.9,73.3-40.1,98.4c-1.4,1.3-2.9,2.7-4.4,4.2
	c-17.3,16.4-41,38.8-41,61.3v21.4C369.7,579.7,368.4,581.1,366.7,581.1C366.7,581.1,366.7,581.1,366.7,581.1z"/>
<path class="st1" d="M352.5,619.6h-57c-2.8,0-5-2.2-5-5s2.2-5,5-5h57c2.8,0,5,2.2,5,5S355.2,619.6,352.5,619.6z"/>
<path class="st2" d="M191.4,275c-1.2,0-2.4-0.4-3.3-1.2l-42.9-37.5c-2.1-1.8-2.3-5-0.5-7.1c1.8-2.1,5-2.3,7.1-0.5c0,0,0,0,0,0
	l42.9,37.5c2.1,1.8,2.3,5,0.5,7.1C194.2,274.3,192.8,275,191.4,275L191.4,275z"/>
<path class="st2" d="M449.5,275c-2.8,0-5-2.2-5-5c0-1.4,0.6-2.8,1.7-3.8l42.9-37.5c2.1-1.8,5.2-1.6,7.1,0.5c1.8,2.1,1.6,5.2-0.5,7.1
	l-42.9,37.5C451.8,274.5,450.7,275,449.5,275z"/>
<path class="st1" d="M366.7,601.8h-85.5c-2.8,0-5-2.2-5-5s2.2-5,5-5h85.5c2.8,0,5,2.2,5,5S369.5,601.8,366.7,601.8z"/>
<path class="st3" d="M324,583.1c-2.8,0-5-2.2-5-5c0,0,0,0,0,0v-114c0-2.8,2.2-5,5-5s5,2.2,5,5v114C329,580.8,326.7,583.1,324,583.1
	C324,583.1,324,583.1,324,583.1z"/>
<path class="st3" d="M324,469.1c-16.2,0-36-14.6-36.8-15.2c-2.2-1.6-2.7-4.8-1-7s4.8-2.7,7-1l0,0c5,3.7,20.2,13.3,30.9,13.3
	s25.9-9.6,30.9-13.3c2.2-1.6,5.3-1.2,7,1s1.2,5.3-1,7C360,454.5,340.1,469.1,324,469.1z"/>
<path class="st2" d="M324,225.1c-2.8,0-5-2.2-5-5v-85.5c0-2.8,2.2-5,5-5s5,2.2,5,5v85.5C329,222.8,326.7,225.1,324,225.1z"/>
</svg>
