<?xml version="1.0" encoding="UTF-8" standalone="no"?>
<svg
   xmlns:dc="http://purl.org/dc/elements/1.1/"
   xmlns:cc="http://creativecommons.org/ns#"
   xmlns:rdf="http://www.w3.org/1999/02/22-rdf-syntax-ns#"
   xmlns:svg="http://www.w3.org/2000/svg"
   xmlns="http://www.w3.org/2000/svg"
   viewBox="0 0 1600 1600"
   height="1600"
   width="1600"
   xml:space="preserve"
   id="svg2"
   version="1.1"><metadata
     id="metadata8"><rdf:RDF><cc:Work
         rdf:about=""><dc:format>image/svg+xml</dc:format><dc:type
           rdf:resource="http://purl.org/dc/dcmitype/StillImage" /></cc:Work></rdf:RDF></metadata><defs
     id="defs6"><clipPath
       id="clipPath18"
       clipPathUnits="userSpaceOnUse"><path
         id="path16"
         d="M 0,1200 H 1200 V 0 H 0 Z" /></clipPath></defs><g
     transform="matrix(1.3333333,0,0,-1.3333333,0,1600)"
     id="g10"><g
       id="g12"><g
         clip-path="url(#clipPath18)"
         id="g14"><g
           transform="translate(440.7598,363.1689)"
           id="g20"><path
             id="path22"
             style="fill:#22bdc2;fill-opacity:1;fill-rule:nonzero;stroke:none"
             d="m 0,0 c 0.384,1.137 0.716,1.711 0.75,2.303 0.09,1.539 0.06,3.087 0.06,4.631 0.002,22.821 -0.011,45.643 0.023,68.465 0.002,2.019 -0.431,4.116 0.565,6.026 3.715,0.831 25.766,0.963 31.585,0.15 0.162,-0.837 0.42,-1.784 0.509,-2.746 0.094,-1.021 0.032,-2.058 0.032,-3.087 10e-4,-41.011 0.003,-82.022 -0.006,-123.033 0,-1.855 -0.101,-3.709 -0.153,-5.465 -3.894,-0.944 -23.222,-1.198 -32.512,-0.465 -5.217,8.713 -10.242,17.853 -15.419,26.902 -5.196,9.079 -10.335,18.19 -15.544,27.262 -5.189,9.036 -10.178,18.191 -15.97,27.779 -0.419,-1.263 -0.749,-1.805 -0.756,-2.351 -0.052,-3.774 -0.042,-7.55 -0.042,-11.325 -0.002,-20.763 0.003,-41.525 -0.007,-62.288 -0.001,-1.86 -0.085,-3.718 -0.135,-5.756 -3.795,-0.961 -7.386,-0.408 -10.927,-0.503 -3.429,-0.093 -6.864,-0.025 -10.295,-0.019 -3.583,0.007 -7.166,0.026 -10.801,0.039 -0.28,0.963 -0.565,1.594 -0.63,2.247 -0.101,1.02 -0.066,2.056 -0.066,3.086 -0.003,41.525 -0.008,83.051 0.016,124.577 0.001,1.668 -0.404,3.427 0.778,5.3 1.165,0.108 2.487,0.332 3.811,0.336 8.065,0.034 16.133,-0.1 24.194,0.079 2.951,0.065 4.617,-0.909 6.085,-3.523 C -33.357,58.133 -21.701,37.734 -10.09,17.31 -7.462,12.688 -4.83,8.069 -2.18,3.46 -1.598,2.447 -0.937,1.48 0,0" /></g><g
           transform="translate(981.3965,365.7939)"
           id="g24"><path
             id="path26"
             style="fill:#22bdc2;fill-opacity:1;fill-rule:nonzero;stroke:none"
             d="m 0,0 c -0.573,0.11 -1.225,0.346 -1.876,0.347 -14.741,0.02 -29.482,0.015 -44.007,0.015 -1.701,-1.641 -1.142,-3.457 -1.147,-5.093 -0.042,-15.095 -0.019,-30.19 -0.034,-45.285 -0.002,-1.846 -0.123,-3.693 -0.2,-5.853 -3.853,-0.499 -7.426,-0.219 -10.977,-0.267 -3.43,-0.047 -6.862,-0.025 -10.292,-0.006 -3.57,0.02 -7.139,0.073 -10.954,0.113 -0.172,1.473 -0.414,2.619 -0.422,3.765 -0.039,6.175 -0.021,12.351 -0.021,18.526 V 72.27 78.598 c 0.965,0.315 1.731,0.781 2.498,0.785 9.434,0.045 18.868,0.029 28.301,-0.002 0.481,-0.002 0.96,-0.281 1.455,-0.436 1.03,-1.606 0.596,-3.36 0.6,-5.019 0.036,-13.895 0.02,-27.789 0.021,-41.683 0,-1.877 -10e-4,-3.754 -10e-4,-5.846 1.167,-0.291 2.108,-0.728 3.049,-0.731 13.894,-0.042 27.788,-0.034 41.683,-0.006 0.825,0.001 1.649,0.274 2.362,0.4 1.128,1.933 0.694,3.865 0.7,5.713 0.04,13.723 0.018,27.446 0.027,41.168 0.001,1.868 0.065,3.734 0.103,5.721 0.844,0.301 1.454,0.707 2.067,0.71 9.432,0.043 18.866,0.04 28.299,0.019 0.485,-0.001 0.969,-0.256 1.737,-0.472 0.133,-0.922 0.32,-1.889 0.4,-2.864 0.07,-0.852 0.021,-1.714 0.021,-2.572 10e-4,-41.169 0.003,-82.337 -0.008,-123.504 0,-1.846 -0.12,-3.693 -0.195,-5.847 -3.694,-0.486 -7.097,-0.225 -10.478,-0.268 -3.603,-0.046 -7.205,-0.01 -10.807,-0.01 H 1.769 c -1.454,1.947 -0.98,3.892 -0.986,5.707 C 0.742,-35.516 0.775,-20.592 0.739,-5.669 0.734,-3.833 1.152,-1.906 0,0" /></g><g
           transform="translate(582.6177,379.4004)"
           id="g28"><path
             id="path30"
             style="fill:#22bdc2;fill-opacity:1;fill-rule:nonzero;stroke:none"
             d="m 0,0 c -0.104,2.294 -0.188,6.585 -0.521,10.856 -0.471,6.021 -1.745,11.893 -4.422,17.341 -4.515,9.192 -11.735,13.955 -22.231,13.521 -8.458,-0.351 -14.69,-4.09 -18.82,-11.424 -1.952,-3.467 -3.247,-7.19 -4.004,-11.075 -2.482,-12.754 -2.456,-25.586 -0.73,-38.405 0.734,-5.447 2.456,-10.656 5.151,-15.533 8.175,-14.79 30.49,-15.056 38.894,-0.629 2.536,4.355 4.177,8.989 5.191,13.892 C -0.164,-15.028 -0.104,-8.514 0,0 m -84.94,-1.832 c -0.461,9.316 0.415,18.505 3.122,27.455 3.502,11.577 9.301,21.721 18.838,29.435 9.213,7.451 19.776,11.505 31.589,12.28 7.57,0.496 15.062,0.157 22.427,-1.957 13.813,-3.966 24.487,-12.039 32.006,-24.256 5.106,-8.294 8.135,-17.341 9.421,-26.979 1.482,-11.115 1.46,-22.239 -0.123,-33.331 -1.346,-9.434 -4.349,-18.344 -9.429,-26.448 -9.013,-14.376 -22.054,-22.623 -38.767,-25.264 -9.836,-1.554 -19.493,-0.875 -28.973,2.081 -12.798,3.992 -22.729,11.753 -29.813,23.128 -6.3,10.117 -9.414,21.256 -10.258,33.055 -0.256,3.583 -0.04,7.199 -0.04,10.801" /></g><g
           transform="translate(844.6855,377.1807)"
           id="g32"><path
             id="path34"
             style="fill:#22bdc2;fill-opacity:1;fill-rule:nonzero;stroke:none"
             d="m 0,0 c 0,3.944 0.237,7.906 -0.051,11.829 -0.531,7.226 -1.953,14.282 -5.649,20.655 -4.762,8.207 -11.921,11.901 -21.411,11.444 -8.935,-0.43 -15.163,-4.761 -19.16,-12.577 -2.209,-4.321 -3.467,-8.965 -4.113,-13.733 -1.55,-11.442 -1.646,-22.92 -0.016,-34.361 0.877,-6.153 2.745,-12.003 6.162,-17.302 8.216,-12.739 28.528,-12.984 36.916,-0.55 2.426,3.598 4.126,7.488 5.301,11.64 C 0.109,-15.437 0.339,-7.735 0,0 m 34.15,0.274 c -0.169,-10.034 -1.224,-19.883 -4.334,-29.443 -2.904,-8.929 -7.31,-17.015 -13.92,-23.75 -10.351,-10.546 -23.171,-15.587 -37.747,-16.477 -7.247,-0.442 -14.409,0.325 -21.373,2.374 -13.766,4.05 -24.385,12.26 -31.725,24.61 -5.526,9.298 -8.501,19.438 -9.445,30.168 -0.736,8.389 -0.744,16.812 0.058,25.187 1.249,13.032 5.137,25.191 13.289,35.652 9.814,12.592 22.91,19.324 38.689,20.849 7.891,0.763 15.744,0.409 23.462,-1.765 C 4.556,63.889 15.098,56.192 22.688,44.465 28.283,35.822 31.531,26.299 32.852,16.148 33.535,10.89 33.733,5.567 34.15,0.274" /></g><g
           transform="translate(808.7637,597.3975)"
           id="g36"><path
             id="path38"
             style="fill:#22bdc2;fill-opacity:1;fill-rule:nonzero;stroke:none"
             d="M 0,0 C -0.303,30.134 24.771,54.024 53.812,54.165 80.84,54.295 108.137,32.916 108.039,-0.143 107.945,-31.879 82.146,-54.126 53.925,-54.034 23.318,-53.935 -0.29,-28.869 0,0" /></g><g
           transform="translate(740.6172,404.8545)"
           id="g40"><path
             id="path42"
             style="fill:#22bdc2;fill-opacity:1;fill-rule:nonzero;stroke:none"
             d="m 0,0 h -31.538 c -0.344,1.237 -0.774,2.346 -0.95,3.494 -1.179,7.616 -5.94,11.814 -13.147,13.285 -4.559,0.931 -9.22,0.753 -13.738,-0.706 -2.658,-0.858 -5.035,-2.188 -6.955,-4.233 -4.25,-4.525 -4.383,-10.906 0.014,-15.252 2.035,-2.013 4.515,-3.768 7.1,-4.989 4.481,-2.118 9.151,-3.865 13.83,-5.52 6.628,-2.345 13.277,-4.606 19.587,-7.748 5.404,-2.69 10.49,-5.848 14.839,-10.077 10.551,-10.264 13.471,-22.76 10.386,-36.816 -1.897,-8.645 -7.137,-15.067 -14.422,-19.909 -5.812,-3.862 -12.269,-6.129 -19.072,-7.329 -12.678,-2.236 -25.286,-1.892 -37.693,1.772 -7.302,2.156 -14.107,5.379 -19.967,10.325 -8.998,7.595 -13.751,17.344 -14.399,29.087 -0.055,0.984 0.16,1.984 0.243,2.911 3.972,0.814 27.037,0.904 32.229,0.116 0.143,-0.861 0.295,-1.832 0.469,-2.798 0.335,-1.849 0.546,-3.735 1.052,-5.537 1.446,-5.15 4.752,-8.727 9.795,-10.445 6.454,-2.197 13.096,-2.823 19.757,-1.069 5.11,1.346 9.097,4.115 9.983,9.818 0.886,5.695 -0.493,10.689 -5.477,13.982 -2.981,1.969 -6.247,3.587 -9.551,4.964 -4.582,1.909 -9.372,3.315 -13.979,5.169 -5.559,2.237 -11.099,4.554 -16.501,7.139 -5.288,2.53 -9.932,6.044 -14.138,10.172 -13.837,13.583 -14.155,38.619 4.373,51.722 5.822,4.118 12.237,6.876 19.159,8.476 12.581,2.906 25.16,3.059 37.657,-0.411 6.508,-1.808 12.507,-4.745 17.69,-9.148 C -4.663,23.056 -0.025,13.637 0.471,2.217 0.498,1.585 0.208,0.939 0,0" /></g><g
           transform="translate(770.333,294.1377)"
           id="g44"><path
             id="path46"
             style="fill:#462e80;fill-opacity:1;fill-rule:nonzero;stroke:none"
             d="m 0,0 c 5.817,0.47 10.892,0.417 15.966,0.102 1.065,-2.025 0.644,-3.947 0.648,-5.778 0.038,-17.503 0.023,-35.006 0.023,-52.51 v -5.775 c 4.307,-1.263 8.419,-0.536 12.463,-0.648 3.913,-0.109 7.832,0.016 12.069,0.04 0.178,1.639 0.435,2.941 0.44,4.245 0.036,9.265 0.008,18.532 0.032,27.799 0.004,1.675 0.15,3.351 0.239,5.198 2.766,0.831 5.337,0.392 7.855,0.465 2.562,0.074 5.127,0.016 7.975,0.016 0.262,-1.325 0.658,-2.435 0.671,-3.55 0.066,-5.833 0,-11.668 0.057,-17.502 0.023,-2.225 0.13,-4.465 0.428,-6.667 0.204,-1.508 0.675,-3.015 1.252,-4.431 1.433,-3.517 4.15,-5.344 7.925,-5.6 0.684,-0.047 1.372,-0.041 2.058,-0.041 12.698,-0.003 25.397,-0.01 38.095,0.007 1.177,10e-4 2.353,0.16 3.613,0.252 -0.207,5.134 -0.304,10.062 -0.642,14.974 -0.217,3.169 -1.52,5.955 -3.911,8.158 -3.417,3.149 -8.098,3.393 -11.689,0.426 -1.304,-1.078 -2.359,-2.471 -3.462,-3.775 -0.753,-0.89 -1.393,-1.876 -2.205,-2.983 -4.728,2.001 -9.05,4.331 -13.504,7.066 3.759,7.984 9.354,13.545 17.903,15.8 17.328,4.571 32.764,-9.309 33.422,-25.151 0.056,-1.371 -0.051,-2.763 0.146,-4.112 0.271,-1.854 0.563,-3.749 1.195,-5.499 1.226,-3.395 3.65,-5.289 7.431,-5.171 2.058,0.064 4.118,0.011 6.178,0.011 27.284,-0.003 54.569,-0.009 81.853,-0.002 1.86,10e-4 3.719,0.095 5.622,0.147 1.055,1.996 0.691,3.909 0.695,5.734 0.03,17.503 0.018,35.007 0.018,52.51 v 5.69 c 2.787,1.465 5.561,0.762 8.215,0.826 2.536,0.06 5.113,0.329 7.874,-0.374 0.138,-0.847 0.384,-1.655 0.385,-2.463 0.021,-24.539 0.021,-49.079 0.011,-73.618 -0.001,-0.823 -0.152,-1.646 -0.261,-2.772 -1.699,-0.115 -3.19,-0.301 -4.684,-0.305 -10.981,-0.024 -21.963,-0.011 -32.946,-0.013 -45.13,-0.011 -90.261,-0.044 -135.39,0.002 -4.602,0.004 -9.279,-0.571 -13.792,0.985 -0.436,0.15 -1.115,0.165 -1.459,-0.075 -2.032,-1.413 -4.316,-0.878 -6.494,-0.888 -11.497,-0.051 -22.994,-0.024 -34.491,-0.02 -2.575,10e-4 -5.119,0.072 -7.606,0.977 -6.108,2.224 -9.785,7.018 -10.165,13.496 -0.061,1.026 -0.052,2.058 -0.053,3.087 C 0,-42.833 0,-23.957 0,-5.081 Z" /></g><g
           transform="translate(566.1641,253.04)"
           id="g48"><path
             id="path50"
             style="fill:#462e80;fill-opacity:1;fill-rule:nonzero;stroke:none"
             d="m 0,0 c -4.404,-3.092 -8.595,-5.318 -13.058,-7.621 -0.739,0.832 -1.413,1.54 -2.028,2.296 -0.54,0.664 -0.991,1.399 -1.523,2.07 -5.062,6.39 -11.957,6.851 -18.177,0.815 -2.25,-2.184 -2.908,-4.919 -2.887,-7.964 0.056,-7.986 4.691,-12.917 12.672,-13.106 5.998,-0.141 12.002,-0.032 18.004,-0.035 h 5.06 c 1.535,-2.495 0.82,-4.942 0.924,-7.257 0.098,-2.197 -0.064,-4.405 -0.111,-6.563 -1.833,-1.208 -3.587,-0.789 -5.231,-0.793 -14.747,-0.032 -29.494,-0.019 -44.24,-0.019 -7.545,10e-4 -15.09,-0.055 -22.634,0.037 -2.375,0.03 -4.745,0.461 -7.118,0.705 -0.494,0.051 -1.087,0.284 -1.468,0.095 -3.112,-1.537 -6.416,-0.769 -9.622,-0.799 -10.802,-0.099 -21.605,-0.047 -32.408,-0.028 -1.68,0.003 -3.36,0.134 -4.943,0.201 -0.973,4.233 -0.992,9.383 -0.047,14.203 3.093,0.447 6.33,0.157 9.541,0.207 3.257,0.051 6.516,-0.003 9.773,0.016 3.23,0.018 6.46,0.069 9.56,0.105 1.732,5.15 0.806,12.206 -2.018,17.05 -2.921,5.009 -7.731,8.105 -12.19,11.751 1.816,4.635 4.158,8.758 6.374,12.696 1.456,0.614 2.255,-0.226 2.999,-0.812 3.629,-2.861 7.379,-5.604 10.74,-8.758 5.927,-5.561 9.363,-12.58 11.016,-20.507 0.384,-1.839 0.721,-3.721 1.396,-5.461 1.434,-3.684 4.211,-5.905 8.206,-5.985 7.014,-0.142 14.032,-0.04 21.39,-0.04 -0.232,1.316 -0.255,2.324 -0.589,3.217 -5.413,14.464 2.239,32.148 21.147,36.352 9,2.001 17.381,-0.305 24.295,-6.747 C -5.697,7.927 -4.356,6.342 -3.09,4.729 -2.05,3.401 -1.229,1.903 0,0" /></g><g
           transform="translate(649.624,229.5312)"
           id="g52"><path
             id="path54"
             style="fill:#462e80;fill-opacity:1;fill-rule:nonzero;stroke:none"
             d="m 0,0 c 0.728,3.898 0.894,13.963 0.373,16.387 -1.044,4.866 -5.246,8.867 -9.769,9.299 -5.331,0.51 -9.697,-2.103 -11.797,-7.189 -1.658,-4.016 -1.559,-8.064 0.415,-11.935 2.01,-3.94 5.253,-6.326 9.754,-6.53 C -7.45,-0.129 -3.864,0 0,0 m -25.336,-33.883 c -0.168,4.904 -0.264,9.312 0.058,13.873 7.215,1.338 14.672,0.35 21.435,4.746 -1.771,0.902 -3.259,0.538 -4.65,0.581 -3.251,0.102 -6.468,0.109 -9.696,0.871 -10.252,2.424 -20.313,13.061 -20.596,25.381 -0.293,12.765 7.102,23.705 18.933,27.629 15.263,5.063 31.574,-3.283 36.058,-18.499 0.481,-1.628 0.844,-3.353 0.874,-5.04 0.139,-7.712 0.216,-15.427 0.168,-23.139 -0.042,-6.773 -3.187,-12.137 -8.029,-16.64 -4.109,-3.82 -8.976,-6.287 -14.326,-7.776 -5.807,-1.618 -11.743,-2.438 -17.786,-2.328 -0.652,0.012 -1.301,0.177 -2.443,0.341" /></g><g
           transform="translate(408.2881,242.9443)"
           id="g56"><path
             id="path58"
             style="fill:#462e80;fill-opacity:1;fill-rule:nonzero;stroke:none"
             d="m 0,0 c -0.059,0.621 -0.062,1.833 -0.303,2.996 -1.786,8.645 -11.934,12.351 -18.269,6.696 -6.043,-5.392 -5.745,-15.91 0.665,-20.811 2.708,-2.071 5.761,-2.826 9.172,-1.858 C -3.332,-11.441 -0.028,-6.812 0,0 m -11.646,-28.059 c -15.528,-0.506 -27.979,13.372 -28.001,27.527 -0.021,12.911 10.641,27.926 28.371,27.795 C 5.457,27.14 16.644,13.491 16.698,-0.384 16.758,-15.913 3.224,-28.753 -11.646,-28.059" /></g><g
           transform="translate(741.9609,242.8955)"
           id="g60"><path
             id="path62"
             style="fill:#462e80;fill-opacity:1;fill-rule:nonzero;stroke:none"
             d="m 0,0 c -0.058,0.626 -0.028,1.849 -0.302,2.999 -1.015,4.273 -3.465,7.531 -7.688,8.876 -3.97,1.263 -7.778,0.596 -10.923,-2.454 -5.551,-5.381 -5.311,-15.161 0.582,-20.132 2.932,-2.473 6.277,-3.291 10.044,-2.081 C -3.164,-11.146 -0.04,-6.59 0,0 m -11.472,-28.011 c -15.773,-0.576 -28.081,13.446 -28.175,27.353 -0.09,13.093 10.639,27.999 28.196,27.971 C 5.28,27.287 16.797,13.642 16.694,-0.675 16.585,-15.958 3.208,-28.622 -11.472,-28.011" /></g><g
           transform="translate(580.3721,294.3662)"
           id="g64"><path
             id="path66"
             style="fill:#462e80;fill-opacity:1;fill-rule:nonzero;stroke:none"
             d="m 0,0 c 5.593,0.062 10.66,0.291 15.331,-0.139 0.503,-0.49 0.66,-0.59 0.739,-0.735 0.079,-0.143 0.109,-0.329 0.109,-0.496 0.054,-24.854 0.105,-49.708 0.147,-74.562 0.002,-0.682 -0.048,-1.37 -0.145,-2.045 -0.044,-0.311 -0.26,-0.599 -0.399,-0.897 -3.651,-0.775 -9.916,-0.883 -15.282,-0.249 -1.238,1.641 -0.676,3.597 -0.681,5.412 -0.048,17.657 -0.029,35.315 -0.029,52.972 0,5.314 -0.011,10.629 0.009,15.943 C -0.196,-3.448 -0.091,-2.102 0,0" /></g><g
           transform="translate(808.5479,211.1777)"
           id="g68"><path
             id="path70"
             style="fill:#22bdc2;fill-opacity:1;fill-rule:nonzero;stroke:none"
             d="m 0,0 c 5.334,0.064 9.101,-3.365 9.124,-8.307 0.022,-4.926 -3.771,-8.473 -9.037,-8.448 -5.112,0.025 -8.635,3.276 -8.779,8.106 C -8.848,-3.497 -5.397,-0.064 0,0" /></g><g
           transform="translate(788.332,211.1797)"
           id="g72"><path
             id="path74"
             style="fill:#22bdc2;fill-opacity:1;fill-rule:nonzero;stroke:none"
             d="m 0,0 c 3.538,0.019 6.43,-1.24 8.057,-4.5 1.386,-2.778 1.322,-5.646 -0.361,-8.33 -2.163,-3.448 -6.758,-4.859 -10.918,-3.431 -4.049,1.39 -6.106,4.843 -5.536,9.291 C -8.219,-2.766 -4.742,0.003 0,0" /></g><g
           transform="translate(386.6255,291.248)"
           id="g76"><path
             id="path78"
             style="fill:#22bdc2;fill-opacity:1;fill-rule:nonzero;stroke:none"
             d="m 0,0 c 5.403,0.157 8.554,-3.781 8.509,-8.235 -0.047,-4.67 -3.938,-8.119 -8.887,-8.013 -5.046,0.106 -8.563,3.59 -8.471,8.387 C -8.754,-3.022 -5.28,0.063 0,0" /></g><g
           transform="translate(406.918,291.2461)"
           id="g80"><path
             id="path82"
             style="fill:#22bdc2;fill-opacity:1;fill-rule:nonzero;stroke:none"
             d="m 0,0 c 5.872,0.243 8.69,-3.627 8.934,-7.847 0.262,-4.538 -3.653,-8.274 -8.544,-8.401 -5.027,-0.131 -8.712,3.217 -8.813,8.007 C -8.528,-3.283 -5.238,-0.064 0,0" /></g><g
           transform="translate(728.8271,283.0664)"
           id="g84"><path
             id="path86"
             style="fill:#22bdc2;fill-opacity:1;fill-rule:nonzero;stroke:none"
             d="m 0,0 c -0.088,-4.674 -3.894,-8.142 -8.853,-8.067 -5.043,0.076 -8.581,3.535 -8.52,8.334 0.061,4.85 3.515,7.874 8.79,7.939 C -3.22,8.272 -0.077,4.529 0,0" /></g><g
           transform="translate(749.5488,283.4727)"
           id="g88"><path
             id="path90"
             style="fill:#22bdc2;fill-opacity:1;fill-rule:nonzero;stroke:none"
             d="m 0,0 c 0.171,-4.543 -3.604,-8.407 -8.496,-8.447 -5.15,-0.042 -8.774,3 -8.885,7.908 -0.108,4.776 2.959,8.003 7.837,8.307 C -2.797,8.188 -0.399,3.907 0,0" /></g><g
           transform="translate(947.0889,862.2397)"
           id="g92"><path
             id="path94"
             style="fill:#1ebcc1;fill-opacity:1;fill-rule:nonzero;stroke:none"
             d="m 0,0 c 1.424,2.375 2.138,4.987 2.138,7.842 0,1.422 -0.238,3.005 -0.714,4.75 -1.268,4.589 -3.722,7.918 -7.362,9.975 -2.375,1.427 -4.91,2.138 -7.6,2.138 -1.586,0 -3.248,-0.237 -4.99,-0.711 -4.594,-1.27 -7.998,-3.726 -10.215,-7.368 -1.424,-2.375 -2.135,-4.987 -2.135,-7.836 0,-1.428 0.236,-3.011 0.711,-4.751 1.266,-4.594 3.8,-7.998 7.602,-10.212 2.376,-1.427 4.988,-2.138 7.839,-2.138 1.425,0 3.006,0.237 4.75,0.711 4.59,1.266 7.915,3.803 9.976,7.6 m 26.604,19.244 c 1.265,-4.438 1.901,-8.715 1.901,-12.829 0,-6.97 -1.823,-13.541 -5.464,-19.713 -5.545,-9.663 -14.335,-16.077 -26.367,-19.244 l -78.862,-21.141 -6.889,24.943 40.858,10.928 c -3.008,4.271 -5.304,9.34 -6.888,15.2 -1.266,4.432 -1.902,8.709 -1.902,12.829 0,6.964 1.823,13.54 5.464,19.713 5.545,9.657 14.333,16.072 26.367,19.244 4.431,1.261 8.707,1.896 12.827,1.896 6.965,0 13.538,-1.82 19.716,-5.462 9.657,-5.547 16.07,-14.332 19.239,-26.364" /></g><g
           transform="translate(265.8364,543.3633)"
           id="g96"><path
             id="path98"
             style="fill:#462e81;fill-opacity:1;fill-rule:nonzero;stroke:none"
             d="m 0,0 c 0.871,0.452 1.348,0.651 1.775,0.929 22.005,14.272 45.729,24.903 70.496,33.347 28.619,9.759 57.966,16.649 87.603,22.417 1.178,0.229 2.36,0.443 3.525,0.726 1.254,0.305 2.659,0.181 4.259,1.197 -1.086,0.91 -1.761,1.605 -2.552,2.119 -10.289,6.689 -19.343,14.809 -27.437,23.983 -5.447,6.174 -10.748,12.485 -15.899,18.908 -10.632,13.256 -21.277,26.494 -33.112,38.717 -10.281,10.619 -21.026,20.717 -33.23,29.144 -8.94,6.174 -18.425,11.298 -28.843,14.51 -10.284,3.17 -20.733,4.473 -31.489,2.74 -10.131,-1.632 -19.516,-5.213 -28.369,-10.273 -31.92,-18.245 -49.337,-54.678 -39.158,-92.824 3.627,-13.595 10.045,-25.83 18.158,-37.253 4.887,-6.881 10.612,-13.033 16.365,-19.158 C -26.895,17.507 -14.18,7.975 0,0 m 360.847,26.429 c 5.81,2.548 11.634,5.032 17.402,7.642 15.041,6.811 29.384,14.838 42.655,24.707 12.125,9.017 23.838,18.556 34.952,28.781 19.548,17.984 35.144,38.904 45.793,63.346 8.693,19.955 13.089,40.752 11.869,62.589 -0.577,10.336 -2.502,20.423 -6.323,30.071 -7.251,18.305 -19.95,31.364 -38.133,38.965 -7.248,3.03 -14.803,4.092 -22.667,3.053 -7.487,-0.988 -14.193,-3.831 -20.392,-8 -6.473,-4.354 -11.883,-9.833 -16.565,-16.039 -9.238,-12.244 -15.195,-25.984 -18.547,-40.903 -0.562,-2.504 -0.951,-5.078 -1.814,-7.478 -2.367,-6.577 -8.349,-9.8 -15.137,-8.408 -5.703,1.169 -9.438,4.63 -11.526,9.949 -0.563,1.43 -0.859,2.962 -1.309,4.437 -5.281,17.283 -14.336,32.203 -27.893,44.256 -7.266,6.459 -15.472,11.354 -24.811,14.209 -20.421,6.242 -38.627,2.267 -54.453,-12.08 -2.91,-2.638 -5.609,-5.577 -8.038,-8.666 -16.007,-20.347 -24.94,-52.505 -16.055,-81.741 3.871,-12.735 9.442,-24.627 16.362,-35.932 8.449,-13.802 18.395,-26.479 29.226,-38.468 24.963,-27.632 53.317,-51.407 83.432,-73.17 0.41,-0.296 0.882,-0.505 1.972,-1.12 m 0.463,-34.394 c -1.949,-0.862 -3.834,-1.664 -5.692,-2.524 -31.644,-14.655 -64.149,-26.975 -97.81,-36.176 -21.03,-5.747 -42.313,-10.221 -63.932,-13.13 -21.13,-2.844 -42.337,-4.339 -63.649,-3.784 -37.852,0.987 -74.701,7.299 -110.005,21.418 -4.933,1.973 -9.765,4.196 -14.645,6.302 -0.931,0.401 -1.868,0.791 -2.89,1.223 -0.803,-0.502 -1.572,-0.874 -2.215,-1.399 -25.765,-21.036 -43.722,-47.246 -51.854,-79.673 -8.971,-35.771 -4.131,-69.802 14.29,-101.763 7.375,-12.797 17.073,-23.646 29.371,-31.961 17.039,-11.517 35.793,-15.994 56.249,-13.426 8.584,1.077 16.791,3.397 24.719,6.762 2.727,1.158 5.454,1.977 8.454,1.822 7.901,-0.411 14.854,-7.727 14.892,-15.642 0.019,-3.92 -1.555,-6.991 -4.708,-9.216 -1.249,-0.88 -2.654,-1.575 -4.058,-2.191 -16.392,-7.192 -33.512,-11.159 -51.445,-10.901 -28.497,0.41 -53.244,10.474 -74.195,29.742 -17.416,16.016 -29.463,35.596 -37.378,57.761 -7.476,20.935 -10.675,42.577 -9.354,64.76 1.641,27.541 9.759,53.175 23.781,76.928 8.868,15.022 19.694,28.49 32.395,40.451 0.997,0.938 1.953,1.923 2.913,2.9 0.107,0.11 0.113,0.32 0.248,0.742 -1.019,1.458 -2.779,2.224 -4.267,3.27 -14.248,10.01 -27.277,21.398 -38.6,34.638 C -82.641,36 -93.519,55.092 -99.633,76.77 c -2.809,9.96 -4.584,20.12 -4.523,30.446 0.214,36.745 14.992,66.388 44.238,88.65 14.723,11.207 31.335,18.326 49.6,21.381 20.023,3.349 39.275,0.514 57.832,-7.591 13.959,-6.096 26.491,-14.405 38.085,-24.208 12.491,-10.561 23.672,-22.42 34.248,-34.85 10.676,-12.548 21.146,-25.271 31.75,-37.88 5.861,-6.968 12.107,-13.564 18.955,-19.593 13.831,-12.176 29.838,-19.319 48.194,-21.097 6.828,-0.662 13.673,-1.149 20.504,-1.791 2.035,-0.192 4.117,-0.412 6.054,-1.016 6.159,-1.92 9.927,-7.028 10.143,-13.413 0.217,-6.438 -3.564,-12.305 -9.664,-14.334 -3.067,-1.021 -6.328,-1.537 -9.54,-2.028 C 219.8,36.938 203.308,34.738 186.902,32.009 147.946,25.528 109.524,16.843 72.335,3.276 60.238,-1.137 48.43,-6.209 37.038,-12.221 c -1.315,-0.694 -2.973,-1.003 -3.737,-2.799 0.941,-0.41 1.833,-0.876 2.775,-1.198 16.748,-5.739 33.899,-9.821 51.378,-12.616 26.72,-4.272 53.614,-5.326 80.579,-3.979 43.809,2.187 86.433,10.308 127.313,26.624 9.724,3.88 19.206,8.289 28.37,13.364 1.492,0.826 2.954,1.706 4.445,2.57 -0.077,2.196 -1.869,2.923 -3.06,4.001 -13.488,12.219 -26.65,24.775 -39.393,37.768 -16.715,17.04 -32.892,34.569 -47.458,53.51 -4.391,5.709 -8.575,11.588 -12.615,17.55 -12.128,17.901 -19.769,37.597 -22.753,59.004 -3.188,22.87 -1.036,45.19 7.88,66.648 5.754,13.847 14.079,25.897 25.642,35.56 13.731,11.476 29.64,17.622 47.409,19.14 10.501,0.897 20.932,0.565 31.171,-2.115 23.126,-6.056 41.092,-19.199 53.83,-39.454 0.812,-1.291 1.684,-2.545 2.549,-3.801 0.079,-0.115 0.311,-0.124 0.652,-0.247 0.822,1.443 1.67,2.91 2.499,4.387 8.863,15.79 20.341,29.281 35.185,39.761 10.499,7.412 21.966,12.639 34.702,14.878 14.931,2.624 29.446,1.093 43.363,-4.839 25.763,-10.982 43.595,-29.898 54.292,-55.582 5.389,-12.936 7.981,-26.548 8.597,-40.56 1.178,-26.743 -4.567,-52.125 -14.814,-76.646 -12.903,-30.88 -32.711,-56.572 -58.411,-77.865 -16.44,-13.621 -34.226,-25.257 -52.71,-35.853 -8.777,-5.032 -17.721,-9.772 -26.589,-14.648 -1.49,-0.82 -2.972,-1.653 -4.856,-2.701 1.146,-0.919 1.96,-1.744 2.923,-2.315 12.699,-7.542 25.877,-14.141 39.451,-19.961 29.75,-12.755 60.574,-21.877 92.407,-27.734 27.457,-5.053 55.106,-7.276 82.983,-5.904 23.435,1.152 46.348,5.118 68.113,14.336 12.912,5.469 24.692,12.702 34.739,22.59 12.284,12.092 20.205,26.749 25.135,43.106 11.982,39.754 5.649,85.095 -22.536,116.602 -22.795,25.481 -57.788,39.527 -91.874,36.878 -8.568,-0.666 -20.519,0.162 -21.391,8.711 -0.765,7.506 8.575,11.536 16.057,12.514 53.451,6.986 109.817,-21.199 136.298,-68.153 26.481,-46.954 21.437,-109.771 -12.197,-151.9 -73.585,-92.169 -224.198,-66.268 -318.816,-28.539 -16.437,6.555 -32.302,14.31 -47.348,23.658 -5.237,3.254 -10.3,6.79 -15.907,10.505" /></g><g
           transform="translate(664.2959,954.5635)"
           id="g100"><path
             id="path102"
             style="fill:#1ebcc1;fill-opacity:1;fill-rule:nonzero;stroke:none"
             d="m 0,0 c 1.425,2.375 2.139,4.988 2.139,7.842 0,1.422 -0.238,3.006 -0.714,4.75 -1.269,4.59 -3.722,7.918 -7.362,9.975 -2.376,1.428 -4.911,2.139 -7.601,2.139 -1.586,0 -3.247,-0.237 -4.989,-0.711 -4.595,-1.271 -7.998,-3.727 -10.215,-7.368 -1.425,-2.376 -2.136,-4.988 -2.136,-7.837 0,-1.427 0.237,-3.011 0.711,-4.75 1.266,-4.595 3.8,-7.998 7.603,-10.212 2.375,-1.428 4.987,-2.139 7.838,-2.139 1.425,0 3.006,0.237 4.751,0.711 C -5.386,-6.334 -2.06,-3.797 0,0 m 26.604,19.244 c 1.266,-4.438 1.902,-8.714 1.902,-12.829 0,-6.97 -1.823,-13.54 -5.464,-19.713 C 17.497,-22.96 8.707,-29.375 -3.325,-32.542 l -78.863,-21.14 -6.888,24.942 40.858,10.928 c -3.009,4.272 -5.305,9.34 -6.888,15.2 -1.267,4.433 -1.902,8.709 -1.902,12.829 0,6.965 1.823,13.541 5.464,19.713 5.545,9.657 14.332,16.072 26.367,19.244 4.431,1.261 8.707,1.896 12.827,1.896 6.964,0 13.537,-1.82 19.715,-5.461 9.657,-5.547 16.07,-14.332 19.239,-26.365" /></g><g
           transform="translate(372.1943,861.4365)"
           id="g104"><path
             id="path106"
             style="fill:#1ebcc1;fill-opacity:1;fill-rule:nonzero;stroke:none"
             d="m 0,0 c 2.375,2.693 3.563,6.178 3.563,10.454 0,4.274 -1.188,7.678 -3.563,10.214 -2.534,2.691 -5.701,4.038 -9.501,4.038 -3.958,0 -7.207,-1.347 -9.74,-4.038 -2.532,-2.536 -3.8,-5.94 -3.8,-10.214 0,-4.276 1.268,-7.761 3.8,-10.454 2.533,-2.849 5.782,-4.274 9.74,-4.274 3.8,0 6.967,1.425 9.501,4.274 m 20.903,40.147 c 7.918,-7.761 11.879,-17.66 11.879,-29.693 0,-12.037 -3.961,-21.937 -11.879,-29.695 -1.11,-1.11 -2.219,-2.138 -3.323,-3.087 -7.446,-5.701 -16.473,-8.552 -27.081,-8.552 h -3.565 c -10.767,0.63 -19.794,4.513 -27.081,11.639 -7.915,7.758 -11.876,17.658 -11.876,29.695 0,12.033 3.961,21.932 11.876,29.693 7.922,7.756 18.137,11.639 30.646,11.639 12.35,0 22.484,-3.883 30.404,-11.639" /></g></g></g></g></svg>