<?xml version="1.0" encoding="utf-8"?>
<!-- Generator: Adobe Illustrator 25.1.0, SVG Export Plug-In . SVG Version: 6.00 Build 0)  -->
<svg version="1.1"
	 id="svg2" xmlns:cc="http://creativecommons.org/ns#" xmlns:dc="http://purl.org/dc/elements/1.1/" xmlns:rdf="http://www.w3.org/1999/02/22-rdf-syntax-ns#" xmlns:svg="http://www.w3.org/2000/svg"
	 xmlns="http://www.w3.org/2000/svg" xmlns:xlink="http://www.w3.org/1999/xlink" x="0px" y="0px" viewBox="0 0 1600 1600"
	 style="enable-background:new 0 0 1600 1600;" xml:space="preserve">
<style type="text/css">
	.st0{clip-path:url(#SVGID_2_);}
	.st1{fill:#22BDC2;}
	.st2{fill:#1EBCC1;}
	.st3{fill:#462E81;}
</style>
<g id="g10" transform="matrix(1.3333333,0,0,-1.3333333,0,1600)">
	<g id="g12">
		<g>
			<defs>
				<rect id="SVGID_1_" x="-200" y="-209" width="1600" height="1600"/>
			</defs>
			<clipPath id="SVGID_2_">
				<use xlink:href="#SVGID_1_"  style="overflow:visible;"/>
			</clipPath>
			<g id="g14" class="st0">
				<g id="g36" transform="translate(808.7637,597.3975)">
					<path id="path38" class="st1" d="M0-9c-0.3,30.1,24.8,54,53.8,54.2c27,0.1,54.3-21.2,54.2-54.3c-0.1-31.7-25.9-54-54.1-53.9
						C23.3-62.9-0.3-37.9,0-9"/>
				</g>
				<g id="g92" transform="translate(947.0889,862.2397)">
					<path id="path94" class="st2" d="M0-9c1.4,2.4,2.1,5,2.1,7.8c0,1.4-0.2,3-0.7,4.8c-1.3,4.6-3.7,7.9-7.4,10
						c-2.4,1.4-4.9,2.1-7.6,2.1c-1.6,0-3.2-0.2-5-0.7c-4.6-1.3-8-3.7-10.2-7.4c-1.4-2.4-2.1-5-2.1-7.8c0-1.4,0.2-3,0.7-4.8
						c1.3-4.6,3.8-8,7.6-10.2c2.4-1.4,5-2.1,7.8-2.1c1.4,0,3,0.2,4.8,0.7C-5.4-15.3-2.1-12.8,0-9 M26.6,10.2
						c1.3-4.4,1.9-8.7,1.9-12.8c0-7-1.8-13.5-5.5-19.7C17.5-32,8.7-38.4-3.3-41.5l-78.9-21.1l-6.9,24.9l40.9,10.9
						c-3,4.3-5.3,9.3-6.9,15.2C-56.4-7.2-57-2.9-57,1.2c0,7,1.8,13.5,5.5,19.7C-46,30.6-37.2,37-25.2,40.2c4.4,1.3,8.7,1.9,12.8,1.9
						c7,0,13.5-1.8,19.7-5.5C17,31.1,23.4,22.3,26.6,10.2"/>
				</g>
				<g id="g96" transform="translate(265.8364,543.3633)">
					<path id="path98" class="st3" d="M0-9c0.9,0.5,1.3,0.7,1.8,0.9c22,14.3,45.7,24.9,70.5,33.3c28.6,9.8,58,16.6,87.6,22.4
						c1.2,0.2,2.4,0.4,3.5,0.7c1.3,0.3,2.7,0.2,4.3,1.2c-1.1,0.9-1.8,1.6-2.6,2.1c-10.3,6.7-19.3,14.8-27.4,24
						c-5.4,6.2-10.7,12.5-15.9,18.9c-10.6,13.3-21.3,26.5-33.1,38.7c-10.3,10.6-21,20.7-33.2,29.1c-8.9,6.2-18.4,11.3-28.8,14.5
						c-10.3,3.2-20.7,4.5-31.5,2.7c-10.1-1.6-19.5-5.2-28.4-10.3c-31.9-18.2-49.3-54.7-39.2-92.8c3.6-13.6,10-25.8,18.2-37.3
						c4.9-6.9,10.6-13,16.4-19.2C-26.9,8.5-14.2-1,0-9 M360.8,17.4c5.8,2.5,11.6,5,17.4,7.6c15,6.8,29.4,14.8,42.7,24.7
						c12.1,9,23.8,18.6,35,28.8c19.5,18,35.1,38.9,45.8,63.3c8.7,20,13.1,40.8,11.9,62.6c-0.6,10.3-2.5,20.4-6.3,30.1
						c-7.3,18.3-20,31.4-38.1,39c-7.2,3-14.8,4.1-22.7,3.1c-7.5-1-14.2-3.8-20.4-8c-6.5-4.4-11.9-9.8-16.6-16
						c-9.2-12.2-15.2-26-18.5-40.9c-0.6-2.5-1-5.1-1.8-7.5c-2.4-6.6-8.3-9.8-15.1-8.4c-5.7,1.2-9.4,4.6-11.5,9.9
						c-0.6,1.4-0.9,3-1.3,4.4c-5.3,17.3-14.3,32.2-27.9,44.3c-7.3,6.5-15.5,11.4-24.8,14.2c-20.4,6.2-38.6,2.3-54.5-12.1
						c-2.9-2.6-5.6-5.6-8-8.7c-16-20.3-24.9-52.5-16.1-81.7c3.9-12.7,9.4-24.6,16.4-35.9c8.4-13.8,18.4-26.5,29.2-38.5
						c25-27.6,53.3-51.4,83.4-73.2C359.3,18.3,359.8,18,360.8,17.4 M361.3-17c-1.9-0.9-3.8-1.7-5.7-2.5
						c-31.6-14.7-64.1-27-97.8-36.2c-21-5.7-42.3-10.2-63.9-13.1c-21.1-2.8-42.3-4.3-63.6-3.8c-37.9,1-74.7,7.3-110,21.4
						c-4.9,2-9.8,4.2-14.6,6.3c-0.9,0.4-1.9,0.8-2.9,1.2c-0.8-0.5-1.6-0.9-2.2-1.4c-25.8-21-43.7-47.2-51.9-79.7
						c-9-35.8-4.1-69.8,14.3-101.8c7.4-12.8,17.1-23.6,29.4-32c17-11.5,35.8-16,56.2-13.4c8.6,1.1,16.8,3.4,24.7,6.8
						c2.7,1.2,5.5,2,8.5,1.8c7.9-0.4,14.9-7.7,14.9-15.6c0-3.9-1.6-7-4.7-9.2c-1.2-0.9-2.7-1.6-4.1-2.2
						c-16.4-7.2-33.5-11.2-51.4-10.9c-28.5,0.4-53.2,10.5-74.2,29.7c-17.4,16-29.5,35.6-37.4,57.8c-7.5,20.9-10.7,42.6-9.4,64.8
						c1.6,27.5,9.8,53.2,23.8,76.9c8.9,15,19.7,28.5,32.4,40.5c1,0.9,2,1.9,2.9,2.9c0.1,0.1,0.1,0.3,0.2,0.7c-1,1.5-2.8,2.2-4.3,3.3
						C-43.7-14.7-56.8-3.3-68.1,10c-14.6,17-25.4,36.1-31.6,57.8c-2.8,10-4.6,20.1-4.5,30.4c0.2,36.7,15,66.4,44.2,88.7
						c14.7,11.2,31.3,18.3,49.6,21.4c20,3.3,39.3,0.5,57.8-7.6c14-6.1,26.5-14.4,38.1-24.2c12.5-10.6,23.7-22.4,34.2-34.9
						c10.7-12.5,21.1-25.3,31.8-37.9c5.9-7,12.1-13.6,19-19.6c13.8-12.2,29.8-19.3,48.2-21.1c6.8-0.7,13.7-1.1,20.5-1.8
						c2-0.2,4.1-0.4,6.1-1c6.2-1.9,9.9-7,10.1-13.4c0.2-6.4-3.6-12.3-9.7-14.3c-3.1-1-6.3-1.5-9.5-2c-16.4-2.5-32.9-4.7-49.3-7.4
						c-39-6.5-77.4-15.2-114.6-28.7C60.2-10.1,48.4-15.2,37-21.2c-1.3-0.7-3-1-3.7-2.8c0.9-0.4,1.8-0.9,2.8-1.2
						C52.8-31,70-35,87.5-37.8c26.7-4.3,53.6-5.3,80.6-4c43.8,2.2,86.4,10.3,127.3,26.6c9.7,3.9,19.2,8.3,28.4,13.4
						c1.5,0.8,3,1.7,4.4,2.6c-0.1,2.2-1.9,2.9-3.1,4c-13.5,12.2-26.6,24.8-39.4,37.8c-16.7,17-32.9,34.6-47.5,53.5
						c-4.4,5.7-8.6,11.6-12.6,17.6c-12.1,17.9-19.8,37.6-22.8,59c-3.2,22.9-1,45.2,7.9,66.6c5.8,13.8,14.1,25.9,25.6,35.6
						c13.7,11.5,29.6,17.6,47.4,19.1c10.5,0.9,20.9,0.6,31.2-2.1c23.1-6.1,41.1-19.2,53.8-39.5c0.8-1.3,1.7-2.5,2.5-3.8
						c0.1-0.1,0.3-0.1,0.7-0.2c0.8,1.4,1.7,2.9,2.5,4.4c8.9,15.8,20.3,29.3,35.2,39.8c10.5,7.4,22,12.6,34.7,14.9
						c14.9,2.6,29.4,1.1,43.4-4.8c25.8-11,43.6-29.9,54.3-55.6c5.4-12.9,8-26.5,8.6-40.6c1.2-26.7-4.6-52.1-14.8-76.6
						c-12.9-30.9-32.7-56.6-58.4-77.9C461,38.2,443.2,26.6,424.7,16c-8.8-5-17.7-9.8-26.6-14.6c-1.5-0.8-3-1.7-4.9-2.7
						c1.1-0.9,2-1.7,2.9-2.3c12.7-7.5,25.9-14.1,39.5-20c29.8-12.8,60.6-21.9,92.4-27.7c27.5-5.1,55.1-7.3,83-5.9
						c23.4,1.2,46.3,5.1,68.1,14.3c12.9,5.5,24.7,12.7,34.7,22.6C726.2-8.3,734.1,6.4,739,22.8c12,39.8,5.6,85.1-22.5,116.6
						c-22.8,25.5-57.8,39.5-91.9,36.9c-8.6-0.7-20.5,0.2-21.4,8.7c-0.8,7.5,8.6,11.5,16.1,12.5c53.5,7,109.8-21.2,136.3-68.2
						S777,19.5,743.4-22.6c-73.6-92.2-224.2-66.3-318.8-28.5c-16.4,6.6-32.3,14.3-47.3,23.7C372-24.2,366.9-20.7,361.3-17"/>
				</g>
				<g id="g100" transform="translate(664.2959,954.5635)">
					<path id="path102" class="st2" d="M0-9c1.4,2.4,2.1,5,2.1,7.8c0,1.4-0.2,3-0.7,4.8c-1.3,4.6-3.7,7.9-7.4,10
						c-2.4,1.4-4.9,2.1-7.6,2.1c-1.6,0-3.2-0.2-5-0.7c-4.6-1.3-8-3.7-10.2-7.4c-1.4-2.4-2.1-5-2.1-7.8c0-1.4,0.2-3,0.7-4.8
						c1.3-4.6,3.8-8,7.6-10.2c2.4-1.4,5-2.1,7.8-2.1c1.4,0,3,0.2,4.8,0.7C-5.4-15.3-2.1-12.8,0-9 M26.6,10.2
						c1.3-4.4,1.9-8.7,1.9-12.8c0-7-1.8-13.5-5.5-19.7C17.5-32,8.7-38.4-3.3-41.5l-78.9-21.1l-6.9,24.9l40.9,10.9
						c-3,4.3-5.3,9.3-6.9,15.2C-56.4-7.2-57-2.9-57,1.2c0,7,1.8,13.5,5.5,19.7C-46,30.6-37.2,37-25.2,40.2c4.4,1.3,8.7,1.9,12.8,1.9
						c7,0,13.5-1.8,19.7-5.5C17,31.1,23.4,22.3,26.6,10.2"/>
				</g>
				<g id="g104" transform="translate(372.1943,861.4365)">
					<path id="path106" class="st2" d="M0-9C2.4-6.3,3.6-2.8,3.6,1.5c0,4.3-1.2,7.7-3.6,10.2c-2.5,2.7-5.7,4-9.5,4
						c-4,0-7.2-1.3-9.7-4C-21.8,9.1-23,5.7-23,1.5c0-4.3,1.3-7.8,3.8-10.5c2.5-2.8,5.8-4.3,9.7-4.3C-5.7-13.3-2.5-11.8,0-9
						 M20.9,31.1c7.9-7.8,11.9-17.7,11.9-29.7c0-12-4-21.9-11.9-29.7c-1.1-1.1-2.2-2.1-3.3-3.1C10.1-37,1.1-39.9-9.5-39.9h-3.6
						c-10.8,0.6-19.8,4.5-27.1,11.6C-48.1-20.5-52-10.6-52,1.5c0,12,4,21.9,11.9,29.7c7.9,7.8,18.1,11.6,30.6,11.6
						C2.8,42.8,13,38.9,20.9,31.1"/>
				</g>
			</g>
		</g>
	</g>
</g>
</svg>
