<?xml version="1.0" encoding="utf-8"?>
<!-- Generator: Adobe Illustrator 25.1.0, SVG Export Plug-In . SVG Version: 6.00 Build 0)  -->
<svg version="1.1" id="ffb9f185-a300-41b8-a504-b1f9cab865bc"
	 xmlns="http://www.w3.org/2000/svg" xmlns:xlink="http://www.w3.org/1999/xlink" x="0px" y="0px" viewBox="0 0 806 712.7"
	 style="enable-background:new 0 0 806 712.7;" xml:space="preserve">
<style type="text/css">
	.st0{fill:#3F3D56;}
	.st1{fill:#FFFFFF;}
	.st2{fill:#E5E5E5;}
	.st3{fill:#1EBCC1;}
</style>
<path class="st0" d="M580.5,169.2h-3.9V62c0-34.3-27.8-62-62-62H287.5c-34.3,0-62,27.8-62,62v588c0,34.3,27.8,62,62,62h227.1
	c34.3,0,62-27.8,62-62l0,0l0,0V245.5h3.9V169.2z"/>
<path class="st1" d="M563.4,62.5v587.2c0,25.6-20.7,46.3-46.2,46.3l0,0H288.9c-25.6,0-46.3-20.7-46.3-46.3V62.5
	c0-25.6,20.7-46.3,46.3-46.3h0h27.7c-4.6,11.3,0.8,24.1,12.1,28.7c2.6,1.1,5.5,1.6,8.3,1.6h130.1c12.2,0,22-9.9,22-22
	c0-2.9-0.6-5.7-1.6-8.3h29.6C542.7,16.1,563.4,36.8,563.4,62.5L563.4,62.5L563.4,62.5z"/>
<path class="st2" d="M563.4,149.3v-20h-30.3V19c-5.1-1.9-10.6-2.9-16.1-2.9h-3.9v113.2h-105V46.5h-20v82.9h-88V16.1h-11.2
	c-2.9,0-5.9,0.3-8.8,0.8v112.4h-37.6v20h37.6v46.3l-37.6,21.7v23.1l37.6-21.7v137.6h-37.6v20h37.6v199h-37.6v20h37.6v99.8
	c2.9,0.6,5.8,0.8,8.8,0.8h11.2V595.3h88V696h20V595.3h105V696h3.9c5.5,0,10.9-1,16.1-2.9v-97.8h30.3v-20h-30.3v-87h30v-20h-30v-92
	h30.3v-20h-30.3v-122h30.3v-20h-30.3v-65L563.4,149.3z M360.3,149.3L360.3,149.3l-60.1,34.7l0,0v-34.7H360.3z M300.2,207.2
	L300.2,207.2l88-50.8v200h-88V207.2z M300.2,575.3v-199h88v199H300.2z M513.2,575.3h-105v-87h105V575.3z M513.2,468.3h-105v-92h105
	V468.3z M513.2,356.3h-105v-122h105V356.3z M513.2,214.3h-105v-65h105V214.3z"/>
<path class="st3" d="M580.2,214.7c0,63.5-115,205-115,205s-115-141.5-115-205s51.5-115,115-115S580.2,151.2,580.2,214.7z"/>
<path class="st1" d="M533.2,209.7c0,37.6-30.4,68-68,68s-68-30.4-68-68s30.4-68,68-68l0,0l0,0C502.7,141.7,533.1,172.1,533.2,209.7
	C533.2,209.7,533.2,209.7,533.2,209.7L533.2,209.7z"/>
<circle class="st3" cx="464.9" cy="211.2" r="25.3"/>
<path class="st3" d="M501.7,269.1c-22.3,14.2-50.8,14.2-73.1,0c5.8-20.2,26.8-31.9,47-26.1C488.2,246.6,498.1,256.5,501.7,269.1z"/>
<circle class="st3" cx="465.2" cy="471.7" r="31"/>
</svg>
