<svg xmlns="http://www.w3.org/2000/svg" xmlns:xlink="http://www.w3.org/1999/xlink" width="595" height="524" viewBox="0 0 595 524">
  <defs>
    <clipPath id="clip-Web_1920_1">
      <rect width="595" height="524"/>
    </clipPath>
  </defs>
  <g id="Web_1920_1" data-name="Web 1920 – 1" clip-path="url(#clip-Web_1920_1)">
    <rect width="595" height="524" fill="#fff"/>
    <g id="Untitled-1" transform="translate(-161.05 -288.26)">
      <path id="Path_2" data-name="Path 2" d="M645.21,679.74c9.67,11.49,19.43,22.9,29,34.49q32.94,39.93,65.69,80c.92,1.12,2.68,1.9,2.25,3.86h-.25v.25a2.343,2.343,0,0,1-.25.47c-3.41,3.59-7.6,6.37-10.65,10.33-3.73,3.55-7.43,7.15-11.2,10.66q-12.18,11.34-24.41,22.63c-.87.95-1.43,0-2-.4-35.7-25.91-71.11-52.2-105.22-80.22a171.12,171.12,0,0,1-44.34-54.36c-.94-1.84-2-3.64-3.08-5.38-2.24-3.48-3.51-3.7-6.38-.75a280.386,280.386,0,0,0-18.59,21.73c-24.32,30.72-48.43,61.6-72.84,92.25-13.81,17.33-29.84,32.17-50.06,42a106.789,106.789,0,0,1-37.78,10l-8.27.07c-23.8-1.3-41-13.41-53.57-32.91a146,146,0,0,1-18.49-43.21,2.72,2.72,0,0,1,1.55-1.27c10.06-3.75,20.06-7.7,30.19-11.24a109.253,109.253,0,0,0,34.8-19.37c3.4-2.29,6.77-4.61,8.94-8.23.67,0,1.2-.14,1.52-1.19-.7.44-1.34.46-1.49,1.22a14.47,14.47,0,0,0-5.56,2.52,6.52,6.52,0,0,0-3.05,1.52l-.95.2c-17.2,7.19-35,10.42-52.69,8.37a50.227,50.227,0,0,0,8.62-.26c3.35.24,6.69.32,9.92-.83a1.61,1.61,0,0,0,1.81-.46A78.331,78.331,0,0,0,339.82,754c2.2-.29,3.67-2.52,5.33-2.9,5.8-1.34,10.54-4.55,14.78-8.16,14.75-12.57,29.25-25.44,43.67-38.4q29.82-26.79,59.33-53.9c6.05-5.56,12.56-10.66,17.89-17,1.36,0,2.71-.26,4,.42,6.76,3.54,13.54,7,20.31,10.54-.05.72-.11,1.43-.16,2.14a2.84,2.84,0,0,0-.67.12c-1.12.5-2.45.78-2.68,2.29,0,.2.36.68.52.67,1.32-.1,1.54-1.53,2.45-2.16.23-.16.24-.62.36-.93.93,0,1.31-.61,1.35-1.48,1.06.44,2.13.84,3.16,1.34,15.39,7.43,30.7,15,46.17,22.29,11.31,5.31,22.82,10.2,34.24,15.27.07,1.4.48,2.53,2.14,2.63a36.75,36.75,0,0,0,12.43,11.74A9.3,9.3,0,0,0,610,704.1q5.491,5.51,11,11c.859,2.59,2.849,4,5.13,5.1-1.23-2.21-2.64-4.22-5.17-5.07a9.48,9.48,0,0,0-5.52-5.52,9.72,9.72,0,0,0-5.52-5.53,9.58,9.58,0,0,0-5.53-5.52c-3.36-4.75-7.13-9.07-12.43-11.75a2,2,0,0,1,.8-1.8c3.67.9,7.26,2.1,11.07,2.44,12.61,1.1,23.53-3,33.12-10.91,1.89-1.57,2.9-1.44,4.41.35C642.38,678.11,642.91,680.24,645.21,679.74ZM710.8,787l-.7-.69c-.07-.86-.48-1.37-1.38-1.38-.17-.25.32-1-.51-.75l.54.72a1.27,1.27,0,0,0,1.38,1.38l.7.69a.85.85,0,0,0,.09.24.249.249,0,0,1,.17.07Zm-4.8-5.5-.69-.7c-.1-.5-.07-1.11-.84-1.08a.29.29,0,0,0-.21.22c0,.76.56.75,1.08.83l.69.7.69.69c.18.25-.34,1,.51.76l-.54-.73ZM362.68,843.63l.7.7a3.14,3.14,0,0,0,1.85,2.7c4,2.54,6.23,5.75,4.44,10.68,0,.07.18.23.35.43.5-1.35,1-2.62,1.45-3.88.4-1,1.33-2.14.2-3.13-2.7-2.34-4.53-5.77-8.32-6.78l-.69-.69a1.33,1.33,0,0,0-1.39-1.38c-2.1-2.09-3.41-5.17-6.9-5.52-.45-2.56-2.25-3-4.37-2.66-9.59,1.69-18.94.13-28.15-2.32a137.617,137.617,0,0,1-23-8.65c-1.64-.76-2.55-.84-2.47,1.41.1,2.88,0,5.76,0,8.65a15.41,15.41,0,0,0,.61-5.81c-.14-2.59.38-3.74,3.25-2.28,6.86,3.49,14.21,5.74,21.54,8a66.66,66.66,0,0,0,25.44,2.77c2.58-.23,4.9-.5,7.17.85,1.65,2.66,3.67,4.85,6.91,5.53C361.31,843.16,361.84,843.55,362.68,843.63Zm87-145.74a1.29,1.29,0,0,0,1.37-1.39c3.73-2.45,7.24-5.14,9.67-9,3.54-1.57,5.76-4.76,8.67-7.1,1.26-1,2.91-2,3.07-3.95a1.2,1.2,0,0,0,1.39-1.38c1.5.12,2.24-.52,2.07-2.07a1.2,1.2,0,0,0,1.38-1.38,6.55,6.55,0,0,0,5.53-4.84c.52,0,1.09,0,1.1-.78,0-.08-.14-.21-.22-.22-.75,0-.78.51-.86,1a11.31,11.31,0,0,0-5.52,4.83,1.33,1.33,0,0,0-1.38,1.39,2,2,0,0,0-2.07,2.07,1.29,1.29,0,0,0-1.38,1.38c-3.74,1.7-6,5.23-9.17,7.58-1.13.83-2.53,1.72-2.57,3.47-3.86,2.31-7.56,4.79-9.68,9a1.2,1.2,0,0,0-1.38,1.39,1.31,1.31,0,0,0-1.39.68,5.363,5.363,0,0,0-1.54.67c-4.51,4.05-9,8.09-13.44,12.26-.87.83-2.32,1.6-1.8,3.74,4.55-4.18,8.95-8.13,13.21-12.22,1.36-1.3,3.26-2.29,3.55-4.48a1.34,1.34,0,0,0,1.41-.65ZM654.16,721.4l-.69-.7c-1.15-2.24-2.07-4.69-4.84-5.52a2.9,2.9,0,0,0-2.77-2.76c0-1.46-.28-2.66-2.07-2.76a6.75,6.75,0,0,0-3.9-4.89c.76,2.07,1.36,4.27,3.93,4.86a3.56,3.56,0,0,0,2.07,2.77,3,3,0,0,0,2.76,2.76c1.14,2.25,2.1,4.67,4.84,5.52l.69.69c0,1,0,2,1.39,2.07,2.31,4.52,6,8,9.4,11.6,2.3,2.41,3.52,6,7.17,7.05l.7.7c.19,2.72,2.06,4.2,4.14,5.52a37.451,37.451,0,0,0,9,10.37c4.34,7,10.3,12.57,16.1,18.27a77.007,77.007,0,0,0-8.91-11.21c-2.34-2.39-3.57-6-7.21-7a21.53,21.53,0,0,0-9-10.35c-.39-2.58-2.16-4.14-4.14-5.53l-.7-.69c-2.84-5.29-7.41-9.17-11.31-13.57-1.59-1.8-2.32-4.65-5.27-5.08C655.6,722.44,655.52,721.49,654.16,721.4Zm-232.07,2.07c-1.91,0-3.14.8-3.45,2.77-2.64.8-3.8,3-5.13,5.09,2-1.42,4.43-2.44,5.1-5.13a3.06,3.06,0,0,0,3.45-2.76,3,3,0,0,0,2.76-2.76c2.07-.4,3.08-1.87,4.39-4.32-2.44,1.3-3.93,2.3-4.35,4.35a2.89,2.89,0,0,0-2.77,2.76Zm77.37-71.83c-2.06.12-3.11,1.91-4.37,3.05-3.41,3.08-7.28,5.8-9.47,10a1.067,1.067,0,0,0-.27.09c-.05,0,0,.14-.06.21l.34-.29c4-2.07,6.62-5.73,9.89-8.65,1.46-1.3,3.6-2.14,3.9-4.5.52-.07,1.11-.06,1.08-.82a.31.31,0,0,0-.22-.22c-.77.02-.76.6-.82,1.13Zm139.26,51.63-.56-.26c-.07.19-.25.42-.19.54s.34.19.52.27C638.57,703.64,638.64,703.45,638.72,703.27Z" transform="translate(-60.81 -57.51)" fill="#1d2f36"/>
      <path id="Path_3" data-name="Path 3" d="M341.28,759.3a109.252,109.252,0,0,1-34.8,19.37c-10.13,3.54-20.13,7.49-30.19,11.24a2.72,2.72,0,0,0-1.55,1.27c-2,.1-2.27-1.22-2.66-2.83-3.54-14.76-1.65-29.23,2.16-43.59,6.3-23.73,18.41-44.5,32.93-64,5.74-7.71,11.93-15.09,17.38-23,8.19-11.88,14.43-24.9,20.77-37.82,8.64-17.58,16.81-35.41,26.78-52.29,5.82-9.86,12.56-19.09,21.43-26.56,15.23-12.82,32.65-19.67,52.71-19.31,2,2.25,4.77,3.47,7.08,5.29,2.74,2.15,4.91,5,8.35,6.36-2,.84-3.31-1-5-.67-.23-.17-.45-.35-.7-.5a3.587,3.587,0,0,0-.25.33l.84.32,15.86,10.44c.18.53.21,1.21.56,1.57,6.23,6.42,12.57,12.75,18.74,19.24,2.52,2.65,5.38,5,7.55,8,1.09,1.52.93,2.32-.58,3.29-3.43,2.21-6.84,4.42-10.38,6.48-15.53,9-30.81,18.42-46.09,27.84-3.54,2.18-6.74,4.37-10.32.32-.48-1.79-1.9-2.38-3.5-2.74l-.69-.68-.29-.85-.37.28c.17.24.35.47.53.7l.69.68a3.8,3.8,0,0,0,3.4,2.89c1.41,2.24,2.8,5.76,5.92,3.82s5.58-1.55,8.47,0c9,4.74,18,9.25,26.9,14.16,2.75,1.52,6.5,1.79,7.9,5.36-5.33,6.32-11.84,11.42-17.89,17q-29.51,27.12-59.33,53.9c-14.42,13-28.92,25.83-43.67,38.4-4.24,3.61-9,6.82-14.78,8.16-1.66.38-3.13,2.61-5.33,2.9-2-.73-3.65.72-5.45,1-8.44,1.43-16.4,4.91-25,5.74-.82.08-1.25.49-1.06,1.36a1.61,1.61,0,0,1-1.81.46c.07-.51-.14-1.13-.6-1-2.81.72-5.68.38-8.52.59-.68,0-.92.58-.8,1.25a50.221,50.221,0,0,1-8.62.26c17.68,2,35.49-1.18,52.69-8.37C340.88,756.66,341.08,758,341.28,759.3Zm65.64-220.9.67-.72,1-.65-.36-.37c-.22.33-.44.65-.65,1l-.71.68-.67.67a4.67,4.67,0,0,0-3.12,3.4c-6.62,9.31-8.27,19.51-5.56,30.51a11.21,11.21,0,0,0,2.85,6.92c-.77-2.31-.74-4.89-2.36-6.9a40.39,40.39,0,0,1,5.73-30.44,3.77,3.77,0,0,0,2.54-3.41Zm18.55,66.33.42.27-.28-.41a1.42,1.42,0,0,0-1.38-1.41,10.62,10.62,0,0,0-6.2-5.52,1.44,1.44,0,0,0-1.44-1.36l-.33-.26.25.34a1.5,1.5,0,0,0,1.36,1.42,14.7,14.7,0,0,0,6.19,5.55,1.32,1.32,0,0,0,1.41,1.38Zm28.36-73.15-.25.16.15.24.38-.28Z" transform="translate(-60.81 -57.51)" fill="#ed7360"/>
      <path id="Path_4" data-name="Path 4" d="M480.82,633.69c-1.4-3.57-5.15-3.84-7.9-5.36-8.87-4.91-17.95-9.42-26.9-14.16-2.89-1.54-5.24-2-8.47,0s-4.51-1.58-5.92-3.82a.92.92,0,0,1,.24-.28c3.57,4,6.77,1.86,10.31-.32,15.28-9.42,30.56-18.85,46.09-27.84,3.54-2.06,7-4.27,10.38-6.48,1.51-1,1.67-1.77.58-3.29-2.17-3-5-5.33-7.55-8-6.17-6.49-12.51-12.82-18.74-19.24-.35-.36-.38-1-.56-1.57a3.007,3.007,0,0,1,.28-.34c1.46.34,2.26,1.53,3.21,2.5,7.66,7.87,15.37,15.69,22.89,23.69,1.75,1.85,5.8,3.06,3.07,7-.07.1.07.48.22.59,2.91,2.11,4.69,6,9.12,5.7h0c2.7,3.24,6.36,5.24,9.72,7.65,2.19,1.57,4.94,2,6.67.44,1.9-1.74,4.39-2.2,6.1-3.85,2-1.93,4.59-2.88,6.71-4.46,2.48-1.85,6.41-2.34,7-6.34.52.46,1,1.07,1.81.91,7.4,3.68,14.77,7.45,22.23,11,5,2.37,10,4.56,15.14,6.63,3.93,1.6,4.15,1.42,4.06-2.67s-.35-8-.59-12c-1.09-18.26-2.92-36.42-7.43-54.2-1-3.76-1.11-7.76-3-11.26.28-2.24-.62-4.28-1-6.41-1.59-7.93-4.6-15.74-1.87-24,2.44-7.41,4.92-14.8,7.25-22.24.69-2.23,2-4.36,1.27-6.95-.86-3.21-1.46-6.49-2.1-9.75a4.58,4.58,0,0,0-4.21-4.08h0c.41-.82-.15-1.32-.66-1.74-1.44-1.15-3-2.16-4.36-3.37-1.17-1-1.94-2.51-1.07-4,.75-1.29,2.05-.47,3.12-.19l5.84,1.59a20.591,20.591,0,0,0-4.42-6.19c-2.07-2.12-2.29-4.58-1.33-7.28.39-1.12,1.15-1.67,2-.8,3.45,3.48,5,1.45,6.13-2,0-.1.15-.17.23-.26a1.5,1.5,0,0,1,1.32.9c1.38,3.16,2.24,6.58,4.55,9.27,1.06,1.23,1.1,2.68,1.12,4.19,0,3.55-.06,7.2,3.9,9.09.11.47.21.94.32,1.41-.38,2.43,1.19,4.36,1.72,6.56.94,3.88,3.63,7.34,3.47,11.4-.21,5.59-1.45,11.16-1.52,16.74-.07,6.65-3.73,13.53.85,20-.06.08-.2.22-.18.24a3.674,3.674,0,0,0,.4.39l-.06-.07c.56,5,2.91,9.38,4.52,14,8.5,24.5,17.38,48.87,24.16,73.94A163.151,163.151,0,0,1,634.14,636c-.15,2.93.19,4.25,3.63,3.49a6.44,6.44,0,0,1,7.28,3.4,91.714,91.714,0,0,1,8,16.74c1,2.94.84,5.49-1.86,7.71-3.85,3.15-5.09,7.73-6,12.39-2.3.5-2.83-1.63-3.82-2.8-1.51-1.79-2.52-1.92-4.41-.35-9.59,7.95-20.51,12-33.12,10.91-3.81-.34-7.4-1.54-11.07-2.43a2.89,2.89,0,0,0-2.91-.87c-11.42-5.07-22.93-10-34.24-15.27-15.47-7.27-30.78-14.86-46.17-22.29-1-.5-2.1-.9-3.16-1.34a1.16,1.16,0,0,0-1.17-.65c-6.77-3.51-13.55-7-20.31-10.54C483.53,633.43,482.18,633.65,480.82,633.69Zm81.36-40.91c-7.1.11-16.88,2.93-23.84,6.54-2.09,1.08-1.48,1.74,0,2.77q23.82,16,47.58,32.17a4.14,4.14,0,0,0,3.57.49,32.088,32.088,0,0,1,14.33-.11c.81.18,1.85,1,2.4-.18.42-.88-.64-1.36-1.13-1.94-9.69-11.2-19.53-22.27-29.93-32.81C571.46,595.9,567.69,591.62,562.18,592.78Z" transform="translate(-60.81 -57.51)" fill="#b97f6d"/>
      <path id="Path_5" data-name="Path 5" d="M600.12,496.28c-4.58-6.46-.92-13.34-.85-20,.07-5.58,1.31-11.15,1.52-16.74.16-4.06-2.53-7.52-3.47-11.4-.53-2.2-2.1-4.13-1.72-6.56,1-.14,2.45.48,2.61-1.35,2.21-.56,1.27-2.34,1.27-3.62,0-1.63-1.32-1.87-2.65-1.89a1.09,1.09,0,0,0-1.39-.51l-.51-1c-.16-.68-.32-1.35-.47-2-3.23-15.93-10.91-29.12-24.39-38.46-7.68-5.31-16.42-8.56-25.23-11.57-15.22-5.2-30.47-7.53-46.13-1.74-20.71,7.66-33.18,22.72-39,43.56a25.75,25.75,0,0,0,1.78,19.16c.87,1.66,1.84,3.43,4.24,3.43-2.24-12.35-1.73-16,4.19-26.31,2.06-3.56,4.59-6.85,7-10.23,8.53-12.17,19.64-20.13,34.93-21.12,17.1-1.1,33.75.71,49.28,8.54,9.43,4.74,17.54,11.16,23.27,20.23-.08.09-.19.16-.23.26-1.15,3.43-2.68,5.46-6.13,2-.86-.87-1.62-.32-2,.8-1,2.7-.74,5.16,1.33,7.28a20.589,20.589,0,0,1,4.42,6.19l-5.84-1.59c-1.07-.28-2.37-1.1-3.12.19-.87,1.49-.1,3,1.07,4,1.37,1.21,2.92,2.22,4.36,3.37.51.42,1.07.92.66,1.74-1.77,1.18-1.43,3.28-2.13,4.92-1,2.43-1.68,5.14-4.16,6.56-3.12,1.78-6.3,3.54-10.82,3.89,3.55,1,5.75,2.58,7.32,4.95.66,1,1.18,2.15.17,3.15s-1.91,0-2.78-.46c-1.93-1-3.83-2.07-5.74-3.11-1.45-.79-4.08-.78-4-2.62,0-2.4,3-1.33,4.47-2.31a10.47,10.47,0,0,1-2.5-3.22c-1-2.38.24-5.39,2.59-5.27,3,.14,4.4-1.49,4.09-3.61-.34-2.31,2.66-3.63,1.08-6-1.31-2-2.29-4.17-3.5-6.42a5.71,5.71,0,0,0-2,2.31c-1,2.93-3.44,4.23-6.11,5.07-2.17.68-3.81.55-4.46-2.49s-2.28-6.19-3.72-9.89a55.176,55.176,0,0,1-1,5.53c-1.72,5.68-1.76,7.87-9.12,7.73-2.47,0-3.33-1-3.31-3.25,0-2.66.08-5.35,1.42-7.71,1.16-2.06.12-3-1.55-3.64a24.688,24.688,0,0,0-4-1.14,6.67,6.67,0,0,1-5.78-5.49,13.832,13.832,0,0,0-2.58,2.31c-3.13,4.82-7.1,8.92-10.68,13.32A51.711,51.711,0,0,1,493,447.76c-4.61,2.35-8.65,2.84-13-.44a9.83,9.83,0,0,0-8.47-1.87c-6.17,1.53-8.22,6.52-9.65,11.86a10.47,10.47,0,0,0,3.7,11.41c1.32,1.1,2.34,1.81,1.43,3.9-4.45,10.2-8.7,20.49-13.07,30.73-.47,1.1-.7,2.52-2.25,2.8-2.35-1.26-3-3.4-2.79-5.82.15-1.59.07-2.37-1.88-2.78-4-.83-6.16-3.71-7-7.63-.17-.81.28-1.75-1.13-2.1-6.07-1.49-6.61-2.22-6.92-8.51a11.2,11.2,0,0,0-.18-1.4c-1.58.15-2.85,1-4.39.88-5.09-.46-7.9-5.35-5.48-10.13a4,4,0,0,0,.22-3.72,8.87,8.87,0,0,1,3.55-10.83c1.48-.93,2-1.55,1.3-3.41a7.46,7.46,0,0,1,1.5-8.05c1.27-1.32,1.32-2.09.14-3.39a6.09,6.09,0,0,1-1.25-2.78c-.29-1.42-.86-1.74-2.34-1.65-2.91.19-4.65-1.64-5.62-4.19A10.72,10.72,0,0,1,428.88,416c2.29-.13,4.15-.72,3.9-3.16-.89-9,4.08-13,12.07-14.81-1.49-3.24-3.67-6-4.37-9.36-.05-.22-.15-.43-.22-.65-.59-2,.46-3.36,1.38-5,2.11-3.81,3.49-8.28,9.38-6.07a5.71,5.71,0,0,0,4,.18,29.19,29.19,0,0,1,8.39-1.84c2.74-.11,5.49,0,8.49,0-.37-2.61-2.11-4.76-3.32-7.09-4.52-8.65-3.41-10.69,6.49-11.86a17.25,17.25,0,0,1,9.77,1.35c2.86,1.45,5.39,3.42,8.58,4.38A21.479,21.479,0,0,1,502,367c.43-1.6-.45-2.67-.8-3.86a10.25,10.25,0,0,1-.25-6.1c.18-.59.88-1.51,1.28-1.47,3.7.31,4.1-5.16,8-4.46a11.779,11.779,0,0,1,5.67,2.31c1,.85,1.76,1.65,3.24,1a2.16,2.16,0,0,1,2,.17c2.28,2.89,6.44,3,8.64,5.89,1.56,2,4.56,1.29,5.83,3.5,1.3-.65.77-1.55.61-2.2-1-4.33,1.23-8.36,1-12.67-.12-2.87,2.71-3.75,5.33-3.66s5,.36,5.1,3.75c0,1.38.61,1.84,2,2.17,4.14,1,5,3.32,5,7.68,0,3.06,3.49,5.73,1.67,9.31.63.25,1.28.48,1.91.76,1.6.7,2.84,2,2.76,3.65-.14,2.6,1,3,3.26,3.48,2.82.57,4.79,1.35,6.1-2.41.88-2.56,4.47-3.07,7.22-1.52,1.28.72,1.94.46,3.25,0,4.38-1.54,9.11-1,13.68-1.34,2.35-.18,3.47,3.11,2.41,5.73a11.561,11.561,0,0,1-4.19,4.87c-3,2.21-6,4.44-9.85,7.27,6.89-.31,12.78-.57,18.67-.85,2.46-.12,8.31,3.65,9.15,5.92,1.06,2.88-1.57,6.62-5.39,7.47-2.32.51-4.7.77-7.15,1.16,2.86,4.06,4.57,4.61,8.39,2.9a3.67,3.67,0,0,1,2-.48c6.42,1.2,13.28.22,19.11,4.33,5.1,3.6,5.14,9.62-.2,13-2.83,1.78-6,2.16-9.28,2.18-.71,0-1.72-.37-2,.74a2.39,2.39,0,0,0,.7,2.21,8.88,8.88,0,0,0,5.44,2.72,8,8,0,0,1,7.06,7,7.27,7.27,0,0,0,2.48,4.8c2.31,1.71,2.68,3.8,1.89,6.39-.43,1.42-.62,2.92-1,4.37-1.16,4.86-3.13,5.68-7.66,3.28a12.184,12.184,0,0,0-1.52-.58c-.92,1.34.33,2.21.44,3.29.67,7.05-4.17,11-11.5,8.84-2.1-.61-2.64-.1-3.1,1.62-.56,2.11-1.2,4.2-1.79,6.31-1.1,4-1.44,7.6,3.33,9.66a8.73,8.73,0,0,1,2.94,2.84c2.21,2.83,2.48,6.87.74,9.35s-5.84,3.37-9.87,2.23a11.631,11.631,0,0,1-4.42-2.59l.06.07A1.29,1.29,0,0,1,600.12,496.28ZM455.93,427.14c-1.79.17-3.86-.48-5.75,2.16,2.46-.95,4.29-1,5.73-2.19.23-.19.91.32.75-.48ZM449,430.6c-1.79,1-4.62,0-5.52,2.76-2.67.6-1.76,3.1-2.42,4.73-.27.67.71.69,1.23.66.67,0,1.11-.47.77-1.13-.78-1.54.21-2.87.38-4.29,1.65-1.31,4.86.51,5.53-2.76l.55-.75-.29-.17A4.254,4.254,0,0,1,449,430.6Zm91.18-21.45a.61.61,0,0,0,.11.23.254.254,0,0,1,.16.06l-.3-.26a21.91,21.91,0,0,1-4.92-5.2c1,2.42.04,6.8,4.98,5.17ZM599.27,442c1,1.87,1.56,3.59.57,5.57a1,1,0,0,0,.81,1.51c1.8,0,3.05,1.65,5.37,1.34C599.9,450.29,602.83,443.89,599.27,442Zm-64.13-40.25c-1.89.14-2.85-.63-3.87.29.96.72,1.88,1.25,3.87-.27Zm5.94,9.29c.23,1-1.19,1.69-.25,2.69a.91.91,0,0,0,.88-.05c.61-.97-.18-1.74-.63-2.62Zm64.78,41.41c0,1.62-.31,3.12,2.08,2.58-1.89.18-1.03-1.75-2.08-2.56Z" transform="translate(-60.81 -57.51)" fill="#1d2f36"/>
      <path id="Path_6" data-name="Path 6" d="M451.7,506.15c1.55-.28,1.78-1.7,2.25-2.8,4.37-10.24,8.62-20.53,13.07-30.73.91-2.09-.11-2.8-1.43-3.9a10.47,10.47,0,0,1-3.7-11.41c1.43-5.34,3.48-10.33,9.65-11.86a9.83,9.83,0,0,1,8.47,1.87c4.33,3.28,8.37,2.79,13,.44A51.71,51.71,0,0,0,510.09,434c3.58-4.4,7.55-8.5,10.68-13.32a13.83,13.83,0,0,1,2.58-2.31c.74,3.35,2.81,4.89,5.78,5.49a24.69,24.69,0,0,1,4,1.14c1.67.65,2.71,1.58,1.55,3.64-1.34,2.36-1.4,5.05-1.42,7.71,0,2.24.84,3.21,3.31,3.25,7.36.14,7.4-2.05,9.12-7.73a55.194,55.194,0,0,0,1-5.53c1.44,3.7,3,6.7,3.72,9.89s2.29,3.17,4.46,2.49c2.67-.84,5.13-2.14,6.11-5.07a5.71,5.71,0,0,1,2-2.31c1.21,2.25,2.19,4.44,3.5,6.42,1.58,2.39-1.42,3.71-1.08,6,.31,2.12-1.14,3.75-4.09,3.61-2.35-.12-3.57,2.89-2.59,5.27a10.47,10.47,0,0,0,2.5,3.22c-1.49,1-4.42-.09-4.47,2.31,0,1.84,2.59,1.83,4,2.62,1.91,1,3.81,2.1,5.74,3.11.87.45,1.78,1.45,2.78.46s.49-2.16-.17-3.15c-1.57-2.37-3.77-3.92-7.32-4.95,4.52-.35,7.7-2.11,10.82-3.89,2.48-1.42,3.12-4.13,4.16-6.56.7-1.64.36-3.74,2.13-4.92h0c-.27,4-.53,8-.83,12a72.86,72.86,0,0,1-4.27,19.32c-2.26,6.26-4.9,12.41-7.74,18.44-6.84,14.53-12.82,29.62-24.81,41.06-.22.2-.22.63-.33,1-1.63.42-2.72,1.68-4,2.57-6.05,4.1-12.74,7.12-20,6.38-6.62-.68-9.72,1.89-11.27,7.69-3.92,0-7.85.26-11.73-.07-3-.26-6.33-.56-8.68-2.11-3.24-2.12-6.82-3.48-10.05-5.52-1.5-.95-2.35-.39-2.47,1.35a3.006,3.006,0,0,0-.28.34L456.57,532.9l.11-.15c1.73-.37,3,1.51,5,.67-3.44-1.32-5.61-4.21-8.35-6.36-2.31-1.82-5.1-3-7.08-5.29,1.6-3.9,3.15-7.82,4.82-11.7A5.56,5.56,0,0,0,451.7,506.15Zm89.73-44.29a4.23,4.23,0,0,0-1.13,3.1c-.89,9.58-1.81,19.16-2.61,28.75-.2,2.39-1.27,3-3.37,2.33l-6.36-2c1.94,2.26,4.09,2.54,5.95,3.32,3.69,1.57,5.59.35,6-3.72.28-3.08.42-6.18.69-9.26a165.868,165.868,0,0,0,.83-22.52Zm-16.1-11.37a20.17,20.17,0,0,0,6.7-1.24,1.45,1.45,0,0,0,1.18-1.48c0-.84-.67-1.16-1.4-1.23a93.312,93.312,0,0,1-15.58-2.5,1.53,1.53,0,0,0-1.85.53c-.45.76.2,1.28.64,1.77C517.86,449.51,521.81,449.86,525.33,450.49Zm26.56,32c0,3.1,1.76,4.2,4.12,4.38a3.48,3.48,0,0,0,4-3.72c0-2.51-1.54-4-4.08-4.11s-3.67,1.48-4.04,3.43Zm-33.09-11.8c3.61-.12,5-1.32,4.94-3.87s-1.37-3.78-3.85-3.82c-2.67,0-4.18,1.46-4.06,4,.11,2.28,1.55,3.74,2.97,3.67Zm-10.29,24.92c6.38,1.76,10.51,5.67,12,12.5,3.87-6.37-3.83-15.44-12-12.52ZM527.2,459.7c.22-3.66-1.43-5.93-5.1-7.61a7.88,7.88,0,0,0-8.77,1C519,453.15,523.37,455.64,527.2,459.7Zm-24.45,16.38c2.61-.11,5.71-3.79,5.66-6.06,0-1.18-.68-1.24-1.55-1.23-2.82,0-6.56,2.62-6.47,4.57.08,1.7.96,2.73,2.36,2.72Zm62.81,1.38c.18-4.65-2.15-6.55-4.74-7.88-2.93-1.51-6.14-2.37-10,.39,6.1.46,10.86,2.27,14.74,7.49ZM562,494.37c-.35-1.31-.33-3.74-1.85-3.79-1.92-.06-2,2.44-2.28,4a1.91,1.91,0,0,0,2,2.52C561.24,497,562.07,496.1,562,494.37Zm-53.93-30c-2.49.56-4.28-.3-5.43,1.52-.11.17.27.93.57,1.05,1.89.86,3.11-.12,4.79-2.53Z" transform="translate(-60.81 -57.51)" fill="#b97f6d"/>
      <path id="Path_7" data-name="Path 7" d="M695.36,842.44q12.21-11.31,24.41-22.63c3.77-3.51,7.47-7.11,11.2-10.66,2.49-.7,4.21,0,4.84,2.67-4.2,1.86-6.09,4.32-5.92,8,1-1.24,1.91-2.43,2.92-3.48s2.32-2.17,3.48-3.25c1.58.54,2.25-.43,2.76-1.66.11-1.89,2.08-2.41,2.82-3.83,2.23-.64,4.38-1.16,6.06,1.26.29.42,1.47.21,2.24.3h0l.07,6.76c.45,1.09-1.11,3.63,2,2.79.79.19,2.06-.77,2.21.94-.15,2.51-.3,5,3.19,6-2.49-2.86-.42-6.42-1.94-9.41.76-2.83,3.3-4.11,5.41-3.41a15.278,15.278,0,0,1,5,3,6.06,6.06,0,0,0,4,5A59,59,0,0,1,766.32,809c.91.15,2,.33,2.65-.29,2.08-1.84,4-2.1,5.87.19a3.67,3.67,0,0,0,2.55.11c1.11,0,1.75-.4,1.72-1.6-.09-3.06,1.75-4,4.42-3.89a3.44,3.44,0,0,0,3-1.28,3.25,3.25,0,0,1,4.28-1c.82.35,2,.83,2.64.49,3.09-1.7,2.07.8,2.21,2.06a21.565,21.565,0,0,1,0,2.41q-33.54,30.54-67,61.13c-2,1.83-3.83,2.76-6.42,2.11a8.471,8.471,0,0,0-3.94-3.75h0c.11-1-.52-1.28-1.33-1.37C710.18,856.71,702.87,849.48,695.36,842.44ZM722.3,847c2.58-.11,4.07-1.43,4.09-4s-1.35-4-3.83-3.85c-2.13.1-4.18.74-4,3.59C718.68,845.07,719.33,847,722.3,847Zm20.76-16.3c.59-3.47,1.13-7,3.2-10.59-3.89,1.65-5.08,5.65-3.2,10.58Z" transform="translate(-60.81 -57.51)" fill="#ed7360"/>
      <path id="Path_8" data-name="Path 8" d="M722.31,869.57c-1.38.07-2.75.2-4.13.2H369.94c-1.26,0-2.52-.1-3.78-.16,1.26-.85,2.69-.44,4-.44H719.73c.33-1.51-1.64-2-1.39-3.33a8.47,8.47,0,0,1,3.97,3.73Z" transform="translate(-60.81 -57.51)" fill="#ececed"/>
      <path id="Path_9" data-name="Path 9" d="M806,795.61c-3.58,3.43-7.26,6.76-10.28,10.72a21.564,21.564,0,0,0,0-2.41c-.14-1.26.88-3.76-2.21-2.06-.62.34-1.82-.14-2.64-.49a3.25,3.25,0,0,0-4.28,1,3.44,3.44,0,0,1-3,1.28c-2.67-.1-4.51.83-4.42,3.89,0,1.2-.61,1.64-1.72,1.6-.37-1.8-.74-3.61-1.1-5.41a155.216,155.216,0,0,1,26.28-7.88,6.72,6.72,0,0,1,3.37-.24Z" transform="translate(-60.81 -57.51)" fill="#b97f6d"/>
      <path id="Path_10" data-name="Path 10" d="M739.05,811.39c-.51,1.23-1.18,2.2-2.76,1.66l-.48-1.23c-.63-2.66-2.35-3.37-4.84-2.67,3-4,7.24-6.74,10.65-10.33l3.79,4.71-.32.27c-3.39-.24-7.43,3.39-7.21,6.5C737.92,811,738.58,811.12,739.05,811.39Z" transform="translate(-60.81 -57.51)" fill="#b97f6d"/>
      <path id="Path_11" data-name="Path 11" d="M750.25,815.88l-.07-6.76c2.57,2.49,5.33,3.32,8.69,1.42a7.72,7.72,0,0,1,4.47-1.4c0,2-1,4.49,2.45,4.92.69.09.44,1.16.35,1.82a15.28,15.28,0,0,0-5-3c-2.11-.7-4.65.58-5.41,3.41-.41,1.12-.83,2.24-1.25,3.36-.15-1.71-1.42-.75-2.21-.94.15-.54.52-1.12.42-1.6-.37-1.77,2.72-3.68.86-4.6C751.48,811.45,751.82,815.09,750.25,815.88Z" transform="translate(-60.81 -57.51)" fill="#b97f6d"/>
      <path id="Path_12" data-name="Path 12" d="M766.14,815.88c.09-.66.34-1.73-.35-1.82-3.42-.43-2.45-2.88-2.45-4.92h0c.47,0,.67-.25.61-.71l.74-.79,1.7,1.43a59,59,0,0,0,3.79,11.83A6.06,6.06,0,0,1,766.14,815.88Z" transform="translate(-60.81 -57.51)" fill="#1d2f36"/>
      <path id="Path_13" data-name="Path 13" d="M766.39,809.08l-1.7-1.43,10.47-3.82c-.08,1.72-.16,3.44-.25,5.15-1.88-2.29-3.79-2-5.87-.19C768.35,809.41,767.3,809.23,766.39,809.08Z" transform="translate(-60.81 -57.51)" fill="#b97f6d"/>
      <path id="Path_14" data-name="Path 14" d="M750.17,809.12c-.77-.09-1.95.12-2.24-.3-1.68-2.42-3.83-1.9-6.06-1.26.42-1.81,2.55-2.16,3.22-3.76l.32-.27C746.89,805.48,749.22,806.71,750.17,809.12Z" transform="translate(-60.81 -57.51)" fill="#b97f6d"/>
      <path id="Path_15" data-name="Path 15" d="M774.91,809c.09-1.71.17-3.43.25-5.15l1.2-.15c.36,1.8.73,3.61,1.1,5.41A3.67,3.67,0,0,1,774.91,809Z" transform="translate(-60.81 -57.51)" fill="#1d2f36"/>
      <path id="Path_16" data-name="Path 16" d="M276.3,374.45l.09-.09-.07.09Z" fill="#3a5c66"/>
      <path id="Path_17" data-name="Path 17" d="M764,808.44c.06.46-.14.71-.61.71Z" transform="translate(-60.81 -57.51)" fill="#b97f6d"/>
      <path id="Path_18" data-name="Path 18" d="M171.98,651.41l-.07.13.02-.1Z" fill="#3a5c66"/>
      <path id="Path_19" data-name="Path 19" d="M681.06,740.84l.02-.26.25.02-.01.27Z" fill="#b97f6d"/>
      <path id="Path_20" data-name="Path 20" d="M465.93,317.15l1-.67a.88.88,0,0,1-1,.67Z" transform="translate(-60.81 -57.51)" fill="#ececed"/>
      <path id="Path_21" data-name="Path 21" d="M534,164a1.7,1.7,0,0,1-.32-.69c0-.12.49-.42.63-.36a3.437,3.437,0,0,1,.58.69Z" transform="translate(-60.81 -57.51)" fill="#1d2f36"/>
      <path id="Path_22" data-name="Path 22" d="M434.36,211.59a.991.991,0,0,1,.53.14c.05.07-.14.18-.22.28s-.48-.06-.53-.13S434.27,211.69,434.36,211.59Z" transform="translate(-60.81 -57.51)" fill="#1d2f36"/>
      <path id="Path_23" data-name="Path 23" d="M354.4,836.72c-2.27-1.35-4.59-1.08-7.17-.85a66.659,66.659,0,0,1-25.44-2.77c-7.33-2.26-14.68-4.51-21.54-8-2.87-1.46-3.39-.31-3.25,2.28a15.41,15.41,0,0,1-.61,5.81c0-2.89.07-5.77,0-8.65-.08-2.25.83-2.17,2.47-1.41a137.624,137.624,0,0,0,23,8.65c9.21,2.45,18.56,4,28.15,2.32,2.12-.37,3.92.1,4.37,2.66Z" transform="translate(-60.81 -57.51)" fill="#3a5c66"/>
      <path id="Path_24" data-name="Path 24" d="M308.35,762.16c-.19-.87.24-1.28,1.06-1.36,8.56-.83,16.52-4.31,25-5.74,1.8-.31,3.41-1.76,5.45-1A78.33,78.33,0,0,1,308.35,762.16Z" transform="translate(-60.81 -57.51)" fill="#b97f6d"/>
      <path id="Path_25" data-name="Path 25" d="M685.93,758.7c3.64,1.06,4.87,4.65,7.21,7a76.994,76.994,0,0,1,8.91,11.3c-5.8-5.7-11.76-11.26-16.1-18.27Z" transform="translate(-60.81 -57.51)" fill="#3a5c66"/>
      <path id="Path_26" data-name="Path 26" d="M448.31,698.57c-.29,2.19-2.19,3.18-3.55,4.48-4.26,4.09-8.66,8-13.21,12.22-.52-2.14.93-2.91,1.8-3.74,4.41-4.17,8.93-8.21,13.44-12.26a5.362,5.362,0,0,1,1.54-.67Z" transform="translate(-60.81 -57.51)" fill="#3a5c66"/>
      <path id="Path_27" data-name="Path 27" d="M655.53,723.47c3,.43,3.68,3.28,5.27,5.08,3.9,4.4,8.47,8.28,11.31,13.57h0c-3.65-1-4.87-4.64-7.17-7.05-3.42-3.59-7.09-7.08-9.4-11.6Z" transform="translate(-60.81 -57.51)" fill="#3a5c66"/>
      <path id="Path_28" data-name="Path 28" d="M485.62,664.74c2.19-4.25,6.06-7,9.47-10,1.26-1.14,2.31-2.93,4.37-3.05h0c-.3,2.36-2.44,3.2-3.9,4.5-3.27,2.92-5.89,6.58-9.89,8.65Z" transform="translate(-60.81 -57.51)" fill="#3a5c66"/>
      <path id="Path_29" data-name="Path 29" d="M604.45,698.57A36.75,36.75,0,0,1,592,686.83h0c5.31,2.68,9.08,7,12.44,11.75Z" transform="translate(-60.81 -57.51)" fill="#3a5c66"/>
      <path id="Path_30" data-name="Path 30" d="M363.35,844.35c3.79,1,5.62,4.44,8.32,6.78,1.13,1,.2,2.1-.2,3.13-.5,1.26-1,2.53-1.45,3.88-.17-.2-.37-.36-.35-.43,1.79-4.93-.42-8.14-4.44-10.68a3.14,3.14,0,0,1-1.85-2.7Z" transform="translate(-60.81 -57.51)" fill="#3a5c66"/>
      <path id="Path_31" data-name="Path 31" d="M341.28,759.3c-.2-1.32-.4-2.64-.59-4l.95-.2c.36.82.81,1.94,1.83,1.18.72-.54,2.64-1,1.22-2.7a14.47,14.47,0,0,1,5.56-2.52h0C348.05,754.69,344.68,757,341.28,759.3Z" transform="translate(-60.81 -57.51)" fill="#b97f6d"/>
      <path id="Path_32" data-name="Path 32" d="M460.78,687.55c0-1.75,1.44-2.64,2.57-3.47,3.21-2.35,5.43-5.88,9.17-7.58h0c-.16,2-1.81,2.92-3.07,3.95C466.54,682.79,464.32,685.98,460.78,687.55Z" transform="translate(-60.81 -57.51)" fill="#3a5c66"/>
      <path id="Path_33" data-name="Path 33" d="M686,758.68a37.451,37.451,0,0,1-9-10.37h0a21.51,21.51,0,0,1,9,10.36Z" transform="translate(-60.81 -57.51)" fill="#3a5c66"/>
      <path id="Path_34" data-name="Path 34" d="M451.1,696.53c2.12-4.19,5.82-6.67,9.68-9h0c-2.43,3.84-5.94,6.53-9.67,9Z" transform="translate(-60.81 -57.51)" fill="#3a5c66"/>
      <path id="Path_35" data-name="Path 35" d="M296.62,763.45c-.12-.67.12-1.21.8-1.25,2.84-.21,5.71.13,8.52-.59.46-.12.67.5.6,1C303.31,763.77,300,763.69,296.62,763.45Z" transform="translate(-60.81 -57.51)" fill="#b97f6d"/>
      <path id="Path_36" data-name="Path 36" d="M361.31,842.25c-3.24-.68-5.26-2.87-6.91-5.53h0c3.49.35,4.8,3.43,6.9,5.52Z" transform="translate(-60.81 -57.51)" fill="#3a5c66"/>
      <path id="Path_37" data-name="Path 37" d="M615.5,709.63a9.47,9.47,0,0,1-5.5-5.53h0a9.72,9.72,0,0,1,5.52,5.53Z" transform="translate(-60.81 -57.51)" fill="#3a5c66"/>
      <path id="Path_38" data-name="Path 38" d="M615.47,709.66a9.48,9.48,0,0,1,5.52,5.52h0a9.53,9.53,0,0,1-5.53-5.52Z" transform="translate(-60.81 -57.51)" fill="#3a5c66"/>
      <path id="Path_39" data-name="Path 39" d="M610,704.1a9.3,9.3,0,0,1-5.53-5.53h0a9.58,9.58,0,0,1,5.53,5.52Z" transform="translate(-60.81 -57.51)" fill="#3a5c66"/>
      <path id="Path_40" data-name="Path 40" d="M621,715.18c2.53.85,3.94,2.86,5.17,5.07-2.28-1.11-4.27-2.51-5.13-5.1Z" transform="translate(-60.81 -57.51)" fill="#3a5c66"/>
      <path id="Path_41" data-name="Path 41" d="M418.61,726.2c-.67,2.69-3.1,3.71-5.1,5.13,1.33-2.06,2.49-4.29,5.13-5.09Z" transform="translate(-60.81 -57.51)" fill="#3a5c66"/>
      <path id="Path_42" data-name="Path 42" d="M482.85,666.8a6.55,6.55,0,0,1-5.53,4.84h0a11.31,11.31,0,0,1,5.52-4.83Z" transform="translate(-60.81 -57.51)" fill="#3a5c66"/>
      <path id="Path_43" data-name="Path 43" d="M643.82,709.62c-2.57-.58-3.17-2.78-3.93-4.85a6.75,6.75,0,0,1,3.9,4.89Z" transform="translate(-60.81 -57.51)" fill="#3a5c66"/>
      <path id="Path_44" data-name="Path 44" d="M653.49,720.68c-2.74-.85-3.7-3.27-4.84-5.52h0C651.42,715.99,652.34,718.44,653.49,720.68Z" transform="translate(-60.81 -57.51)" fill="#3a5c66"/>
      <path id="Path_45" data-name="Path 45" d="M672.81,742.81c2,1.39,3.75,3,4.14,5.53h0c-2.08-1.32-4-2.8-4.15-5.52Z" transform="translate(-60.81 -57.51)" fill="#3a5c66"/>
      <path id="Path_46" data-name="Path 46" d="M424.86,720.71c.42-2.05,1.91-3.05,4.35-4.35-1.31,2.45-2.32,3.92-4.39,4.32Z" transform="translate(-60.81 -57.51)" fill="#3a5c66"/>
      <path id="Path_47" data-name="Path 47" d="M505,646.78c-.12.31-.13.77-.36.93-.91.63-1.13,2.06-2.45,2.16a.929.929,0,0,1-.52-.67c.23-1.51,1.56-1.79,2.68-2.29a2.84,2.84,0,0,1,.67-.12Z" transform="translate(-60.81 -57.51)" fill="#3a5c66"/>
      <path id="Path_48" data-name="Path 48" d="M422.06,723.44a3.06,3.06,0,0,1-3.45,2.76h0c.31-2,1.54-2.79,3.45-2.77Z" transform="translate(-60.81 -57.51)" fill="#3a5c66"/>
      <path id="Path_49" data-name="Path 49" d="M344.69,753.62c1.42,1.69-.5,2.16-1.22,2.7-1,.76-1.47-.36-1.83-1.18A6.52,6.52,0,0,1,344.69,753.62Z" transform="translate(-60.81 -57.51)" fill="#ed7360"/>
      <path id="Path_50" data-name="Path 50" d="M589.88,684.2a2.89,2.89,0,0,1,2.91.87,2,2,0,0,0-.8,1.79h0C590.36,686.73,590,685.6,589.88,684.2Z" transform="translate(-60.81 -57.51)" fill="#3a5c66"/>
      <path id="Path_51" data-name="Path 51" d="M422.09,723.47a2.89,2.89,0,0,1,2.77-2.76h0a3,3,0,0,1-2.76,2.76Z" transform="translate(-60.81 -57.51)" fill="#3a5c66"/>
      <path id="Path_52" data-name="Path 52" d="M648.65,715.16a3,3,0,0,1-2.76-2.76h0a2.9,2.9,0,0,1,2.77,2.76Z" transform="translate(-60.81 -57.51)" fill="#3a5c66"/>
      <path id="Path_53" data-name="Path 53" d="M643.79,709.66c1.79.1,2.11,1.3,2.07,2.76h0a3.56,3.56,0,0,1-2.07-2.77Z" transform="translate(-60.81 -57.51)" fill="#3a5c66"/>
      <path id="Path_54" data-name="Path 54" d="M475.94,673c.17,1.55-.57,2.19-2.07,2.07h0a2,2,0,0,1,2.07-2.07Z" transform="translate(-60.81 -57.51)" fill="#3a5c66"/>
      <path id="Path_55" data-name="Path 55" d="M505.14,644.65a1.16,1.16,0,0,1,1.17.65,1.311,1.311,0,0,1-1.35,1.48h0C505,646.08,505.09,645.37,505.14,644.65Z" transform="translate(-60.81 -57.51)" fill="#3a5c66"/>
      <path id="Path_56" data-name="Path 56" d="M654.16,721.4c1.36.09,1.44,1,1.37,2.07h0c-1.36-.09-1.4-1.06-1.39-2.07Z" transform="translate(-60.81 -57.51)" fill="#3a5c66"/>
      <path id="Path_57" data-name="Path 57" d="M350.25,751.1c.15-.76.79-.78,1.49-1.22-.32,1-.85,1.23-1.52,1.19Z" transform="translate(-60.81 -57.51)" fill="#b97f6d"/>
      <path id="Path_58" data-name="Path 58" d="M451.07,696.5a1.29,1.29,0,0,1-1.37,1.39h0a1.2,1.2,0,0,1,1.38-1.39Z" transform="translate(-60.81 -57.51)" fill="#3a5c66"/>
      <path id="Path_59" data-name="Path 59" d="M710.13,786.3a1.27,1.27,0,0,1-1.38-1.38h0C709.65,784.92,710.06,785.44,710.13,786.3Z" transform="translate(-60.81 -57.51)" fill="#3a5c66"/>
      <path id="Path_60" data-name="Path 60" d="M705.3,780.77c-.52-.08-1.11-.07-1.08-.83a.29.29,0,0,1,.21-.22c.77,0,.74.58.84,1.08Z" transform="translate(-60.81 -57.51)" fill="#3a5c66"/>
      <path id="Path_61" data-name="Path 61" d="M477.32,671.64a1.2,1.2,0,0,1-1.38,1.38h0a1.33,1.33,0,0,1,1.38-1.39Z" transform="translate(-60.81 -57.51)" fill="#3a5c66"/>
      <path id="Path_62" data-name="Path 62" d="M361.27,842.28a1.33,1.33,0,0,1,1.39,1.38h0c-.84-.08-1.37-.47-1.37-1.38Z" transform="translate(-60.81 -57.51)" fill="#3a5c66"/>
      <path id="Path_63" data-name="Path 63" d="M638.72,703.27c-.08.18-.15.37-.23.55-.18-.08-.46-.13-.52-.27s.12-.35.19-.54Z" transform="translate(-60.81 -57.51)" fill="#3a5c66"/>
      <path id="Path_64" data-name="Path 64" d="M473.87,675.09a1.2,1.2,0,0,1-1.39,1.38h0a1.29,1.29,0,0,1,1.38-1.38Z" transform="translate(-60.81 -57.51)" fill="#3a5c66"/>
      <path id="Path_65" data-name="Path 65" d="M482.87,666.83c.08-.52.11-1.08.86-1a.306.306,0,0,1,.22.22c0,.75-.58.74-1.1.78Z" transform="translate(-60.81 -57.51)" fill="#3a5c66"/>
      <path id="Path_66" data-name="Path 66" d="M499.46,651.64c.06-.53.05-1.11.82-1.08a.31.31,0,0,1,.22.22c0,.76-.56.75-1.08.82Z" transform="translate(-60.81 -57.51)" fill="#3a5c66"/>
      <path id="Path_67" data-name="Path 67" d="M449.7,697.89a1.34,1.34,0,0,1-1.39.68h0a1.31,1.31,0,0,1,1.39-.68Z" transform="translate(-60.81 -57.51)" fill="#3a5c66"/>
      <path id="Path_68" data-name="Path 68" d="M706.65,782.19l.54.73c-.85.2-.33-.51-.51-.76Z" transform="translate(-60.81 -57.51)" fill="#3a5c66"/>
      <path id="Path_69" data-name="Path 69" d="M708.75,784.92l-.54-.72c.83-.21.34.5.51.75Z" transform="translate(-60.81 -57.51)" fill="#3a5c66"/>
      <path id="Path_70" data-name="Path 70" d="M706.68,782.16l-.69-.69h0Z" transform="translate(-60.81 -57.51)" fill="#3a5c66"/>
      <path id="Path_71" data-name="Path 71" d="M362.66,843.66l.69.69h0l-.7-.7Z" transform="translate(-60.81 -57.51)" fill="#3a5c66"/>
      <path id="Path_72" data-name="Path 72" d="M654.18,721.37l-.69-.69h0l.69.7Z" transform="translate(-60.81 -57.51)" fill="#3a5c66"/>
      <path id="Path_73" data-name="Path 73" d="M485.63,664.75l-.34.29c0-.07,0-.17.06-.21a1.073,1.073,0,0,1,.27-.09Z" transform="translate(-60.81 -57.51)" fill="#3a5c66"/>
      <path id="Path_74" data-name="Path 74" d="M710.8,787l.29.28c-.06,0-.14,0-.17-.07a.852.852,0,0,1-.09-.24Z" transform="translate(-60.81 -57.51)" fill="#3a5c66"/>
      <path id="Path_75" data-name="Path 75" d="M672.11,742.12l.7.69h0l-.69-.7Z" transform="translate(-60.81 -57.51)" fill="#3a5c66"/>
      <path id="Path_76" data-name="Path 76" d="M710.83,787l-.7-.69h0Z" transform="translate(-60.81 -57.51)" fill="#3a5c66"/>
      <path id="Path_77" data-name="Path 77" d="M705.27,780.8l.69.7h0Z" transform="translate(-60.81 -57.51)" fill="#3a5c66"/>
      <path id="Path_78" data-name="Path 78" d="M403.71,542.48A40.39,40.39,0,0,0,398,572.92a.32.32,0,0,0-.49,0c-2.71-11-1.06-21.2,5.56-30.5Z" transform="translate(-60.81 -57.51)" fill="#1d2f36"/>
      <path id="Path_79" data-name="Path 79" d="M418,597.66a10.62,10.62,0,0,1,6.2,5.52l-.17.17a14.7,14.7,0,0,1-6.19-5.55Z" transform="translate(-60.81 -57.51)" fill="#b97f6d"/>
      <path id="Path_80" data-name="Path 80" d="M397.49,572.9a.32.32,0,0,1,.49,0c1.62,2,1.59,4.59,2.36,6.9a11.21,11.21,0,0,1-2.85-6.9Z" transform="translate(-60.81 -57.51)" fill="#b97f6d"/>
      <path id="Path_81" data-name="Path 81" d="M403.71,542.48l-.66-.08a4.66,4.66,0,0,1,3.12-3.41l.08.08a3.77,3.77,0,0,1-2.54,3.41Z" transform="translate(-60.81 -57.51)" fill="#b97f6d"/>
      <path id="Path_82" data-name="Path 82" d="M431.63,610.36a3.8,3.8,0,0,1-3.4-2.89l.13-.13c1.6.36,3,.95,3.5,2.74a1,1,0,0,0-.23.28Z" transform="translate(-60.81 -57.51)" fill="#b97f6d"/>
      <path id="Path_83" data-name="Path 83" d="M416.59,596.3a1.44,1.44,0,0,1,1.44,1.36l-.16.14a1.5,1.5,0,0,1-1.36-1.42Z" transform="translate(-60.81 -57.51)" fill="#b97f6d"/>
      <path id="Path_84" data-name="Path 84" d="M407.55,537.64l.65-1,.36.37-1,.65Z" transform="translate(-60.81 -57.51)" fill="#b97f6d"/>
      <path id="Path_85" data-name="Path 85" d="M425.47,604.73a1.32,1.32,0,0,1-1.41-1.38l.17-.17a1.42,1.42,0,0,1,1.38,1.41Z" transform="translate(-60.81 -57.51)" fill="#b97f6d"/>
      <path id="Path_86" data-name="Path 86" d="M456.52,532.92l-.84-.32a3.581,3.581,0,0,1,.25-.33c.25.15.47.33.7.5Z" transform="translate(-60.81 -57.51)" fill="#b97f6d"/>
      <path id="Path_87" data-name="Path 87" d="M453.83,531.58l.28.12-.38.28-.15-.24Z" transform="translate(-60.81 -57.51)" fill="#b97f6d"/>
      <path id="Path_88" data-name="Path 88" d="M427.54,606.79l-.53-.7.37-.28c.1.28.2.57.29.85Z" transform="translate(-60.81 -57.51)" fill="#b97f6d"/>
      <path id="Path_89" data-name="Path 89" d="M416.51,596.38l-.25-.34.33.26Z" transform="translate(-60.81 -57.51)" fill="#b97f6d"/>
      <path id="Path_90" data-name="Path 90" d="M425.61,604.59l.28.41-.42-.27Z" transform="translate(-60.81 -57.51)" fill="#b97f6d"/>
      <path id="Path_91" data-name="Path 91" d="M428.23,607.47l-.69-.68.13-.13.69.68Z" transform="translate(-60.81 -57.51)" fill="#b97f6d"/>
      <path id="Path_92" data-name="Path 92" d="M407.59,537.68l-.67.72-.08-.08.71-.68Z" transform="translate(-60.81 -57.51)" fill="#b97f6d"/>
      <path id="Path_93" data-name="Path 93" d="M406.17,539l.67-.67.08.08-.67.67Z" transform="translate(-60.81 -57.51)" fill="#b97f6d"/>
      <path id="Path_94" data-name="Path 94" d="M505.59,549.37c1.55-5.8,4.65-8.37,11.27-7.69,7.24.74,13.93-2.28,20-6.38,1.32-.89,2.41-2.15,4-2.56a21.4,21.4,0,0,0,10,2c4.26-.36,7.13-4.21,5.39-7.62-1.09-2.13-.73-3.33.93-4.6s3.45-1.83,5.41-.65a3.09,3.09,0,0,1,.75,4.95c-.6.69-2.54,0-1.91,1.68.48,1.27,1.89,1.58,3.16,1.78,4.45.68,7.65-2.21,7.46-6.68a8.22,8.22,0,0,0-2.39-5.56c-.72-.73-1.6-1.31-.65-2.55,1.35-1.79,2.56-3.67,3.87-5.57,2.31,3.51,2.9,3.9,6.61,4.49,1.92,3.5,2.07,7.5,3,11.26,4.51,17.78,6.34,35.94,7.43,54.2.24,4,.51,8,.59,12s-.13,4.27-4.06,2.67c-5.1-2.07-10.17-4.26-15.14-6.63-7.46-3.56-14.83-7.33-22.23-11,0-.44.1-1.07-.15-1.32-4.45-4.48-9.9-7.37-15.74-9.6a3.109,3.109,0,0,1-1-.19Q518.93,557.6,505.59,549.37Z" transform="translate(-60.81 -57.51)" fill="#fff"/>
      <path id="Path_95" data-name="Path 95" d="M584.39,416.73c-5.73-9.07-13.84-15.49-23.27-20.23-15.53-7.83-32.18-9.64-49.28-8.54-15.29,1-26.4,9-34.93,21.12-2.37,3.38-4.9,6.67-7,10.23-5.92,10.27-6.43,14-4.19,26.31-2.4,0-3.37-1.77-4.24-3.43A25.75,25.75,0,0,1,459.74,423c5.79-20.84,18.26-35.9,39-43.56,15.66-5.79,30.91-3.46,46.13,1.74,8.81,3,17.55,6.26,25.23,11.57,13.48,9.34,21.16,22.53,24.39,38.46-.46.82-.81,1.61.47,2l.51,1a.21.21,0,0,0,0,.34l.06,5.7-.25-.08c-4-1.89-3.85-5.54-3.9-9.09,0-1.51-.06-3-1.12-4.19-2.31-2.69-3.17-6.11-4.55-9.27a1.5,1.5,0,0,0-1.32-.89Z" transform="translate(-60.81 -57.51)" fill="#ed7360"/>
      <path id="Path_96" data-name="Path 96" d="M505.59,549.37q13.35,8.22,26.71,16.42a3.108,3.108,0,0,0,1,.19c.89,1.95,2.93,2.49,4.51,3.52,3.24,2.09,6.78,3.72,9.57,6.49-.57,4-4.5,4.49-7,6.34-2.12,1.58-4.7,2.53-6.71,4.46-1.71,1.65-4.2,2.11-6.1,3.85-1.73,1.59-4.48,1.13-6.67-.44-3.36-2.41-7-4.41-9.72-7.65,1.68-4.15.58-8.34-.08-12.43-.8-5-1.69-10-3.74-14.62a8.06,8.06,0,0,0,0,3.75c1.38,7.74,3.52,15.36,3.81,23.28-4.43.33-6.21-3.59-9.12-5.7-.15-.11-.29-.49-.22-.59,2.73-4-1.32-5.18-3.07-7-7.52-8-15.23-15.82-22.89-23.69-.95-1-1.75-2.16-3.21-2.5.12-1.74,1-2.3,2.47-1.35,3.23,2,6.81,3.4,10.05,5.52,2.35,1.55,5.71,1.85,8.68,2.11C497.74,549.63,501.67,549.37,505.59,549.37Z" transform="translate(-60.81 -57.51)" fill="#ed7360"/>
      <path id="Path_97" data-name="Path 97" d="M562.18,592.78c5.51-1.16,9.28,3.12,13,6.93,10.4,10.54,20.24,21.61,29.93,32.81.49.58,1.55,1.06,1.13,1.94-.55,1.17-1.59.36-2.4.18a32.09,32.09,0,0,0-14.33.11,4.14,4.14,0,0,1-3.57-.49q-23.76-16.12-47.58-32.17c-1.53-1-2.14-1.69,0-2.77C545.3,595.71,555.08,592.89,562.18,592.78Z" transform="translate(-60.81 -57.51)" fill="#1d2f36"/>
      <path id="Path_98" data-name="Path 98" d="M579.56,514.37c-3.71-.59-4.3-1-6.61-4.49-1.31,1.9-2.52,3.78-3.87,5.57-1,1.24-.07,1.82.65,2.55a8.22,8.22,0,0,1,2.39,5.56c.19,4.47-3,7.36-7.46,6.68-1.27-.2-2.68-.51-3.16-1.78-.63-1.66,1.31-1,1.91-1.68a3.09,3.09,0,0,0-.75-4.95c-2-1.18-3.73-.64-5.41.65s-2,2.47-.93,4.6c1.74,3.41-1.13,7.26-5.39,7.62a21.4,21.4,0,0,1-10-2c.11-.33.11-.76.33-1,12-11.44,18-26.53,24.81-41.06,2.84-6,5.48-12.18,7.74-18.44A72.86,72.86,0,0,0,578,453c.3-4,.56-8,.83-12a4.58,4.58,0,0,1,4.21,4.08c.64,3.26,1.24,6.54,2.1,9.75.7,2.59-.58,4.72-1.27,6.95-2.33,7.44-4.81,14.83-7.25,22.24-2.73,8.27.28,16.08,1.87,24C578.94,510.09,579.84,512.13,579.56,514.37Z" transform="translate(-60.81 -57.51)" fill="#1d2f36"/>
      <path id="Path_99" data-name="Path 99" d="M547.37,576c-2.79-2.77-6.33-4.4-9.57-6.49-1.58-1-3.62-1.57-4.51-3.52,5.84,2.23,11.29,5.12,15.74,9.6.25.25.11.88.15,1.32C548.34,577.06,547.89,576.45,547.37,576Z" transform="translate(-60.81 -57.51)" fill="#ececed"/>
      <path id="Path_100" data-name="Path 100" d="M598.21,440.24c-.16,1.83-1.58,1.21-2.61,1.35-.11-.47-.21-.94-.32-1.41l.25.08c.9.79,1.8,0,2.7,0Z" transform="translate(-60.81 -57.51)" fill="#3a5c66"/>
      <path id="Path_101" data-name="Path 101" d="M600.12,496.28a1.29,1.29,0,0,0,.22.63,3.683,3.683,0,0,1-.4-.39Z" transform="translate(-60.81 -57.51)" fill="#fff"/>
      <path id="Path_102" data-name="Path 102" d="M599.27,442c3.56,1.87.63,8.27,6.75,8.42-2.32.31-3.57-1.31-5.37-1.34a1,1,0,0,1-.81-1.51C600.83,445.61,600.3,443.89,599.27,442Z" transform="translate(-60.81 -57.51)" fill="#3a5c66"/>
      <path id="Path_103" data-name="Path 103" d="M540.21,409.15c-4.94,1.63-4-2.75-5-5.17a21.908,21.908,0,0,0,4.92,5.2Z" transform="translate(-60.81 -57.51)" fill="#3a5c66"/>
      <path id="Path_104" data-name="Path 104" d="M443.47,433.33c-.17,1.42-1.16,2.75-.38,4.29.34.66-.1,1.09-.77,1.13-.52,0-1.5,0-1.23-.66.66-1.63-.25-4.13,2.42-4.73Z" transform="translate(-60.81 -57.51)" fill="#3a5c66"/>
      <path id="Path_105" data-name="Path 105" d="M596.83,434.73c1.33,0,2.66.26,2.65,1.89,0,1.28.94,3.06-1.27,3.62h0c.17-2,.25-4-1.39-5.54Z" transform="translate(-60.81 -57.51)" fill="#3a5c66"/>
      <path id="Path_106" data-name="Path 106" d="M443.51,433.36c.9-2.8,3.73-1.75,5.52-2.76h0c-.67,3.27-3.88,1.45-5.53,2.76Z" transform="translate(-60.81 -57.51)" fill="#3a5c66"/>
      <path id="Path_107" data-name="Path 107" d="M455.91,427.11c-1.44,1.2-3.27,1.24-5.73,2.19,1.89-2.64,4-2,5.75-2.16Z" transform="translate(-60.81 -57.51)" fill="#3a5c66"/>
      <path id="Path_108" data-name="Path 108" d="M535.14,401.77c-2,1.52-2.91,1-3.87.29C532.29,401.14,533.25,401.91,535.14,401.77Z" transform="translate(-60.81 -57.51)" fill="#3a5c66"/>
      <path id="Path_109" data-name="Path 109" d="M541.08,411.06c.45.88,1.24,1.65.63,2.64a.91.91,0,0,1-.88.05C539.89,412.75,541.31,412,541.08,411.06Z" transform="translate(-60.81 -57.51)" fill="#3a5c66"/>
      <path id="Path_110" data-name="Path 110" d="M605.86,452.47c1,.81.19,2.74,2.08,2.58C605.55,455.59,605.84,454.09,605.86,452.47Z" transform="translate(-60.81 -57.51)" fill="#3a5c66"/>
      <path id="Path_111" data-name="Path 111" d="M594.93,433.26c-1.28-.41-.93-1.2-.47-2C594.61,431.91,594.77,432.58,594.93,433.26Z" transform="translate(-60.81 -57.51)" fill="#b97f6d"/>
      <path id="Path_112" data-name="Path 112" d="M449,430.6c.08-.32.16-.64.23-1l.29.17-.55.75Z" transform="translate(-60.81 -57.51)" fill="#3a5c66"/>
      <path id="Path_113" data-name="Path 113" d="M455.93,427.14l.73-.51c.16.8-.52.29-.75.48Z" transform="translate(-60.81 -57.51)" fill="#3a5c66"/>
      <path id="Path_114" data-name="Path 114" d="M595.47,434.56a.21.21,0,0,1,0-.34,1.09,1.09,0,0,1,1.39.51h0Z" transform="translate(-60.81 -57.51)" fill="#3a5c66"/>
      <path id="Path_115" data-name="Path 115" d="M540.18,409.18l.3.26c-.06,0-.13,0-.16-.06a.61.61,0,0,1-.11-.23Z" transform="translate(-60.81 -57.51)" fill="#3a5c66"/>
      <path id="Path_116" data-name="Path 116" d="M541.43,461.86a165.864,165.864,0,0,1-.87,22.56c-.27,3.08-.41,6.18-.69,9.26-.37,4.07-2.27,5.29-6,3.72-1.86-.78-4-1.06-5.95-3.32l6.36,2c2.1.64,3.17.06,3.37-2.33.8-9.59,1.72-19.17,2.61-28.75A4.23,4.23,0,0,1,541.43,461.86Z" transform="translate(-60.81 -57.51)" fill="#1d2f36"/>
      <path id="Path_117" data-name="Path 117" d="M525.33,450.49c-3.52-.63-7.47-1-10.31-4.15-.44-.49-1.09-1-.64-1.77a1.53,1.53,0,0,1,1.85-.53,93.309,93.309,0,0,0,15.58,2.5c.73.07,1.36.39,1.4,1.23a1.45,1.45,0,0,1-1.18,1.48A20.169,20.169,0,0,1,525.33,450.49Z" transform="translate(-60.81 -57.51)" fill="#1d2f36"/>
      <path id="Path_118" data-name="Path 118" d="M551.89,482.47c.37-2,1.56-3.52,4-3.45a3.86,3.86,0,0,1,4.08,4.11,3.48,3.48,0,0,1-4,3.72C553.65,486.67,551.86,485.57,551.89,482.47Z" transform="translate(-60.81 -57.51)" fill="#1d2f36"/>
      <path id="Path_119" data-name="Path 119" d="M518.8,470.67c-1.42.07-2.86-1.39-3-3.69-.12-2.54,1.39-4,4.06-4,2.48,0,3.82,1.31,3.85,3.82S522.41,470.55,518.8,470.67Z" transform="translate(-60.81 -57.51)" fill="#1d2f36"/>
      <path id="Path_120" data-name="Path 120" d="M508.51,495.59c8.17-2.92,15.87,6.15,12,12.5C519,501.26,514.89,497.35,508.51,495.59Z" transform="translate(-60.81 -57.51)" fill="#1d2f36"/>
      <path id="Path_121" data-name="Path 121" d="M527.2,459.7c-3.83-4.06-8.16-6.55-13.87-6.6,2.31-2.15,5.71-2.41,8.77-1C525.77,453.77,527.42,456,527.2,459.7Z" transform="translate(-60.81 -57.51)" fill="#1d2f36"/>
      <path id="Path_122" data-name="Path 122" d="M502.75,476.08c-1.4,0-2.28-1-2.36-2.72-.09-1.95,3.65-4.52,6.47-4.57.87,0,1.52,0,1.55,1.23C508.46,472.29,505.36,476,502.75,476.08Z" transform="translate(-60.81 -57.51)" fill="#ececed"/>
      <path id="Path_123" data-name="Path 123" d="M565.56,477.46c-3.88-5.22-8.64-7-14.69-7.49,3.81-2.76,7-1.9,10-.39C563.41,470.91,565.74,472.81,565.56,477.46Z" transform="translate(-60.81 -57.51)" fill="#1d2f36"/>
      <path id="Path_124" data-name="Path 124" d="M562,494.37c.1,1.73-.73,2.65-2.14,2.72a1.91,1.91,0,0,1-2-2.52c.33-1.55.36-4.05,2.28-4C561.64,490.63,561.62,493.06,562,494.37Z" transform="translate(-60.81 -57.51)" fill="#ececed"/>
      <path id="Path_125" data-name="Path 125" d="M508,464.41c-1.72,2.41-2.94,3.39-4.86,2.57-.3-.12-.68-.88-.57-1.05C503.76,464.11,505.55,465,508,464.41Z" transform="translate(-60.81 -57.51)" fill="#ececed"/>
      <path id="Path_126" data-name="Path 126" d="M722.3,847c-3,0-3.62-1.92-3.76-4.29-.16-2.85,1.89-3.49,4-3.59,2.48-.11,3.84,1.4,3.83,3.85S724.88,846.88,722.3,847Z" transform="translate(-60.81 -57.51)" fill="#ececed"/>
      <path id="Path_127" data-name="Path 127" d="M743.06,830.69c-1.88-4.93-.69-8.93,3.2-10.59C744.19,823.66,743.65,827.22,743.06,830.69Z" transform="translate(-60.81 -57.51)" fill="#1d2f36"/>
      <path id="Path_128" data-name="Path 128" d="M735.81,811.82l.48,1.23c-1.16,1.08-2.38,2.11-3.48,3.25s-1.88,2.24-2.92,3.48C729.72,816.14,731.61,813.68,735.81,811.82Z" transform="translate(-60.81 -57.51)" fill="#1d2f36"/>
      <path id="Path_129" data-name="Path 129" d="M745.09,803.8c-.67,1.6-2.8,2-3.22,3.76-.74,1.42-2.71,1.94-2.82,3.83-.47-.27-1.13-.38-1.17-1.09C737.66,807.19,741.7,803.56,745.09,803.8Z" transform="translate(-60.81 -57.51)" fill="#1d2f36"/>
      <path id="Path_130" data-name="Path 130" d="M754.47,819.61c.42-1.12.84-2.24,1.25-3.36,1.52,3-.55,6.55,1.94,9.41C754.17,824.63,754.32,822.12,754.47,819.61Z" transform="translate(-60.81 -57.51)" fill="#1d2f36"/>
      <path id="Path_131" data-name="Path 131" d="M750.25,815.88c1.57-.79,1.23-4.43,3.29-3.41,1.86.92-1.23,2.83-.86,4.6.1.48-.27,1.06-.42,1.6C749.14,819.51,750.7,817,750.25,815.88Z" transform="translate(-60.81 -57.51)" fill="#1d2f36"/>
      <path id="Path_132" data-name="Path 132" d="M595.47,434.56l1.37.16c1.64,1.55,1.56,3.53,1.39,5.54-.9,0-1.8.79-2.7,0Z" transform="translate(-60.81 -57.51)" fill="#1d2f36"/>
      <path id="Path_133" data-name="Path 133" d="M511.17,582.53c-.29-7.92-2.43-15.54-3.81-23.28a8.06,8.06,0,0,1,0-3.75c2.05,4.67,2.94,9.66,3.74,14.62.66,4.09,1.76,8.28.08,12.43Z" transform="translate(-60.81 -57.51)" fill="#b97f6d"/>
    </g>
  </g>
</svg>
