<svg xmlns="http://www.w3.org/2000/svg" xmlns:xlink="http://www.w3.org/1999/xlink" width="456" height="450" viewBox="0 0 456 450">
  <defs>
    <clipPath id="clip-Web_1920_1">
      <rect width="456" height="450"/>
    </clipPath>
  </defs>
  <g id="Web_1920_1" data-name="Web 1920 – 1" clip-path="url(#clip-Web_1920_1)">
    <rect width="456" height="450" fill="#fff"/>
    <g id="_2365_1_" data-name="2365 (1)" transform="translate(-55.265 14)">
      <path id="Path_2" data-name="Path 2" d="M524.5,499.25a3.55,3.55,0,0,0,1.45,1,22.209,22.209,0,0,1,5.62,4,6.449,6.449,0,0,1,1.12,1.38c-1.12.61-2.28,1.16-3.37,1.84-4.4,2.71-9,5.09-13.44,7.7S507,520.42,502.49,523c-3.69,2.13-7.44,4.16-11.1,6.36-4,2.39-8.06,4.65-12.09,7s-8.34,4.84-12.5,7.27c-1.8,1-3.59,2.14-5.38,3.21a.91.91,0,0,1-.73-.45,10.809,10.809,0,0,0-3.25-3c-2-1.35-4.18-2.49-6.29-3.71l-7.65-4.43-6.87-4-9-5.19c-2.33-1.35-4.64-2.72-7-4.07-3-1.74-6-3.46-9-5.19-2.33-1.35-4.65-2.72-7-4.07l-9-5.19L387,502.41c-3-1.73-6-3.45-9-5.19l-8.75-5.08-9.08-5.27-9.85-5.74-9.2-5.33c-1.85-1.07-3.66-2.25-5.95-2,0-.54.41-.69.78-.9l6.1-3.52q3.72-2.14,7.45-4.28l7.56-4.33,7.76-4.48,7.54-4.37,7.44-4.28,7.57-4.33,7.53-4.37c2.62-1.52,5.23-3.06,7.88-4.54,1.29-.72,2.44-1.79,4.06-1.77a7.6,7.6,0,0,1,4.36,1.12l4,2.26a1.37,1.37,0,0,0,.29.25q13.71,8,27.45,15.9a2.62,2.62,0,0,0,1.27.57,29.542,29.542,0,0,0,4.46,2.58c.1.33.42.4.66.54l8,4.65c-.23.82-.83,1.62-.19,2.51a60.665,60.665,0,0,0-3.47,7.56c-1.51,4.08-2.65,8.21-2,12.63a11.38,11.38,0,0,0,3.84,7.33,20.84,20.84,0,0,0,11.34,4.61,2,2,0,0,1,.68.75c3.55,4.67,8.16,6.77,14,5.67a23,23,0,0,0,11.34-5.64,4.31,4.31,0,0,1,1.74-1,79.363,79.363,0,0,0,8.28-3.11c1.76-.75,3.46-1.62,5.26-2.58,0,1.09.9,1.25,1.53,1.62,4.17,2.45,8.35,4.89,12.55,7.28A6.79,6.79,0,0,0,524.5,499.25Z" transform="translate(-210.7 -203.87)" fill="#4b57aa"/>
      <path id="Path_3" data-name="Path 3" d="M354.51,351.92a16.5,16.5,0,0,1,2.12,2.73c9.34,13.63,18.5,27.37,27.73,41.07q8.235,12.24,16.56,24.44c.14.21.25.44.38.66-.4.24-.8.5-1.2.73l-6,3.46-7.44,4.28-7.56,4.33c-3.51,2-7,4.09-10.51,6.11-3.15,1.82-6.32,3.59-9.46,5.4-3.51,2-7,4.09-10.51,6.12s-7.19,4.12-10.78,6.18L328.21,463a4.65,4.65,0,0,1-1.21-1.47c-3.14-4.57-6.23-9.18-9.35-13.76-2.84-4.17-5.61-8.37-8.43-12.55-6.35-9.41-12.63-18.88-19-28.25-2.58-3.77-5.16-7.53-7.71-11.32-.35-.52-1-.83-1.06-1.56l3.68-2.09,7.54-4.36,9-5.18,6.22-3.58,8.87-5.12,7.54-4.36,7.21-4.17,6.21-3.58,8.88-5.12Z" transform="translate(-210.7 -203.87)" fill="#4b57aa"/>
      <path id="Path_4" data-name="Path 4" d="M281.41,394.11c0,.73.71,1,1.06,1.56,2.55,3.79,5.13,7.55,7.71,11.32,6.41,9.37,12.69,18.84,19,28.25,2.82,4.18,5.59,8.38,8.43,12.55,3.12,4.58,6.21,9.19,9.35,13.76a4.65,4.65,0,0,0,1.21,1.47c0,.32.24.53.38.79.68,1.18,1.64,2.17,2.26,3.39a23.851,23.851,0,0,1,2.61,6.8,5.9,5.9,0,0,1,1.72-.21c2.29-.24,4.1.94,5.95,2l9.2,5.33,9.85,5.74,9.08,5.27,8.75,5.08c3,1.74,6,3.46,9,5.19l8.75,5.09,9,5.19c2.32,1.35,4.64,2.72,7,4.07,3,1.73,6,3.45,9,5.19,2.33,1.35,4.64,2.72,7,4.07l9,5.19,6.87,4,7.65,4.43c2.11,1.22,4.26,2.36,6.29,3.71a10.811,10.811,0,0,1,3.25,3,.91.91,0,0,0,.73.45,2.51,2.51,0,0,0,.52,1.15,25.36,25.36,0,0,1,2.84,5.28,23.3,23.3,0,0,1,1.8,8.83c-.05,1.63,0,3.26,0,4.88,0,.41-.14.87.27,1.2-.28.34-.5.07-.75-.06a27.871,27.871,0,0,0-3.18-1.72c-.39-.26-.78-.53-1.18-.77l-117-67.81-1-.56L338,493.89c-1.47-.86-2.93-1.74-4.4-2.59a2.83,2.83,0,0,0-1.4-.56,7,7,0,0,0-2.11-1.41,3.67,3.67,0,0,1-1.19-1.13q-31.22-46.54-62.47-93.07a1.86,1.86,0,0,1-.06-2.39A10.15,10.15,0,0,1,270,389a1.908,1.908,0,0,0,.37-.33,3.45,3.45,0,0,0,1-.12,4.33,4.33,0,0,1,2.26,0,10.15,10.15,0,0,1,4.72,2.63C279.41,392.15,280.29,393.26,281.41,394.11Z" transform="translate(-210.7 -203.87)" fill="#2a408c"/>
      <path id="Path_5" data-name="Path 5" d="M646.06,310.19c1.38-1.13,2.6-.76,4,.1,4.55,2.72,9.2,5.28,13.82,7.91l13.65,7.8,14.4,8.19,17,9.65a.82.82,0,0,1,.18.19,2.1,2.1,0,0,1,0,.25,1,1,0,0,0-.25,0c-2.4,1.38-4.8,2.76-7.19,4.17a14.683,14.683,0,0,0-3,2,23.57,23.57,0,0,0-5,8,48.457,48.457,0,0,0-3,10.15,53.723,53.723,0,0,0-1.12,10.13v18.48c-3.12,2.09-6.45,3.82-9.67,5.73-3.71,2.18-7.52,4.18-11.19,6.44a2.67,2.67,0,0,1-3.23-.09c-2.81-1.69-5.69-3.26-8.55-4.88-.31-1.71-.61-3.43-1-5.14-.91-4.67-2-9.31-2.24-14.1a9.57,9.57,0,0,0-.39-3.14,79,79,0,0,1,.31-9.49,32.418,32.418,0,0,0-.08-7.17,13.28,13.28,0,0,0-4.29-8.38,28.493,28.493,0,0,0-2.56-1.71,4.36,4.36,0,0,0-.72-1.21,28.751,28.751,0,0,0-5.8-6,26.42,26.42,0,0,0-5.15-3.34c-.79-1.07-1.29-2.32-2.17-3.33l.66-1.09A26.4,26.4,0,0,0,637.3,330a13.061,13.061,0,0,0,4.8,1.24c2.78.09,4.84-1.2,5.61-3.55a7.13,7.13,0,0,0-2.62-8.07c-.2-.15-.46-.23-.56-.49.1-.36.44-.51.67-.75a9.24,9.24,0,0,0,2-2.79,4.27,4.27,0,0,0-.52-4.58Z" transform="translate(-210.7 -203.87)" fill="#8eaaef"/>
      <path id="Path_6" data-name="Path 6" d="M701.82,454.74c-.5-.24-.81.17-1.15.37q-7.9,4.53-15.78,9.1l-29.22,16.86c-.95.56-1.89,1.11-2.9.12a12.778,12.778,0,0,1-.29-2.15v-47a5.9,5.9,0,0,1,3.18-5.45c1.88-1.1,3.79-2.14,5.67-3.23,4.18-2.42,8.34-4.86,12.51-7.27,3.51-2,7-4,10.55-6.06q7.26-4.18,14.51-8.4c3.1-1.8,6.18-3.65,9.31-5.39a16.4,16.4,0,0,1,3.75-1.92,1.85,1.85,0,0,1,1.5,2v46.52a9,9,0,0,1-1.47,5.58c-.89.56-1.78,1.1-2.66,1.66a14.613,14.613,0,0,0-2.13,1.33c-1.76.76-3.31,1.89-5,2.77a.87.87,0,0,0-.38.56Z" transform="translate(-210.7 -203.87)" fill="#677dce"/>
      <path id="Path_7" data-name="Path 7" d="M391.53,382.83c0-4.1.5-8.09,3-11.54a29.841,29.841,0,0,1,6.57-6.56,50.54,50.54,0,0,1,14.8-7.15A70.666,70.666,0,0,1,427.22,355c2.36-.34,4.72-.58,7.09-.81a96.818,96.818,0,0,1,11.92-.13,69.4,69.4,0,0,1,8.35.9,76.441,76.441,0,0,1,13.75,3.36A53.18,53.18,0,0,1,479.91,364a1.53,1.53,0,0,1,.56.51c-.46,0-.93-.1-1.4-.13-4.08-.34-7.4.84-9.48,4.64a26.089,26.089,0,0,0-2.48,5.75,58,58,0,0,1-6.24,14.41,42.422,42.422,0,0,0-4.13,9.77c-.62,2.13-.94,4.32-1.43,6.48-1.84,0-3.64.41-5.46.58s-3.56.36-5.34.38a91.238,91.238,0,0,1-9.35-.14c-2.24-.2-4.5-.35-6.73-.64a67.067,67.067,0,0,1-8.75-1.75c-7.24-1.92-14.13-4.56-20-9.37-3.65-3-6.57-6.46-7.67-11.18C391.94,383,391.84,382.84,391.53,382.83Z" transform="translate(-210.7 -203.87)" fill="#ffe8de"/>
      <path id="Path_8" data-name="Path 8" d="M455.31,405.44c.49-2.16.81-4.35,1.43-6.48a42.42,42.42,0,0,1,4.13-9.77,58,58,0,0,0,6.24-14.41,26.088,26.088,0,0,1,2.48-5.75c2.08-3.8,5.4-5,9.48-4.64a13,13,0,0,1,1.4.13c.86.25,1.73.48,2.58.75a1.58,1.58,0,0,0,1.22-.16,8.64,8.64,0,0,1,9.79,1.33c3.4,2.79,5.25,6.53,6.45,10.68a2.61,2.61,0,0,1-.85,3.14c-.85.7-1.68,1.45-2.53,2.15a9.14,9.14,0,0,1-3,1.39c-1.87.24-2.65,1.44-3.13,3-.1.32-.22.64-.33,1a6.92,6.92,0,0,0,.92,6.57A45.458,45.458,0,0,0,496.4,400l3.33,4.14a27.73,27.73,0,0,1,2.92,6.18,12.59,12.59,0,0,1-.32,7.39,6.931,6.931,0,0,1-.77,1.6c-1.73-1.25-3.2-2.84-5.07-4.08a15.339,15.339,0,0,1-1.8,5.37c-2,3.39-4.62,5.83-8.77,6h-2.31a.18.18,0,0,0-.26-.11,8.94,8.94,0,0,1-6-3.2,15.379,15.379,0,0,0-2.83,3.41,6.33,6.33,0,0,0-.56,5.43,16.526,16.526,0,0,0,1.23,2.67c.13.23.44.44.17.84a11.46,11.46,0,0,1-9.18-4.26,12.22,12.22,0,0,1-2.6-5.51c-.09-.43-.13-.84-.65-1a12.28,12.28,0,0,1-2.45-1.37,24,24,0,0,1-3.07-3.59c-.56-1.26-1.11-2.53-1.67-3.8a26,26,0,0,1-.76-4.88Q455.14,408.39,455.31,405.44Z" transform="translate(-210.7 -203.87)" fill="#2c1922"/>
      <path id="Path_9" data-name="Path 9" d="M627,474a133.792,133.792,0,0,0,.7,14.43,4.269,4.269,0,0,1,0,1.78,4.566,4.566,0,0,0-.49.38,5.48,5.48,0,0,1-5.15,1.48,18.761,18.761,0,0,1-3.56-1.31,3.549,3.549,0,0,1-.55-1.28q-4.31-12.79-9.21-25.37c-.15-.4-.35-.78-.52-1.16a2,2,0,0,0-.11-.5c-1.8-4.48-3.57-9-5.72-13.3a10.32,10.32,0,0,1-1-2.9,8.2,8.2,0,0,1,2-5.75,69.44,69.44,0,0,0,4.28-6.05c.19-.27.46-.52.37-.91a15.788,15.788,0,0,0,1.33-1.51,68.325,68.325,0,0,1,6.34-8.14c1.5-1.73,3.14-3.36,4.74-5a2.65,2.65,0,0,0,.84-1.52c.19-1.5.45-3,.69-4.51a8.559,8.559,0,0,1,1.12-.23c2.46-.19,4.88-.62,7.31-1a20.769,20.769,0,0,1,4.53-.61,11,11,0,0,0,3.79-.18c6.46-.2,12.61-1.47,17.93-5.43a38,38,0,0,1-.13,10,1.63,1.63,0,0,1-.93,1.38c-2.73,1.53-5.38,3.18-8.14,4.65a6.46,6.46,0,0,0-3.59,6.18c0,1.62,0,3.25,0,4.88,0,.46,0,.86-.58,1a3,3,0,0,0-1.77,1.57c-.39.61-.83,1.2-1.25,1.79-1.58,2.24-3.45,4.24-5.23,6.33-2.08,2-4.1,4-6.33,5.8-1.53,1.23-3.08,2.45-4.7,3.56a.69.69,0,0,0-.29,1.05,30.747,30.747,0,0,1,2.2,7.34A110.93,110.93,0,0,1,627,474Z" transform="translate(-210.7 -203.87)" fill="#3a2933"/>
      <path id="Path_10" data-name="Path 10" d="M466.85,568.17c-.41-.33-.27-.79-.27-1.2,0-1.62-.05-3.25,0-4.88a23.3,23.3,0,0,0-1.8-8.83,25.36,25.36,0,0,0-2.84-5.28,2.51,2.51,0,0,1-.52-1.15c1.79-1.07,3.58-2.16,5.38-3.21q6.24-3.64,12.5-7.27c4-2.33,8.1-4.59,12.09-7,3.66-2.2,7.41-4.23,11.1-6.36,4.48-2.59,8.93-5.2,13.39-7.81s9-5,13.44-7.7c1.09-.68,2.25-1.23,3.37-1.84a23.22,23.22,0,0,1,4.55,8.4,20.939,20.939,0,0,1,1.12,7.2v5.27a1.2,1.2,0,0,1-.7,1.22c-.76.39-1.47.87-2.21,1.31a59.609,59.609,0,0,0-6.67,3.83,20.4,20.4,0,0,0-3.44,1.86,7.52,7.52,0,0,0-2.32,1.5,80.59,80.59,0,0,0-7.68,4.35c-.42.21-.85.39-1.26.62l-37.5,21.49a2.84,2.84,0,0,0-1.13.81,1.538,1.538,0,0,0-.5.08c-2.1,1.29-4.33,2.35-6.37,3.75Z" transform="translate(-210.7 -203.87)" fill="#3d4d99"/>
      <path id="Path_11" data-name="Path 11" d="M524.5,499.25a6.791,6.791,0,0,1-2.26-1.14c-4.2-2.39-8.38-4.83-12.55-7.28-.63-.37-1.51-.53-1.53-1.62a55.332,55.332,0,0,1-5.26,2.58,79.35,79.35,0,0,1-8.28,3.11,4.31,4.31,0,0,0-1.74,1,23,23,0,0,1-11.34,5.64c-5.87,1.1-10.48-1-14-5.67a2,2,0,0,0-.68-.75,24.06,24.06,0,0,0-1.51-3.21,13.16,13.16,0,0,1-.94-7.24,133.778,133.778,0,0,1,3.05-13.25c.94.28,1.87.59,2.82.82a44.519,44.519,0,0,0,13.66,1,19.1,19.1,0,0,0,5.62-1.22,9.259,9.259,0,0,0,3.64-2.35,2.56,2.56,0,0,0,.93-2,120,120,0,0,1,17.47-2.82,46.816,46.816,0,0,1,7.94.23,19.293,19.293,0,0,1,2.51.53,7.34,7.34,0,0,1,5.75,7,9,9,0,0,1-.47,4,13.683,13.683,0,0,0-.48,3.29c-.55,4.76-1.08,9.52-1.63,14.28C525,495.86,524.73,497.55,524.5,499.25Z" transform="translate(-210.7 -203.87)" fill="#3a2933"/>
      <path id="Path_12" data-name="Path 12" d="M503.65,361.12c.22-.81.4-1.55.61-2.26,1-3.23,1.95-6.46,3-9.67a1.32,1.32,0,0,0-.36-1.58,31,31,0,0,1-3.6-3.82,18.11,18.11,0,0,1-3.56-9.57,17.579,17.579,0,0,1,1.84-9.26,21.59,21.59,0,0,1,8.07-8.54,27.19,27.19,0,0,1,9.38-3.66,12.251,12.251,0,0,1,3.41-.4c.83.08,1.6-.37,2.42-.25,1.85.28,3.74.2,5.58.57a28.46,28.46,0,0,1,11.22,4.8,19.65,19.65,0,0,1,7.89,11.2c1.52,5.86.07,11.11-3.62,15.84a23.909,23.909,0,0,1-9.12,6.88,28.1,28.1,0,0,1-7.34,2.11,42.1,42.1,0,0,1-7.69.19,11.16,11.16,0,0,1-3.63-.65,2.6,2.6,0,0,0-2.59.42c-3.51,2.43-7.1,4.75-10.65,7.13A2.17,2.17,0,0,1,503.65,361.12Zm20.63-39.5a6.41,6.41,0,0,1,4.71,1.75,4.82,4.82,0,0,1-.79,7.71,10.34,10.34,0,0,1-2.58,1.1,21.259,21.259,0,0,0-2.9,1,5.66,5.66,0,0,0-3,3.49c-.9,2.85,1.46,6.46,4.37,6.69a1.128,1.128,0,0,0,.74-2.06,5.739,5.739,0,0,1-1.15-.82c-1.81-1.63-1.72-3.72.2-5.24a5,5,0,0,1,1.61-.78c1.1-.34,2.22-.65,3.28-1.09a6.17,6.17,0,0,0,3.83-4.21c.87-3.26-.64-7.77-4.32-9.18a19.11,19.11,0,0,0-2.41-.84,8.28,8.28,0,0,0-7.91,1.81,4.72,4.72,0,0,0-1.61,3.26,3.48,3.48,0,0,0,2.14,3.48,1.15,1.15,0,0,0,1.7-.94,1.18,1.18,0,0,0-.4-.91c-1.44-1.52-.41-3.2,1.13-3.71a11.59,11.59,0,0,1,3.36-.51Zm.44,24.72a2.14,2.14,0,1,0,1.967,2.163A2.14,2.14,0,0,0,524.72,346.34Z" transform="translate(-210.7 -203.87)" fill="#ffe8de"/>
      <path id="Path_13" data-name="Path 13" d="M494.1,467.63a2.56,2.56,0,0,1-.93,2,9.26,9.26,0,0,1-3.64,2.35,19.1,19.1,0,0,1-5.62,1.22,44.519,44.519,0,0,1-13.66-1c-.95-.23-1.88-.54-2.82-.82h0a.26.26,0,0,0-.3-.19,22.26,22.26,0,0,1-10-8.25c-.64-.89,0-1.69.19-2.51a13.679,13.679,0,0,0,1.66-3.28,37.362,37.362,0,0,0,2.46-6.54,15.689,15.689,0,0,0,1.1-3.85,16.81,16.81,0,0,0,.62-9.31c-.6-2.56-1.45-5.07-2.19-7.59a3.47,3.47,0,0,0-.63-2.1c.19-.14.33-.33.24-.54-.37-.85-.07-1.78-.41-2.63a.87.87,0,0,1,.25-1,12.279,12.279,0,0,0,2.45,1.37c.52.16.56.57.65,1a12.22,12.22,0,0,0,2.6,5.51,11.46,11.46,0,0,0,9.18,4.26c.27-.4,0-.61-.17-.84a16.528,16.528,0,0,1-1.23-2.67,6.33,6.33,0,0,1,.56-5.43,15.379,15.379,0,0,1,2.83-3.41,8.94,8.94,0,0,0,6,3.2.22.22,0,0,0,.26.11h0c.11,1.13.24,2.27.42,3.4a26.53,26.53,0,0,0,4,10.65,36.449,36.449,0,0,0,5.83,6.91.6.6,0,0,1,.19.46,19.63,19.63,0,0,0-1.29,6.42,1.84,1.84,0,0,0,.09.87,3.379,3.379,0,0,0-.11,1.14,51,51,0,0,0,.67,7.6,18,18,0,0,0,.75,3.49Z" transform="translate(-210.7 -203.87)" fill="#f94146"/>
      <path id="Path_14" data-name="Path 14" d="M622.15,412.89c-.24,1.51-.5,3-.69,4.51a2.651,2.651,0,0,1-.84,1.52c-1.6,1.65-3.24,3.28-4.74,5a68.327,68.327,0,0,0-6.34,8.14,17.906,17.906,0,0,1-1.33,1.51c-2.7,1.45-5.37,3-8.14,4.29a.84.84,0,0,0-.55,1.1,53,53,0,0,1,1.12,7.32c-.17,1.61.18,3.21.05,4.82-.19,2.5-.26,5-.38,7.5l-1.59,16.25a10.86,10.86,0,0,1-9.18,1.78c-1.79-8-3.94-16-6.29-23.88-.51-1.71-1-3.44-1.45-5.16v-.64q-1.32-6.76-2.63-13.53a2.365,2.365,0,0,0,0-.38,7.25,7.25,0,0,1,2.78-7c1.93-1.63,3.86-3.24,5.87-4.77a49.266,49.266,0,0,0,4.16-3.19,3.8,3.8,0,0,0,1.15-.79c2.19-1.76,4.35-3.55,6.62-5.21a3.111,3.111,0,0,1,1.15.54c3,1.71,6.06,3.43,9.1,5.13a2.639,2.639,0,0,0,1.13.54c.43.25.6-.17.83-.35,1.59-1.22,1.58-1.23,1-3a25.51,25.51,0,0,0,5.91-1.85C620,413.16,621,412.76,622.15,412.89Z" transform="translate(-210.7 -203.87)" fill="#2c1922"/>
      <path id="Path_15" data-name="Path 15" d="M588.75,318.45a7.863,7.863,0,0,1-1.81-1.11c-3.11-2-6.19-4.11-9.29-6.17a10.59,10.59,0,0,1-1-.61,1.61,1.61,0,0,0-1.65-.23,15.84,15.84,0,0,1-4.78.73c-.66,0-1.25.28-1.9.27-1.57,0-3.13-.28-4.7-.42a24,24,0,0,1-3.13-.59,24.64,24.64,0,0,1-10.08-4.83c-4.07-3.29-7-7.41-7.68-12.75a17.17,17.17,0,0,1,2.53-11.66c3.62-5.68,8.91-8.92,15.29-10.63a29.5,29.5,0,0,1,10.57-.7,26.6,26.6,0,0,1,14.19,5.65,19.86,19.86,0,0,1,7.31,11.11,17.1,17.1,0,0,1-.78,10.29,20.5,20.5,0,0,1-5.9,8.1,1.29,1.29,0,0,0-.48,1.54c.7,2.28,1.35,4.58,2,6.87.42,1.38.86,2.77,1.3,4.15C588.93,317.78,589.09,318.1,588.75,318.45Zm-36.32-31.16c.07.52.11.94.18,1.36a11.78,11.78,0,0,0,3.46,6.05,39.771,39.771,0,0,0,11,7.66,1.57,1.57,0,0,0,1.57,0,42.82,42.82,0,0,0,9.92-6.59,15.3,15.3,0,0,0,3.88-5.07,7.47,7.47,0,0,0,.65-4.5,9.05,9.05,0,0,0-2.43-4.58,6.1,6.1,0,0,0-8.24-1.16,16.158,16.158,0,0,0-3.88,3.35c-.65.74-.67.84-1.43,0a14.91,14.91,0,0,0-4.22-3.52,5.75,5.75,0,0,0-5.43-.41,8.91,8.91,0,0,0-5.03,7.41Z" transform="translate(-210.7 -203.87)" fill="#ffe8de"/>
      <path id="Path_16" data-name="Path 16" d="M635.22,443.19c1.78-2.09,3.65-4.09,5.23-6.33.42-.59.86-1.18,1.25-1.79a3,3,0,0,1,1.77-1.57c.55-.13.58-.53.58-1v-4.88a6.46,6.46,0,0,1,3.59-6.18c2.76-1.47,5.41-3.12,8.14-4.65a1.63,1.63,0,0,0,.93-1.38,38,38,0,0,0,.13-10c0-.34,0-.69,0-1,2.86,1.62,5.74,3.19,8.55,4.88a2.67,2.67,0,0,0,3.23.09c3.67-2.26,7.48-4.26,11.19-6.44,3.22-1.91,6.55-3.64,9.67-5.73a.689.689,0,0,0,.25,0q4.46-2.53,8.89-5.1c1.22-.7,2.43-1.41,3.64-2.13a1.91,1.91,0,0,1,2.36,0,29.814,29.814,0,0,0,3.09,1.82,2.48,2.48,0,0,0,1.55.54c.07.44.44.58.75.79a11.613,11.613,0,0,1,1.92,1.23,16.4,16.4,0,0,0-3.75,1.92c-3.13,1.74-6.21,3.59-9.31,5.39q-7.24,4.2-14.51,8.4c-3.51,2-7,4-10.55,6.06-4.17,2.41-8.33,4.85-12.51,7.27-1.88,1.09-3.79,2.13-5.67,3.23a5.9,5.9,0,0,0-3.18,5.45v47a12.773,12.773,0,0,0,.29,2.15c-.71-.18-1.21-.79-1.94-.95a36.626,36.626,0,0,0-5.28-3.09,1.29,1.29,0,0,0-.77-.49,4.42,4.42,0,0,1-.78-2.77v-25a.89.89,0,0,0-.52-.92C640.73,446.38,638,444.78,635.22,443.19Z" transform="translate(-210.7 -203.87)" fill="#7e97e0"/>
      <path id="Path_17" data-name="Path 17" d="M335.18,473.79a5.9,5.9,0,0,0-1.72.21,23.85,23.85,0,0,0-2.61-6.8c-.62-1.22-1.58-2.21-2.26-3.39-.14-.26-.37-.47-.38-.79l9.64-5.59c3.59-2.06,7.2-4.1,10.78-6.18s7-4.09,10.51-6.12c3.14-1.81,6.31-3.58,9.46-5.4,3.51-2,7-4.08,10.51-6.11l7.56-4.33,7.44-4.28,6-3.46c.4-.23.8-.49,1.2-.73a24.76,24.76,0,0,1,5.55,11.8c-1.62,0-2.77,1.05-4.06,1.77-2.65,1.48-5.26,3-7.88,4.54l-7.53,4.37-7.57,4.33-7.44,4.28-7.54,4.37-7.76,4.48-7.56,4.33q-3.74,2.13-7.45,4.28l-6.1,3.52C335.59,473.1,335.16,473.25,335.18,473.79Z" transform="translate(-210.7 -203.87)" fill="#3d4d99"/>
      <path id="Path_18" data-name="Path 18" d="M281.41,394.11c-1.12-.85-2-2-3-2.91a10.15,10.15,0,0,0-4.72-2.63,4.33,4.33,0,0,0-2.26,0,3.452,3.452,0,0,1-1,.12c-.05-.6.51-.62.84-.81L289,377.62q26.69-15.4,53.36-30.82a6.51,6.51,0,0,1,4.8-.6,8.31,8.31,0,0,1,3.52,1.79,17.17,17.17,0,0,1,3.82,3.93l-8,4.63-8.88,5.12-6.21,3.58-7.21,4.17-7.54,4.36-8.87,5.12-6.22,3.58-9,5.18L285.09,392Z" transform="translate(-210.7 -203.87)" fill="#3d4d99"/>
      <path id="Path_19" data-name="Path 19" d="M709.29,392.3a2.48,2.48,0,0,1-1.55-.54,29.8,29.8,0,0,1-3.09-1.82,1.91,1.91,0,0,0-2.36,0c-1.21.72-2.42,1.43-3.64,2.13q-4.44,2.56-8.89,5.1a.689.689,0,0,1-.25,0V378.69a53.723,53.723,0,0,1,1.12-10.13,48.458,48.458,0,0,1,3-10.15,23.57,23.57,0,0,1,5-8,14.683,14.683,0,0,1,3-2c2.39-1.41,4.79-2.79,7.19-4.17a1,1,0,0,1,.25,0h.22v46.91A11,11,0,0,1,709.29,392.3Z" transform="translate(-210.7 -203.87)" fill="#677dce"/>
      <path id="Path_20" data-name="Path 20" d="M566.09,360.86l12.92.88c1.87.13,3.75.26,5.62.45a3.17,3.17,0,0,0,2.36-.67c5.61-4.2,11.35-8.22,17.34-11.87a43.168,43.168,0,0,1,8.32-4.24l.74-.22a1.58,1.58,0,0,1,.81,1.07c-.18.53-.34,1.06-.54,1.57-1.63,4.12-3.21,8.27-4.7,12.44-.83,2.33-1.36,4.74-2.14,7.08-3.5,1.7-7,3.42-10.5,5.08a55.323,55.323,0,0,1-7.24,2.92,5.56,5.56,0,0,1-3.28.1,8.487,8.487,0,0,0-.88-.14l-11-3.49c-3.13-1.11-6.28-2.16-9.37-3.39-.44-.17-.86-.36-1.3-.55a14.85,14.85,0,0,1,1.51-6.12A1.36,1.36,0,0,1,566.09,360.86Z" transform="translate(-210.7 -203.87)" fill="#a4aa23"/>
      <path id="Path_21" data-name="Path 21" d="M573.9,371.82l11,3.49q-4.47,2.63-8.95,5.24a5.92,5.92,0,0,0-3.17,5.35q0,21.165,0,42.35c0,.37-.11.78.25,1.07a1.06,1.06,0,0,0,.65,1.12c1.16.62,2.29,1.3,3.42,2a6.819,6.819,0,0,0,2,1q1.32,6.76,2.63,13.53v.64l-2.6-1.31a3.919,3.919,0,0,0-1.14-.8c-1.16-.69-2.36-1.32-3.46-2.12a9,9,0,0,1-1.79-5.12v-2.57a1.09,1.09,0,0,0-.64-1.13c-1.43-.77-2.84-1.58-4.25-2.38l-2.31-1.38a2.13,2.13,0,0,1-1.1-1.64,11.5,11.5,0,0,1-.15-1.65q0-22.72,0-45.45a11.479,11.479,0,0,1,.24-2.42,5.53,5.53,0,0,1,2.73-3.85l5.45-3.13a3.89,3.89,0,0,0,1.19-.84Z" transform="translate(-210.7 -203.87)" fill="#7e97e0"/>
      <path id="Path_22" data-name="Path 22" d="M461,429.92c.74,2.52,1.59,5,2.19,7.59a16.81,16.81,0,0,1-.62,9.31,1.071,1.071,0,0,0-.35.14,29.769,29.769,0,0,1-10.36,4.54,63.929,63.929,0,0,1-7.66,1.22,2.62,2.62,0,0,1-1.27-.57q-13.74-7.93-27.45-15.9a1.371,1.371,0,0,1-.29-.25.814.814,0,0,0,.76-.57c1.41-2.91,3.87-4.7,6.6-6.2a33.111,33.111,0,0,1,9.52-3.25c0,.47.05.94.05,1.41v9.76a3.49,3.49,0,0,0,1.36,2.9,5.7,5.7,0,0,0,1.28.85,14.45,14.45,0,0,0,12.53,0,4.16,4.16,0,0,0,2.64-4.27c-.12-3.55,0-7.1,0-10.66a44.176,44.176,0,0,1,6.75,2C458.15,428.53,459.47,429.43,461,429.92Z" transform="translate(-210.7 -203.87)" fill="#f3d3c3"/>
      <path id="Path_23" data-name="Path 23" d="M637.3,330a26.4,26.4,0,0,1-3.81,10.35l-.66,1.09-1,1a15.843,15.843,0,0,1-1.49-2.24.89.89,0,0,1,0-1.15,5.58,5.58,0,0,0,1-4,4,4,0,0,0-.69-2,1.57,1.57,0,0,0-2.52-.41c-.26.2-.51.43-.77.66-.46-.45-.42-1.17-1-1.57a10,10,0,0,1-3.7,1.27,26.162,26.162,0,0,1-4,.24,2.85,2.85,0,0,0-1.26.13,19.53,19.53,0,0,1-6.88,1.85h0a1,1,0,0,0-.91-.12,9.77,9.77,0,0,1-6.34-3,7.71,7.71,0,0,1-1.89-3.45c-.67-2.71.44-4.72,3.18-5.71.07-.32-.21-.51-.34-.75a3.43,3.43,0,0,1,.56-4.34,3.3,3.3,0,0,1,4.35-.43c1,.8,1.74.53,2.7,0a16.17,16.17,0,0,1,6.79-1.69,32.3,32.3,0,0,1,7.54.5h.93a7.54,7.54,0,0,1,2.68,2.24c.17.25.39.46.55.7a1.56,1.56,0,0,0,1.48.75,5,5,0,0,1,4,1.81,6.34,6.34,0,0,1,1.13,2.13c.09.28.1.61.53.58a2.29,2.29,0,0,0-.12,1.83,2.81,2.81,0,0,1,.07,1.74,9.547,9.547,0,0,0-.11,1.99Z" transform="translate(-210.7 -203.87)" fill="#3a2933"/>
      <path id="Path_24" data-name="Path 24" d="M510.07,437c.6.08.7.7,1.09,1s.67.36,1,0l.64-.63c2.25-2.24,4.44-4.53,6.76-6.68s4.3-4.18,6.48-6.23a4.39,4.39,0,0,0,1.34-4.43c-.24-1.09,0-2.21-.33-3.31-.16-.57.34-1,1-1.1a1.63,1.63,0,0,1,1.69,1.11,13.772,13.772,0,0,1,.66,2.6c.29,1.62.94,2,2.55,1.54a16.92,16.92,0,0,0,4.86-2.25,28.8,28.8,0,0,1,4.06-2.45,4.59,4.59,0,0,1,2.08-.56c.93,0,1.21.27,1.31,1.2a.949.949,0,0,0,.35.91,3.15,3.15,0,0,1,.91,3.17c-.78,4.38-4.54,8.56-9.2,9.18a29.536,29.536,0,0,0-4.07.41,7.34,7.34,0,0,0-3.2,1.78,54.672,54.672,0,0,0-6,7.33c-2.16,2.93-4.18,5.95-6.91,8.4a22.23,22.23,0,0,1-2.64,2,6.67,6.67,0,0,1-5.9.72c-1.31-.4-2.64-.7-4-1a10.881,10.881,0,0,1-4.35-2.39c-.39-.3-1-.45-1.05-1.06,1-.56,2-1.16,3-1.69a18.69,18.69,0,0,0,6.74-6.12,6.753,6.753,0,0,1,1.13-1.45Z" transform="translate(-210.7 -203.87)" fill="#ffc9b6"/>
      <path id="Path_25" data-name="Path 25" d="M510.07,437a6.749,6.749,0,0,0-1.13,1.52,18.69,18.69,0,0,1-6.74,6.12c-1,.53-2,1.13-3,1.69a29.1,29.1,0,0,0-3.45,1.59,2.22,2.22,0,0,1-1.67.15.6.6,0,0,0-.19-.46,36.453,36.453,0,0,1-5.83-6.91,26.529,26.529,0,0,1-4-10.65c-.18-1.13-.31-2.27-.42-3.4h2.31c4.15-.22,6.79-2.66,8.77-6a15.34,15.34,0,0,0,1.8-5.37c1.87,1.24,3.34,2.83,5.07,4.08a57.581,57.581,0,0,1,3.56,5.94c1.67,3.09,3.32,6.19,5.05,9.24a1.71,1.71,0,0,1,0,2.19.838.838,0,0,0-.13.27Z" transform="translate(-210.7 -203.87)" fill="#e32125"/>
      <path id="Path_26" data-name="Path 26" d="M449.93,426c0,3.56-.14,7.11,0,10.66a4.16,4.16,0,0,1-2.64,4.27,14.45,14.45,0,0,1-12.53,0,5.7,5.7,0,0,1-1.28-.85,3.49,3.49,0,0,1-1.36-2.9q0-4.89,0-9.76a13.292,13.292,0,0,0-.05-1.41c.1-2.91.06-5.83,0-8.74l.06-.24c2.55.19,5.1.36,7.66.4,3.37.06,6.73-.15,10.09-.41C449.91,420,449.92,423,449.93,426Z" transform="translate(-210.7 -203.87)" fill="#2c1922"/>
      <path id="Path_27" data-name="Path 27" d="M455.31,405.44q-.18,3-.37,5.89c-1.69.16-3.37.41-5.06.59s-3.4.38-5.08.4a90.248,90.248,0,0,1-10-.17c-2.15-.22-4.34-.32-6.47-.63a76.806,76.806,0,0,1-9.49-2,63.221,63.221,0,0,1-12.87-5,34.93,34.93,0,0,1-9.37-7,18.28,18.28,0,0,1-4.09-6.59,10,10,0,0,0-.82-2.49,1.13,1.13,0,0,1-.2-.84v-4.8c.31,0,.41.2.47.49,1.1,4.72,4,8.2,7.67,11.18,5.88,4.81,12.77,7.45,20,9.37a67.072,67.072,0,0,0,8.75,1.75c2.23.29,4.49.44,6.73.64a91.23,91.23,0,0,0,9.35.14c1.78,0,3.57-.21,5.34-.38S453.47,405.48,455.31,405.44Z" transform="translate(-210.7 -203.87)" fill="#f3d3c3"/>
      <path id="Path_28" data-name="Path 28" d="M610.63,335.2a19.529,19.529,0,0,0,6.88-1.85,2.85,2.85,0,0,1,1.26-.13,26.161,26.161,0,0,0,4-.24,10,10,0,0,0,3.7-1.27c.58.4.54,1.12,1,1.57.26-.23.51-.46.77-.66a1.57,1.57,0,0,1,2.52.41,4,4,0,0,1,.69,2,5.58,5.58,0,0,1-1,4,.89.89,0,0,0,0,1.15,15.844,15.844,0,0,0,1.49,2.24,5,5,0,0,0,.31,1.1,3.28,3.28,0,0,1-.22,3.5c-.15.25-.26.54-.4.8-2,3.52-4.41,6.79-6.47,10.28a49.747,49.747,0,0,0-5.51-1.35c.6-2.13,1.73-4.07,2.29-6.2a1.26,1.26,0,0,0-1-.13,5.62,5.62,0,0,1-4-1.34c-.34-.26-.67-.54-1-.81l-1.56-2.05a1.58,1.58,0,0,0-.81-1.07,24.206,24.206,0,0,0-1.3-3.57,26.687,26.687,0,0,1-1.64-6.38Z" transform="translate(-210.7 -203.87)" fill="#ffc9b6"/>
      <path id="Path_29" data-name="Path 29" d="M391.69,388.47a10,10,0,0,1,.82,2.49,18.279,18.279,0,0,0,4.09,6.59,34.93,34.93,0,0,0,9.37,7,63.22,63.22,0,0,0,12.87,5,76.806,76.806,0,0,0,9.49,2c2.13.31,4.32.41,6.47.63a90.234,90.234,0,0,0,10,.17,45.92,45.92,0,0,0,5.08-.4c1.69-.19,3.37-.43,5.06-.59a26,26,0,0,0,.76,4.88,45.534,45.534,0,0,1-5.81.78c-3.36.26-6.72.47-10.09.41-2.56,0-5.11-.21-7.66-.4h-.32a88.538,88.538,0,0,1-9.72-1.54,63.75,63.75,0,0,1-16.24-5.81,34.579,34.579,0,0,1-9.47-7.17,18.29,18.29,0,0,1-4.56-8.76,5.6,5.6,0,0,1-.11-1.15C391.7,391.21,391.7,389.84,391.69,388.47Z" transform="translate(-210.7 -203.87)" fill="#ffc9b6"/>
      <path id="Path_30" data-name="Path 30" d="M637.3,330a9.541,9.541,0,0,1,.22-2,2.81,2.81,0,0,0-.07-1.74,2.29,2.29,0,0,1,.12-1.83,9.5,9.5,0,0,0,1.93-3.56,2.43,2.43,0,0,0-2.16-3.12c-.65-.08-.8-.25-.87-.9a2.27,2.27,0,0,0-3.09-2.1c-.19.05-.36.25-.63.09a2.234,2.234,0,0,0-.15-.56,2.45,2.45,0,0,0-2-1.93,2.49,2.49,0,0,0-2.54,1.37,6.109,6.109,0,0,0-.92,2.5h-.93a14.269,14.269,0,0,0-.81-2.55,11.091,11.091,0,0,1-.47-3.29,4.7,4.7,0,0,1,1.82-3.67,8.3,8.3,0,0,1,4.34-1.78,5.65,5.65,0,0,1,5.65,2.81c.28.42.51.87.79,1.35a9.549,9.549,0,0,1,2.37-1.05,5.93,5.93,0,0,1,4.86,1.11c.44.33.86.7,1.29,1.06l.63.8a4.27,4.27,0,0,1,.52,4.58,9.242,9.242,0,0,1-2,2.79c-.23.24-.57.39-.67.75.1.26.36.34.56.49a7.13,7.13,0,0,1,2.62,8.07c-.77,2.35-2.83,3.64-5.61,3.55a13.06,13.06,0,0,1-4.8-1.24Z" transform="translate(-210.7 -203.87)" fill="#2c1922"/>
      <path id="Path_31" data-name="Path 31" d="M468.59,567.35c2-1.4,4.27-2.46,6.37-3.75a1.54,1.54,0,0,1,.5-.08v39.46a1.92,1.92,0,0,1-1.14,2c-1.57.79-3.05,1.73-4.58,2.6-.29.16-.53.44-.92.39V568.79C468.87,568.3,469.06,567.75,468.59,567.35Z" transform="translate(-210.7 -203.87)" fill="#3a2933"/>
      <path id="Path_32" data-name="Path 32" d="M528.79,532.89a59.62,59.62,0,0,1,6.67-3.83,18.415,18.415,0,0,0-.15,3.32v36.07a1.87,1.87,0,0,1-1.14,2c-1.76.86-3.35,2-5.15,2.84-.42-.43-.23-1-.23-1.46Q528.79,552.36,528.79,532.89Z" transform="translate(-210.7 -203.87)" fill="#3a2933"/>
      <path id="Path_33" data-name="Path 33" d="M644,449.9v24a4.42,4.42,0,0,0,.78,2.77,25.581,25.581,0,0,1-5.8,3.07,4.82,4.82,0,0,1-4.23-1.4l-.21-.17-.32-.22a1.61,1.61,0,0,0-.21-1,7.44,7.44,0,0,1-.82-3.82v-8.34l.27-1.25a20.47,20.47,0,0,1,5.17-10A20.71,20.71,0,0,1,644,449.9Z" transform="translate(-210.7 -203.87)" fill="#677dce"/>
      <path id="Path_34" data-name="Path 34" d="M567.91,432.17c1.41.8,2.82,1.61,4.25,2.38a1.09,1.09,0,0,1,.64,1.13v2.57a9,9,0,0,0,1.79,5.12v25.2c-.4.18-.64-.15-.91-.31-1.64-.92-3.25-1.9-4.9-2.79a1.55,1.55,0,0,1-.92-1.6c0-9,0-18.06,0-27.08C567.87,435.25,567.89,433.71,567.91,432.17Z" transform="translate(-210.7 -203.87)" fill="#3a2933"/>
      <path id="Path_35" data-name="Path 35" d="M566.09,360.86a1.36,1.36,0,0,0-1.35.9,14.85,14.85,0,0,0-1.51,6.12,25.11,25.11,0,0,0-6.45.8,13.92,13.92,0,0,1-5.19.3c-1.25-.22-2.55,0-3.82-.31a42.886,42.886,0,0,1-5.09-1.72c-1-.38-1.19-.74-1.06-1.81.06-.47-.27-.57-.5-.79-.77-.76-.69-1.16.32-1.71a4.107,4.107,0,0,0-1-.79c-.46-.39-.45-.74.09-1s.84-.38.93-1,.62-.48,1.07-.37a31.437,31.437,0,0,1,3.53,1.12c.92.34,1.86.65,2.78,1a6.2,6.2,0,0,0,5-.44c.86-.4.89-.63.26-1.3a11.909,11.909,0,0,0-3-2.41,2.17,2.17,0,0,1-1.1-1.19c-.15-.41,0-.69.43-.71a2.139,2.139,0,0,1,.88.1,41.756,41.756,0,0,0,6.73,2,23.8,23.8,0,0,1,4.88,1.92,9,9,0,0,0,3.17,1.29Z" transform="translate(-210.7 -203.87)" fill="#ffc9b6"/>
      <path id="Path_36" data-name="Path 36" d="M639,479.73a25.586,25.586,0,0,0,5.8-3.07,1.29,1.29,0,0,1,.77.49q0,15.71,0,31.42c0,.49.18,1-.21,1.47-2-1-3.85-2.18-5.79-3.24a.92.92,0,0,1-.55-.92c0-.6,0-1.19,0-1.79Q639,491.91,639,479.73Z" transform="translate(-210.7 -203.87)" fill="#3a2933"/>
      <path id="Path_37" data-name="Path 37" d="M338,493.89l5.73,3.36q-1.2,7.38-2.38,14.78-1,6-1.88,12a1.93,1.93,0,0,1-1.07,1.58c-1.69.9-3.33,1.91-5,2.85-.32.18-.67.65-1.1.12.46-.2.51-.6.57-1.05.2-1.42.46-2.84.68-4.26q.56-3.45,1.1-6.9c.32-2,.62-4.1.94-6.15.28-1.72.59-3.43.86-5.14.34-2.09.71-4.18,1-6.28a24.68,24.68,0,0,0,.55-4.91Z" transform="translate(-210.7 -203.87)" fill="#3a2933"/>
      <path id="Path_38" data-name="Path 38" d="M468.59,567.35c.47.4.28.95.28,1.44V608a14.788,14.788,0,0,1-3-1.58c-.38-.19-.31-.58-.34-.91l-.72-10.38c-.41-6-.83-12.05-1.22-18.08-.24-3.54-.44-7.09-.65-10.64a27.872,27.872,0,0,1,3.18,1.72c.25.13.47.4.75.06Z" transform="translate(-210.7 -203.87)" fill="#2c1922"/>
      <path id="Path_39" data-name="Path 39" d="M589.54,476.64a10.86,10.86,0,0,0,9.18-1.78,12.689,12.689,0,0,0,1.28,6.41,1.511,1.511,0,0,1,.06.37,8.371,8.371,0,0,0-1.68,2.55,3.43,3.43,0,0,1-1.86,1.81,61.152,61.152,0,0,0-9.7,5.67,7.931,7.931,0,0,1-2.5,1.25,3.53,3.53,0,0,1-3-.31,8.851,8.851,0,0,1-3.2-2.88c2.24-2.31,5.06-3.86,7.68-5.66a8.25,8.25,0,0,0,3.7-7.07C589.5,476.89,589.53,476.76,589.54,476.64Z" transform="translate(-210.7 -203.87)" fill="#ffc9b6"/>
      <path id="Path_40" data-name="Path 40" d="M528.79,532.89v38.94c0,.49-.19,1,.23,1.46a.37.37,0,0,1-.54.14l-1.11-.63c-2-1.16-2-1.17-2.15-3.53q-.87-13.12-1.77-26.24l-.39-5.63a8.931,8.931,0,0,0-.05-1.15,7.519,7.519,0,0,1,2.32-1.5,20.4,20.4,0,0,1,3.46-1.86Z" transform="translate(-210.7 -203.87)" fill="#2c1922"/>
      <path id="Path_41" data-name="Path 41" d="M618.59,490.8a18.759,18.759,0,0,0,3.56,1.31,5.48,5.48,0,0,0,5.15-1.48,4.562,4.562,0,0,1,.49-.38s.09,0,.1.06a34.9,34.9,0,0,1,2,5.1,14.149,14.149,0,0,0-1.2,2.4,4.45,4.45,0,0,1-2.28,2.62,53.786,53.786,0,0,0-8.32,6,9.889,9.889,0,0,1-2.44,1.65,3.41,3.41,0,0,1-2.61.31A7.9,7.9,0,0,1,609,505.6a19.731,19.731,0,0,1,4.11-4c.84-.72,1.75-1.36,2.56-2.12a9.45,9.45,0,0,0,2.89-6.89Z" transform="translate(-210.7 -203.87)" fill="#ffc9b6"/>
      <path id="Path_42" data-name="Path 42" d="M494.1,467.63a18,18,0,0,1-.65-3.49,51,51,0,0,1-.67-7.6,3.378,3.378,0,0,1,.11-1.14,36.21,36.21,0,0,1,11.82.89c4.55,1.19,6.24,3.44,6.86,8.52a120.017,120.017,0,0,0-17.47,2.82Z" transform="translate(-210.7 -203.87)" fill="#2c1922"/>
      <path id="Path_43" data-name="Path 43" d="M338,493.89a24.681,24.681,0,0,1-.59,4.92c-.25,2.1-.62,4.19-1,6.28-.27,1.71-.58,3.42-.86,5.14-.32,2-.62,4.1-.94,6.15q-.54,3.45-1.1,6.9c-.22,1.42-.48,2.84-.68,4.26-.06.45-.11.85-.57,1.05-.58-.18-1-.64-1.56-.86-.87-.35-1-1-.9-1.84.36-4.81.66-9.63,1-14.44q.58-8.88,1.18-17.77c.07-1,.13-2,.2-2.94a2.83,2.83,0,0,1,1.4.56C335.06,492.15,336.52,493,338,493.89Z" transform="translate(-210.7 -203.87)" fill="#2c1922"/>
      <path id="Path_44" data-name="Path 44" d="M578.16,489.73a8.85,8.85,0,0,0,3.2,2.88,3.53,3.53,0,0,0,3,.31,7.931,7.931,0,0,0,2.5-1.25,61.152,61.152,0,0,1,9.7-5.67,3.43,3.43,0,0,0,1.86-1.81,8.37,8.37,0,0,1,1.68-2.55,6.25,6.25,0,0,1,1.13,3,2.9,2.9,0,0,1-1.34,3.09,23.994,23.994,0,0,1-3.38,1.83,25.561,25.561,0,0,0-7.44,5.17,13.71,13.71,0,0,1-6.5,3.92,9.22,9.22,0,0,1-6.15-.37,6.2,6.2,0,0,1-2.8-2.36,1.92,1.92,0,0,1,.25-2.78,16.889,16.889,0,0,1,4.29-3.41Z" transform="translate(-210.7 -203.87)" fill="#2c1922"/>
      <path id="Path_45" data-name="Path 45" d="M609,505.6a7.9,7.9,0,0,0,4.06,2.77,3.41,3.41,0,0,0,2.61-.31,9.889,9.889,0,0,0,2.44-1.65,53.783,53.783,0,0,1,8.32-6,4.45,4.45,0,0,0,2.28-2.62,14.145,14.145,0,0,1,1.2-2.4,5.9,5.9,0,0,1,1.54,3.44,2.79,2.79,0,0,1-1.15,2.69,22.188,22.188,0,0,1-2.75,1.87,26.49,26.49,0,0,0-7.44,6.22,13.26,13.26,0,0,1-6.89,4.67,8.59,8.59,0,0,1-6-.39,5.35,5.35,0,0,1-2.49-2.14,1.67,1.67,0,0,1-.09-1.93A14.15,14.15,0,0,1,609,505.6Z" transform="translate(-210.7 -203.87)" fill="#2c1922"/>
      <path id="Path_46" data-name="Path 46" d="M502.65,410.32a27.73,27.73,0,0,0-2.92-6.18,28.868,28.868,0,0,0,3.52-1.54c1.54-.62,3.05-1.34,4.53-2.1a5.77,5.77,0,0,1,6.3.45,35.6,35.6,0,0,1,5.55,4.93A1,1,0,0,1,520,407c-.23.55-.75.47-1.22.44a4.714,4.714,0,0,1-.62-.16c-.57-.16-.71.1-.56.6a2.76,2.76,0,0,1-.05,2c-.39.82-1,.9-1.57.18a5.278,5.278,0,0,1-.66-1.09,1.06,1.06,0,0,0-1.44-.69,17,17,0,0,1-3,.53,4.41,4.41,0,0,1-1.88,0,1.92,1.92,0,0,0-1.13.11C506.11,409.41,504.38,409.86,502.65,410.32Z" transform="translate(-210.7 -203.87)" fill="#ffc9b6"/>
      <path id="Path_47" data-name="Path 47" d="M645.33,510c.39-.44.21-1,.21-1.47V477.11a36.631,36.631,0,0,1,5.28,3.09c-.22,3.2-.43,6.4-.65,9.59q-.61,8.84-1.2,17.66a1.42,1.42,0,0,1-.87,1.38c-.73.35-1.42.8-2.12,1.21C645.76,510.21,645.54,510.33,645.33,510Z" transform="translate(-210.7 -203.87)" fill="#2c1922"/>
      <path id="Path_48" data-name="Path 48" d="M701.82,454.74a.87.87,0,0,1,.42-.6c1.69-.88,3.24-2,5-2.77a33.759,33.759,0,0,1,.69,4c.32,1.74.6,3.5.87,5.25.32,2,.62,4,.92,6,.21,1.38.43,2.76.63,4.14a2.47,2.47,0,0,0,.56,1.51c-.2.29-.42.17-.65,0-1.92-1.1-3.83-2.22-5.76-3.31a1.14,1.14,0,0,1-.59-.9C703.23,463.65,702.52,459.2,701.82,454.74Z" transform="translate(-210.7 -203.87)" fill="#3a2933"/>
      <path id="Path_49" data-name="Path 49" d="M496.4,400a45.453,45.453,0,0,1-4.82-5.63,6.92,6.92,0,0,1-.92-6.57c.11-.33.23-.65.33-1,.48-1.59,1.26-2.79,3.13-3a9.14,9.14,0,0,0,3-1.39c1.23,3.81,1.21,7.73,1,11.65a10.34,10.34,0,0,1-1.33,4.63A2.07,2.07,0,0,0,496.4,400Z" transform="translate(-210.7 -203.87)" fill="#ffc9b6"/>
      <path id="Path_50" data-name="Path 50" d="M574.58,468.57v-25.2c1.1.8,2.3,1.43,3.46,2.12a3.919,3.919,0,0,1,1.14.8c-.25,3.44-.52,6.88-.76,10.32q-.32,4.59-.59,9.19a1.53,1.53,0,0,1-.92,1.51C576.13,467.68,575.36,468.15,574.58,468.57Z" transform="translate(-210.7 -203.87)" fill="#2c1922"/>
      <path id="Path_51" data-name="Path 51" d="M710.91,472.29a2.47,2.47,0,0,1-.56-1.51c-.2-1.38-.42-2.76-.63-4.14-.3-2-.6-4-.92-6-.27-1.75-.55-3.51-.87-5.25a33.771,33.771,0,0,0-.69-4,14.607,14.607,0,0,1,2.13-1.33c.88-.56,1.77-1.1,2.66-1.66.18,2.69.37,5.37.55,8.06.29,4.4.54,8.79.87,13.18a1.58,1.58,0,0,1-1,1.81A16.713,16.713,0,0,0,710.91,472.29Z" transform="translate(-210.7 -203.87)" fill="#2c1922"/>
      <path id="Path_52" data-name="Path 52" d="M633.2,464.8v8.34A7.441,7.441,0,0,0,634,477a1.61,1.61,0,0,1,.21,1c-1.66-.68-3.11-1.76-4.7-2.58A11.811,11.811,0,0,0,627,474c-.26-4.37-.38-8.75-.94-13.1a1.569,1.569,0,0,1,.83.27C629,462.42,631.11,463.61,633.2,464.8Z" transform="translate(-210.7 -203.87)" fill="#7e97e0"/>
      <path id="Path_53" data-name="Path 53" d="M600.31,458.61c.12-2.5.19-5,.38-7.5.13-1.61-.22-3.21-.05-4.82h.87a10.32,10.32,0,0,0,1,2.9c2.15,4.33,3.92,8.82,5.72,13.3a2,2,0,0,1,.11.5c-2.2-1.1-4.26-2.45-6.4-3.64A4.33,4.33,0,0,0,600.31,458.61Z" transform="translate(-210.7 -203.87)" fill="#7e97e0"/>
      <path id="Path_54" data-name="Path 54" d="M523,536.25a8.777,8.777,0,0,0,.05,1.15,16.3,16.3,0,0,0-2.47,1.33,12.28,12.28,0,0,1-5.26,1.87A80.612,80.612,0,0,1,523,536.25Z" transform="translate(-210.7 -203.87)" fill="#f94146"/>
      <path id="Path_55" data-name="Path 55" d="M609.67,335.06a1,1,0,0,1,.91.12C610.26,335.23,609.94,335.34,609.67,335.06Z" transform="translate(-210.7 -203.87)" fill="#ffc9b6"/>
      <path id="Path_56" data-name="Path 56" d="M431.82,417h.32l-.06.24Z" transform="translate(-210.7 -203.87)" fill="#f3d3c3"/>
      <path id="Path_57" data-name="Path 57" d="M634.54,478.16l.21.17a.18.18,0,0,1-.21-.17Z" transform="translate(-210.7 -203.87)" fill="#7e97e0"/>
      <path id="Path_58" data-name="Path 58" d="M709.28,344.24h-.22a2.071,2.071,0,0,0,0-.25C709.21,344,709.3,344.08,709.28,344.24Z" transform="translate(-210.7 -203.87)" fill="#7e97e0"/>
      <path id="Path_59" data-name="Path 59" d="M457.15,463a22.29,22.29,0,0,0,9.94,8.25.32.32,0,0,0,.31.19h0a133.767,133.767,0,0,0-3.05,13.25,13.16,13.16,0,0,0,.94,7.24,24.059,24.059,0,0,1,1.51,3.21,20.84,20.84,0,0,1-11.34-4.61,11.38,11.38,0,0,1-3.84-7.33c-.62-4.42.52-8.55,2-12.63a60.665,60.665,0,0,1,3.53-7.57Z" transform="translate(-210.7 -203.87)" fill="#2c1922"/>
      <path id="Path_60" data-name="Path 60" d="M461.46,450.67a37.361,37.361,0,0,1-2.46,6.54,13.679,13.679,0,0,1-1.66,3.28l-8-4.65c-.24-.14-.56-.21-.66-.54,1-.21,2-.39,3-.63A34.53,34.53,0,0,0,461.46,450.67Z" transform="translate(-210.7 -203.87)" fill="#fff"/>
      <path id="Path_61" data-name="Path 61" d="M461.46,450.67a34.53,34.53,0,0,1-9.81,4c-1,.24-2,.42-3,.63a29.539,29.539,0,0,1-4.46-2.58,63.935,63.935,0,0,0,7.66-1.22,29.77,29.77,0,0,0,10.36-4.5,1.07,1.07,0,0,1,.35-.14,15.691,15.691,0,0,1-1.1,3.81Z" transform="translate(-210.7 -203.87)" fill="#ffc9b6"/>
      <path id="Path_62" data-name="Path 62" d="M622.15,412.89c-1.12-.13-2.2.27-3.31.21a4.931,4.931,0,0,0,.53-2.56,8.17,8.17,0,0,0-1.57-4.47,26.663,26.663,0,0,1,4-2.77,59.738,59.738,0,0,1,5.51-3,36.162,36.162,0,0,0,5.92-4,38.859,38.859,0,0,0,4.07-3.3,1.23,1.23,0,0,0,.51-1.11c-.3-1.75-.61-3.51-.89-5.27-.31-2-.61-4-.88-5.93-.22-1.56-.4-3.12-.61-4.68a39.363,39.363,0,0,1-.43-3.93,42,42,0,0,1,.54-7.26,19.78,19.78,0,0,1,2.39-7.37c.87-1.48,2-2.73,3.84-2.89a8.09,8.09,0,0,1,2.93.2,7.439,7.439,0,0,0,2,.52,28.5,28.5,0,0,1,2.56,1.71,13.28,13.28,0,0,1,4.29,8.38,32.418,32.418,0,0,1,.08,7.17,79.036,79.036,0,0,0-.31,9.49c-.43.37-.29.88-.27,1.32.15,3.51-.25,7-.3,10.49a41.3,41.3,0,0,1-.54,4.69A4.69,4.69,0,0,1,651,401a23.2,23.2,0,0,1-2.73,2.7,42.27,42.27,0,0,1-10.42,5.91l-2.62,1v.18h3.59a11,11,0,0,1-3.79.18,20.771,20.771,0,0,0-4.53.61c-2.43.39-4.85.82-7.31,1a8.552,8.552,0,0,0-1.04.31Z" transform="translate(-210.7 -203.87)" fill="#a4aa23"/>
      <path id="Path_63" data-name="Path 63" d="M646.67,355.26a7.441,7.441,0,0,1-2-.52,8.09,8.09,0,0,0-2.93-.2,4.96,4.96,0,0,0-3.84,2.89,19.781,19.781,0,0,0-2.39,7.37,42,42,0,0,0-.54,7.26,39.327,39.327,0,0,0,.43,3.93c.21,1.56.39,3.12.61,4.68.27,2,.57,3.95.88,5.93.28,1.76.59,3.52.89,5.27a1.23,1.23,0,0,1-.51,1.11,38.855,38.855,0,0,1-4.07,3.3,36.159,36.159,0,0,1-5.92,4,59.729,59.729,0,0,0-5.51,3,26.663,26.663,0,0,0-4,2.77c0-.08-.12-.17-.18-.25a18.651,18.651,0,0,1-3.47-3c.05-.16.11-.32.15-.48a30.45,30.45,0,0,0,1.44-5.94,20.361,20.361,0,0,0,.51-8.75,9.63,9.63,0,0,0-4.64-7,10.51,10.51,0,0,1-5.17-9.06c0-1.43.28-2.81.38-4.22.78-2.34,1.31-4.75,2.14-7.08,1.49-4.17,3.07-8.32,4.7-12.44.2-.51.36-1,.54-1.57l1.56,2.05c-.06.06-.15.1-.19.17-1.79,3.06-3.3,6.27-4.79,9.49a.74.74,0,0,0,.27,1,24,24,0,0,0,2.81,2.21c.27.18.62.29.65.74-1.56.87-3.22,1.58-4.75,2.51-1,.61-1.13.8-.94,1.93.17,1,.3,1.93.47,2.89a31.151,31.151,0,0,0,2.46,8.18,55.664,55.664,0,0,0,3.73,6.27c1.24,1.88,2.61,3.69,3.93,5.52.16.22.27.59.67.45s.23-.42.3-.65a37,37,0,0,1,4.74-10.44,82.267,82.267,0,0,0,4.41-7.95,1.13,1.13,0,0,0-.07-1.5c-1.06-1.22-2-2.53-3-3.78-.78-.95-.74-1.15.49-1.48,1.48-.4,3-.78,4.46-1.14a2.06,2.06,0,0,0,1.64-1.54,57.328,57.328,0,0,0,2.74-12.05,6.079,6.079,0,0,0-.06-1.41,16.836,16.836,0,0,0-.69-3,26.422,26.422,0,0,1,5.15,3.34,28.749,28.749,0,0,1,5.8,6,4.361,4.361,0,0,1,.71,1.19Z" transform="translate(-210.7 -203.87)" fill="#c4cb33"/>
      <path id="Path_64" data-name="Path 64" d="M635,344.75a16.847,16.847,0,0,1,.69,3,6.078,6.078,0,0,1,.06,1.41A57.326,57.326,0,0,1,633,361.18a2.06,2.06,0,0,1-1.64,1.54c-1.49.36-3,.74-4.46,1.14-1.23.33-1.27.53-.49,1.48,1,1.25,2,2.56,3,3.78a1.13,1.13,0,0,1,.07,1.5c-1.45,2.66-2.7,5.44-4.41,7.95A37,37,0,0,0,620.38,389c-.07.23,0,.55-.3.65s-.51-.23-.67-.45c-1.32-1.83-2.69-3.64-3.93-5.52a55.678,55.678,0,0,1-3.73-6.27,31.151,31.151,0,0,1-2.46-8.18c-.17-1-.3-1.93-.47-2.89-.19-1.13-.06-1.32.94-1.93,1.53-.93,3.19-1.64,4.75-2.51,0-.45-.38-.56-.65-.74a24,24,0,0,1-2.81-2.21.74.74,0,0,1-.27-1c1.49-3.22,3-6.43,4.79-9.49,0-.07.13-.11.19-.17.33.27.66.55,1,.81a5.62,5.62,0,0,0,4,1.34,1.26,1.26,0,0,1,1,.13c-.56,2.13-1.69,4.07-2.29,6.2a70.079,70.079,0,0,0-4.35,14.07,13.451,13.451,0,0,0-.08,5,32.139,32.139,0,0,0,3.73,9.79c.08.13.14.33.45.3-.13-1.17-.26-2.34-.37-3.52a31.994,31.994,0,0,1,0-7.05,45,45,0,0,1,2.74-10c.94-2.49,2.22-4.82,3.35-7.22,2.06-3.49,4.47-6.76,6.47-10.28.14-.26.25-.55.4-.8a3.28,3.28,0,0,0,.22-3.5,5,5,0,0,1-.31-1.1l1-1A24.159,24.159,0,0,1,635,344.75Z" transform="translate(-210.7 -203.87)" fill="#a4aa23"/>
      <path id="Path_65" data-name="Path 65" d="M638.9,410.86h-3.59v-.18l2.62-1a42.271,42.271,0,0,0,10.42-5.91A23.193,23.193,0,0,0,651,401a4.69,4.69,0,0,0,1.14-2.53,41.3,41.3,0,0,0,.54-4.69c0-3.49.45-7,.3-10.49,0-.44-.16-.95.27-1.32a9.57,9.57,0,0,1,.39,3.14c.22,4.79,1.33,9.43,2.24,14.1.34,1.71.64,3.43,1,5.14v1C651.51,409.39,645.36,410.66,638.9,410.86Z" transform="translate(-210.7 -203.87)" fill="#c4cb33"/>
      <path id="Path_66" data-name="Path 66" d="M449.89,417a45.53,45.53,0,0,0,5.81-.78l1.67,3.81c-.08,3,.6,5.73,3,7.8a3.47,3.47,0,0,1,.63,2.1c-1.52-.49-2.84-1.39-4.31-2a44.182,44.182,0,0,0-6.75-2C449.92,423,449.91,420,449.89,417Z" transform="translate(-210.7 -203.87)" fill="#fff"/>
      <path id="Path_67" data-name="Path 67" d="M460.36,427.82c-2.39-2.07-3.07-4.79-3-7.8a24.382,24.382,0,0,0,3.07,3.58.87.87,0,0,0-.25,1c.34.85,0,1.78.41,2.63A.485.485,0,0,1,460.36,427.82Z" transform="translate(-210.7 -203.87)" fill="#e32125"/>
      <path id="Path_68" data-name="Path 68" d="M483.59,426.7a.22.22,0,0,1-.26-.11.18.18,0,0,1,.26.11Z" transform="translate(-210.7 -203.87)" fill="#e32125"/>
      <path id="Path_69" data-name="Path 69" d="M633.2,464.8c-2.09-1.19-4.19-2.38-6.27-3.59a1.571,1.571,0,0,0-.83-.27,30.75,30.75,0,0,0-2.2-7.34.69.69,0,0,1,.29-1.05c1.62-1.11,3.17-2.33,4.7-3.56,2.23-1.81,4.25-3.84,6.33-5.8,2.76,1.59,5.51,3.19,8.27,4.77a.89.89,0,0,1,.52.92v1a20.71,20.71,0,0,0-5.37,3.67,20.47,20.47,0,0,0-5.17,10Z" transform="translate(-210.7 -203.87)" fill="#8eaaef"/>
      <path id="Path_70" data-name="Path 70" d="M601.51,446.29h-.87a53,53,0,0,0-1.12-7.32.84.84,0,0,1,.55-1.1c2.77-1.32,5.44-2.84,8.14-4.29.09.39-.18.64-.37.91a69.454,69.454,0,0,1-4.28,6.05A8.2,8.2,0,0,0,601.51,446.29Z" transform="translate(-210.7 -203.87)" fill="#8eaaef"/>
      <path id="Path_71" data-name="Path 71" d="M524.28,321.62a11.59,11.59,0,0,0-3.38.54c-1.54.51-2.57,2.19-1.13,3.71a1.18,1.18,0,0,1,.4.91,1.15,1.15,0,0,1-1.7.94,3.48,3.48,0,0,1-2.14-3.48,4.72,4.72,0,0,1,1.61-3.26,8.28,8.28,0,0,1,7.91-1.81,19.127,19.127,0,0,1,2.41.84c3.68,1.41,5.19,5.92,4.32,9.18a6.17,6.17,0,0,1-3.83,4.21c-1.06.44-2.18.75-3.28,1.09a5,5,0,0,0-1.61.78c-1.92,1.52-2,3.61-.2,5.24a5.738,5.738,0,0,0,1.15.82,1.128,1.128,0,0,1-.74,2.06c-2.91-.23-5.27-3.84-4.37-6.69a5.66,5.66,0,0,1,3-3.49,21.254,21.254,0,0,1,2.9-1,10.339,10.339,0,0,0,2.58-1.1,4.82,4.82,0,0,0,.79-7.71,6.41,6.41,0,0,0-4.69-1.78Z" transform="translate(-210.7 -203.87)" fill="#2c1922"/>
      <path id="Path_72" data-name="Path 72" d="M524.72,346.34a2.14,2.14,0,1,1-2.026,2.107A2.14,2.14,0,0,1,524.72,346.34Z" transform="translate(-210.7 -203.87)" fill="#2c1922"/>
      <path id="Path_73" data-name="Path 73" d="M467.4,471.44a.32.32,0,0,1-.31-.19.27.27,0,0,1,.31.19Z" transform="translate(-210.7 -203.87)" fill="#3a2933"/>
      <path id="Path_74" data-name="Path 74" d="M611.11,418.28a2.64,2.64,0,0,1-1.13-.54c-3-1.7-6.07-3.42-9.1-5.13a3.109,3.109,0,0,0-1.15-.54,3.149,3.149,0,0,0-.61-.42,2.71,2.71,0,0,1-1.68-1.88,10.42,10.42,0,0,0-1-2.31,6.639,6.639,0,0,0-.18-.74q-4-10.17-8-20.35c-.81-2.07-.66-2.55,1.24-3.65a.6.6,0,0,1,.7,0,6,6,0,0,0-.91,2.49,2.66,2.66,0,0,0,1.31,2.69c.19.08.43.2.58,0s0-.49-.24-.6a1.33,1.33,0,0,1-1-1.46c.73.09,1.19.89,2,.77a8.618,8.618,0,0,0,.09,1.14,2.28,2.28,0,0,0,1.2,1.71c.23.12.51.27.69,0s0-.49-.3-.58a1.35,1.35,0,0,1-1-1.46c.78-.06,1.21.77,2,.75a4.882,4.882,0,0,0,.24,1.52,2.05,2.05,0,0,0,1.12,1.32c.19.09.43.21.58,0a.409.409,0,0,0-.25-.59,1.33,1.33,0,0,1-1-1.48c.74.07,1.26.7,2,.77a4.715,4.715,0,0,0,.07,1,2.48,2.48,0,0,0,1.24,1.83c.22.13.52.24.68,0s0-.51-.29-.59a1.27,1.27,0,0,1-1-1.43,1.89,1.89,0,0,1,1.24.47,4.551,4.551,0,0,0,1.66.79,2.77,2.77,0,0,0,.31,1.23c1,2.62,2.08,5.22,3.08,7.84a30.3,30.3,0,0,1,1.81,5,3,3,0,0,1-2.39-.69,17.384,17.384,0,0,0-2.65-1.53,2.43,2.43,0,0,0-1-.32c-.8,0-1.06.33-.8,1.11.1.31.44.6.16.94a1.68,1.68,0,0,0,0,2c.22.42.65.87-.18,1.2-.29.11-.23.55-.06.81a9.62,9.62,0,0,0,2.44,2.91,15.14,15.14,0,0,0,8.27,2.59,2.27,2.27,0,0,0,.26,1.08,8.529,8.529,0,0,1,.95,2.33Z" transform="translate(-210.7 -203.87)" fill="#f3d3c3"/>
      <path id="Path_75" data-name="Path 75" d="M610.09,415a15.14,15.14,0,0,1-8.27-2.59,9.619,9.619,0,0,1-2.44-2.91c-.17-.26-.23-.7.06-.81.83-.33.4-.78.18-1.2a1.68,1.68,0,0,1,0-2c.28-.34-.06-.63-.16-.94-.26-.78,0-1.14.8-1.11a2.431,2.431,0,0,1,1,.32,17.375,17.375,0,0,1,2.65,1.53,3,3,0,0,0,2.39.69,5.59,5.59,0,0,0,1.78,0c.68-.14.85-.42.68-1.1s-.43-1.46-.65-2.19a16,16,0,0,1,3.57,1.8c.91.81,1.78,1.67,2.76,2.4A1.41,1.41,0,0,0,616,407c.4-.22.85-.37,1.26-.58.23-.11.46-.25.34-.58.06.08.13.17.18.25a8.17,8.17,0,0,1,1.57,4.47,4.931,4.931,0,0,1-.53,2.56,25.511,25.511,0,0,1-5.91,1.85Z" transform="translate(-210.7 -203.87)" fill="#ffc9b6"/>
      <path id="Path_76" data-name="Path 76" d="M579.13,433.43a6.82,6.82,0,0,1-2-1c-1.13-.66-2.26-1.34-3.42-2a1.06,1.06,0,0,1-.65-1.12,3.71,3.71,0,0,1,.28-1.36,20,20,0,0,1,5.63-10.11,22.121,22.121,0,0,1,4.35-2.87c.57-.34,1.07-.89,1.83-.83a8.691,8.691,0,0,0,.9.7c1.32.77,2.66,1.54,4,2.27a4.72,4.72,0,0,0,1.93.95,49.283,49.283,0,0,1-4.16,3.19c-2,1.53-3.94,3.14-5.87,4.77a7.25,7.25,0,0,0-2.78,7,2.363,2.363,0,0,1-.04.41Z" transform="translate(-210.7 -203.87)" fill="#8eaaef"/>
      <path id="Path_77" data-name="Path 77" d="M592,418.07a4.72,4.72,0,0,1-1.93-.95c-1.35-.73-2.69-1.5-4-2.27a8.68,8.68,0,0,1-.9-.7,8.421,8.421,0,0,1,2.73-1.8c2.84-1.68,5.68-3.37,8.61-4.89a10.419,10.419,0,0,1,1,2.31,2.71,2.71,0,0,0,1.68,1.88,3.15,3.15,0,0,1,.61.42c-2.27,1.66-4.43,3.45-6.62,5.21A3.8,3.8,0,0,1,592,418.07Z" transform="translate(-210.7 -203.87)" fill="#7e97e0"/>
      <path id="Path_78" data-name="Path 78" d="M610.09,415h2.84c.59,1.75.6,1.76-1,3-.23.18-.4.6-.83.35a8.527,8.527,0,0,0-.76-2.25A2.271,2.271,0,0,1,610.09,415Z" transform="translate(-210.7 -203.87)" fill="#fff"/>
      <path id="Path_79" data-name="Path 79" d="M552.43,287.29a8.91,8.91,0,0,1,5.05-7.45,5.75,5.75,0,0,1,5.43.41,14.909,14.909,0,0,1,4.22,3.52c.76.87.78.77,1.43,0a16.16,16.16,0,0,1,3.88-3.35,6.1,6.1,0,0,1,8.24,1.16,9.05,9.05,0,0,1,2.43,4.58,7.469,7.469,0,0,1-.65,4.5,15.3,15.3,0,0,1-3.88,5.07,42.821,42.821,0,0,1-9.92,6.59,1.57,1.57,0,0,1-1.57,0,39.77,39.77,0,0,1-11-7.66,11.78,11.78,0,0,1-3.46-6.05C552.54,288.23,552.5,287.81,552.43,287.29Z" transform="translate(-210.7 -203.87)" fill="#f94146"/>
      <path id="Path_80" data-name="Path 80" d="M596.46,407.46c-2.93,1.52-5.77,3.21-8.61,4.89a8.419,8.419,0,0,0-2.73,1.8c-.76-.06-1.26.49-1.83.83a22.123,22.123,0,0,0-4.35,2.87A20,20,0,0,0,573.31,428a3.711,3.711,0,0,0-.28,1.36c-.36-.29-.25-.7-.25-1.07V385.94a5.92,5.92,0,0,1,3.17-5.35q4.49-2.61,8.95-5.24a8.477,8.477,0,0,1,.88.14,5.56,5.56,0,0,0,3.28-.1,55.323,55.323,0,0,0,7.24-2.92c3.51-1.66,7-3.38,10.5-5.08-.1,1.41-.42,2.79-.38,4.22a10.51,10.51,0,0,0,5.17,9.06,9.63,9.63,0,0,1,4.64,7,20.36,20.36,0,0,1-.51,8.75,2.78,2.78,0,0,0-1.18.48c-1.25.72-2.46,1.53-3.74,2.19a15.413,15.413,0,0,1-3.4,1.75c-.84-2.13-1.66-4.26-2.54-6.38a36.8,36.8,0,0,0-1.75-4.22c-.15-.43-.66-.47-.91-.79a.59.59,0,0,0,0-.13c.08-1.94-.45-2.62-2.35-2.86-.43-.06-.54-.34-.72-.62a1.74,1.74,0,0,0-1.7-.93.91.91,0,0,1-1-.57,1.63,1.63,0,0,0-1.55-1,1.15,1.15,0,0,1-1.21-.67,1.74,1.74,0,0,0-2.66-.54,9.174,9.174,0,0,0-.81.62.6.6,0,0,0-.7,0c-1.9,1.1-2,1.58-1.24,3.65q4,10.17,8,20.35a6.627,6.627,0,0,1,.2.71Z" transform="translate(-210.7 -203.87)" fill="#677dce"/>
      <path id="Path_81" data-name="Path 81" d="M627.15,316.21a6.111,6.111,0,0,1,.92-2.5,2.49,2.49,0,0,1,2.54-1.37,2.45,2.45,0,0,1,2,1.93c.06.19.11.4.15.56.27.16.44,0,.63-.09a2.27,2.27,0,0,1,3.09,2.1c.07.65.22.82.87.9a2.43,2.43,0,0,1,2.16,3.12,9.5,9.5,0,0,1-1.93,3.56c-.43,0-.44-.3-.53-.58a6.34,6.34,0,0,0-1.13-2.13,5,5,0,0,0-4-1.81,1.56,1.56,0,0,1-1.48-.75c-.16-.24-.38-.45-.55-.7A7.54,7.54,0,0,0,627.15,316.21Z" transform="translate(-210.7 -203.87)" fill="#fff"/>
      <path id="Path_82" data-name="Path 82" d="M625.06,358.14c-1.13,2.4-2.41,4.73-3.35,7.22a45,45,0,0,0-2.74,10,31.994,31.994,0,0,0,0,7.05c.11,1.18.24,2.35.37,3.52a.449.449,0,0,1-.45-.3,32.14,32.14,0,0,1-3.73-9.79,13.45,13.45,0,0,1,.08-5,70.079,70.079,0,0,1,4.35-14.07,49.731,49.731,0,0,1,5.47,1.37Z" transform="translate(-210.7 -203.87)" fill="#fff"/>
      <path id="Path_83" data-name="Path 83" d="M607.42,400.83a15.41,15.41,0,0,0,3.4-1.75c1.28-.66,2.49-1.47,3.74-2.19a2.78,2.78,0,0,1,1.18-.48,30.45,30.45,0,0,1-1.44,5.94,1.771,1.771,0,0,1-.15.48,17.73,17.73,0,0,0-2.53,1.56,16,16,0,0,0-3.57-1.8Z" transform="translate(-210.7 -203.87)" fill="#7e97e0"/>
      <path id="Path_84" data-name="Path 84" d="M611.62,404.39a17.726,17.726,0,0,1,2.53-1.56,18.65,18.65,0,0,0,3.47,3c.12.33-.11.47-.34.58-.41.21-.86.36-1.26.58a1.41,1.41,0,0,1-1.64-.19C613.4,406.06,612.53,405.2,611.62,404.39Z" transform="translate(-210.7 -203.87)" fill="#2c1922"/>
      <path id="Path_85" data-name="Path 85" d="M607.42,400.83l.63,1.76c.22.73.46,1.46.65,2.19s0,1-.68,1.1a5.589,5.589,0,0,1-1.78,0,30.291,30.291,0,0,0-1.81-5c-1-2.62-2.06-5.22-3.08-7.84a2.77,2.77,0,0,1-.31-1.23,4.11,4.11,0,0,0,1.05-.9c.31-.28.56-.65,1-.67a36.8,36.8,0,0,1,1.75,4.22C605.76,396.57,606.58,398.7,607.42,400.83Z" transform="translate(-210.7 -203.87)" fill="#fff"/>
      <path id="Path_86" data-name="Path 86" d="M590.24,382.77a9.172,9.172,0,0,1,.81-.62,1.74,1.74,0,0,1,2.66.54,1.15,1.15,0,0,0,1.21.67,1.63,1.63,0,0,1,1.55,1,.91.91,0,0,0,1,.57,1.74,1.74,0,0,1,1.7.93c.18.28.29.56.72.62,1.9.24,2.43.92,2.35,2.86a.593.593,0,0,1,0,.13c-.25,0-.41-.18-.6-.3a2.21,2.21,0,0,0-.43-1.69,1.11,1.11,0,0,0-1.13-.43c-.47.11-.54.48-.58.88-.34-.1-.66-.13-.86.25a3,3,0,0,0-.48,2.39,1.27,1.27,0,0,0,1,1.43c.26.08.46.32.29.59s-.46.15-.68,0a2.48,2.48,0,0,1-1.24-1.83,4.715,4.715,0,0,0-.07-1,6.17,6.17,0,0,1,.93-2.3.85.85,0,0,0,.35-1.21,1.24,1.24,0,0,0-1.11-.76c-.53,0-.74.34-.74.84a.74.74,0,0,0-1,.34,3.22,3.22,0,0,0-.46,2.32,1.33,1.33,0,0,0,1,1.48c.26.1.43.32.25.59s-.39.11-.58,0a2.05,2.05,0,0,1-1.12-1.32,4.88,4.88,0,0,1-.24-1.52,7.729,7.729,0,0,1,1-2.34.74.74,0,0,0,.35-1.16,1.26,1.26,0,0,0-1.22-.78c-.53,0-.71.41-.73.88-.28-.11-.55-.25-.77.13a3.18,3.18,0,0,0-.57,2.52,1.35,1.35,0,0,0,1,1.46c.25.09.48.3.3.58s-.46.12-.69,0a2.28,2.28,0,0,1-1.2-1.71,8.619,8.619,0,0,1-.09-1.14,6.7,6.7,0,0,1,.91-2.29.83.83,0,0,0,.38-1.19,1.27,1.27,0,0,0-1.06-.82,1.51,1.51,0,0,0-1.3.69,2.93,2.93,0,0,0-.94,2.84,1.33,1.33,0,0,0,1,1.46c.26.11.43.32.24.6s-.39.09-.58,0a2.66,2.66,0,0,1-1.31-2.69A6,6,0,0,1,590.24,382.77Z" transform="translate(-210.7 -203.87)" fill="#f94146"/>
      <path id="Path_87" data-name="Path 87" d="M598.14,390.54a3,3,0,0,1,.48-2.39c.2-.38.52-.35.86-.25a11.138,11.138,0,0,0,2.14,1.24c.19.12.35.3.6.3.25.32.76.36.91.79-.48,0-.73.39-1,.67a4.109,4.109,0,0,1-1.05.9,4.549,4.549,0,0,1-1.66-.79,1.89,1.89,0,0,0-1.28-.47Z" transform="translate(-210.7 -203.87)" fill="#ffe8de"/>
      <path id="Path_88" data-name="Path 88" d="M595.66,385.87a7.728,7.728,0,0,0-1,2.34c-.76,0-1.19-.81-2-.75a3.18,3.18,0,0,1,.57-2.52c.22-.38.49-.24.77-.13C594.5,385.31,595.2,385.42,595.66,385.87Z" transform="translate(-210.7 -203.87)" fill="#ffe8de"/>
      <path id="Path_89" data-name="Path 89" d="M598.35,387.43a6.17,6.17,0,0,0-.93,2.3c-.74-.07-1.26-.7-2-.77a3.22,3.22,0,0,1,.46-2.32.74.74,0,0,1,1-.34C597.16,386.92,597.92,387,598.35,387.43Z" transform="translate(-210.7 -203.87)" fill="#ffe8de"/>
      <path id="Path_90" data-name="Path 90" d="M592.93,384.36a6.7,6.7,0,0,0-.91,2.29c-.82.12-1.28-.68-2-.77A2.93,2.93,0,0,1,591,383C591.48,383.67,592.35,383.8,592.93,384.36Z" transform="translate(-210.7 -203.87)" fill="#ffe8de"/>
      <path id="Path_91" data-name="Path 91" d="M592.93,384.36c-.58-.56-1.45-.69-2-1.32a1.51,1.51,0,0,1,1.3-.69,1.27,1.27,0,0,1,1.06.82.83.83,0,0,1-.36,1.19Z" transform="translate(-210.7 -203.87)" fill="#677dce"/>
      <path id="Path_92" data-name="Path 92" d="M601.62,389.14a11.14,11.14,0,0,1-2.14-1.24c0-.4.11-.77.58-.88a1.11,1.11,0,0,1,1.13.43,2.21,2.21,0,0,1,.43,1.69Z" transform="translate(-210.7 -203.87)" fill="#677dce"/>
      <path id="Path_93" data-name="Path 93" d="M595.66,385.87c-.46-.45-1.16-.56-1.6-1.06,0-.47.2-.85.73-.88a1.26,1.26,0,0,1,1.22.78.74.74,0,0,1-.35,1.16Z" transform="translate(-210.7 -203.87)" fill="#677dce"/>
      <path id="Path_94" data-name="Path 94" d="M598.35,387.43c-.43-.48-1.19-.51-1.5-1.13,0-.5.21-.85.74-.84a1.24,1.24,0,0,1,1.11.76.85.85,0,0,1-.35,1.21Z" transform="translate(-210.7 -203.87)" fill="#677dce"/>
    </g>
  </g>
</svg>
